<svg xmlns="http://www.w3.org/2000/svg" data-name="Layer 1" viewBox="0 0 700 550"><path d="M280.32312,120.25686s49.92,2.77,65.73,11.99c0,0-2.24,24.28-3.37988,46.88013l-.46,3.61987a105.40566,105.40566,0,0,1,14.3999,7.89991s4.01,3.88012,5.52,12.52a128.2998,128.2998,0,0,0,9.43994,18.3601q6.49512-1.155,13.48-2.59985l.4801-14.43018c-12.25-3.0498-7.55-5.56006-7.55-5.56006l1.34-.34985a20.509,20.509,0,0,1,6.42-.63989l.01-.40015,2.03-62.07007S311.49316,102.76687,280.32312,120.25686ZM373.39319,145.427l-3.32007-.09009c-2.22-.07007-4.42993-.21-6.6499-.3501-2.21-.16992-4.42005-.34008-6.62012-.57983-2.21-.24023-4.41992-.49023-6.60986-.8501,2.22-.05,4.43994.01,6.65991.08008,2.22.06982,4.43.21,6.64.34985,2.21009.17017,4.43006.34009,6.63.58008l3.31006.36987c1.1.16016,2.2.29,3.29992.48C375.62317,145.45681,374.51318,145.427,373.39319,145.427Zm4.03,5.7998c-1.12012.03-2.23,0-3.34009.01l-3.33-.09985c-2.22-.06006-4.43-.2002-6.64-.3501-2.21-.15991-4.41992-.33008-6.63-.58008-2.2-.23-4.41-.49-6.61-.84985,2.23-.05,4.45.01,6.66992.09009,2.21008.05981,4.43.19971,6.64014.34985,2.21.15991,4.41992.33008,6.62988.58008l3.3.36987C375.21326,150.907,376.32312,151.02688,377.42322,151.22683Zm-21.19007,7.31006c2.66.18994,5.30994.46,7.96009.73,2.6499.29,5.29992.59009,7.93994.96l3.95.57007c1.32007.22,2.64.40991,3.95007.66992-1.34-.03-2.67-.11987-4-.17993l-3.99011-.29c-2.65991-.18994-5.30994-.46-7.96-.74-2.63989-.29-5.29-.59008-7.92993-.96s-5.28-.75-7.91-1.23C350.91321,158.137,353.57312,158.32693,356.23315,158.53689Zm20.70008,30.68994c-.22,2.47022-.15,4.96-.20008,7.43018-.06994,2.47-.2,4.92993-.21,7.35986-.01.61011-.01,1.21,0,1.79.0199.29.0199.52.04993.83008l.09009.95a4.50321,4.50321,0,0,1-.26,2.32007,2.52486,2.52486,0,0,1-.97,1.06982,3.48605,3.48605,0,0,1-1.13013.41993,13.55385,13.55385,0,0,1-3.91992.02c-1.24-.14991-2.48-.33985-3.71-.55982a.09918.09918,0,0,1-.08008-.11011.118.118,0,0,1,.09009-.08984c1.24-.16016,2.48-.28,3.72-.37012a16.28018,16.28018,0,0,0,3.45-.54c.5-.18994.77-.37988.8-.60009a3.81388,3.81388,0,0,0-.02-1.34986l-.14-.88989c-.04992-.30005-.07995-.69019-.11-1.02-.01-.65015-.01-1.29.01-1.92017.14-2.51977.39-4.98.72-7.45.36-2.37011.86-4.72,1.17-7.08984a12.89769,12.89769,0,0,0-4.29-.38013,13.64837,13.64837,0,0,0-2.22.33008c-.37.07983-.71008.18994-1.07995.2898a8.04241,8.04241,0,0,1-1.27.23,14.25093,14.25093,0,0,1-4.86011-.51978,23.03437,23.03437,0,0,1-4.48-1.67993l-.07-.03027a1.73025,1.73025,0,0,0-.47009-.23975.63087.63087,0,0,0-.42993.00976.771.771,0,0,0-.36.39014,2.60688,2.60688,0,0,0-.22.62988l-.01.01a.091.091,0,0,1-.12.07007.08494.08494,0,0,1-.07007-.08008,3.28757,3.28757,0,0,1-.01-.77,1.43285,1.43285,0,0,1,.4-.77978,1.3016,1.3016,0,0,1,.91-.30005,2.06657,2.06657,0,0,1,.81006.16992c1.48.36988,2.98.72,4.47.98a23.23013,23.23013,0,0,0,4.3999.42017c.36011.00976.69006-.05,1.04-.07007.4-.04.82007-.11011,1.23-.11011a16.2915,16.2915,0,0,1,2.43.09009,41.21839,41.21839,0,0,1,4.70008.80982.30231.30231,0,0,1,.23.31Zm-1.28-9.52-3.99.17017c-2.65.11987-5.31006.1499-7.97.17993-2.66.01-5.31006.02-7.9701-.05-2.66-.05981-5.31994-.12988-7.98-.32007,2.66-.23,5.30994-.33984,7.9701-.45,2.65991-.10986,5.31994-.13989,7.97-.17993,2.65991-.01,5.31994-.02,7.98.05l3.99.10986c1.32995.07007,2.65991.11011,3.99.21021C378.31311,179.55691,376.98315,179.617,375.6532,179.70681Zm1.49-3.15991-3.33008-.09009c-2.22-.06982-4.42993-.21-6.63989-.34985-2.21-.17017-4.43006-.34009-6.63013-.58008-2.21-.24-4.40991-.49-6.60986-.84985,2.23-.05,4.45.00976,6.65991.07983,2.22.07007,4.43.21,6.65.3501,2.21009.16992,4.42005.34009,6.62.57983l3.31006.37012c1.1.15991,2.2.29,3.29992.48C379.36316,176.57693,378.25317,176.5469,377.14319,176.5469Zm-23.9-7.67993c2.23-.05,4.45008.01,6.67005.08984,2.22.06006,4.42993.2002,6.63989.3501,2.21008.15991,4.42.33008,6.63013.58008l3.30993.36987c1.1.15992,2.20008.29,3.29993.48-1.11987.03-2.23,0-3.33984.01l-3.33008-.10009c-2.21-.05982-4.42993-.19971-6.64-.34986-2.21-.15991-4.42-.33008-6.63-.58008C357.6532,169.48684,355.44324,169.23684,353.24316,168.867Zm24.36-2.90015-3.33-.08984c-2.22009-.06006-4.43-.2102-6.65-.3501-2.21-.16992-4.41992-.34009-6.62-.57983-2.21008-.24024-4.41-.49024-6.61-.8501,2.22-.05,4.43994.01,6.65991.08008,2.22009.06982,4.43005.21,6.64014.34985,2.22.17017,4.42993.34009,6.62988.58008l3.31006.37988c1.1.15992,2.2.28,3.3.47C379.82312,165.99685,378.71326,165.96682,377.60315,165.96682Zm1.43994-9.55981-3.32983-.09009c-2.2201-.06006-4.43006-.21-6.64014-.3501-2.21-.16992-4.41992-.33984-6.62988-.57983-2.21009-.24023-4.41-.49023-6.61011-.8501,2.23-.05,4.45007.01,6.66.08008,2.2201.06982,4.43006.21,6.65.34985,2.21.17017,4.41992.34009,6.62.58008l3.30994.38013c1.1001.15991,2.21008.27978,3.3.46973C381.26318,156.43679,380.1532,156.407,379.04309,156.407Zm.76-15.42017-3.99-.28979c-2.65991-.19019-5.30994-.46021-7.96-.74024-2.63989-.29-5.29-.58984-7.92993-.96-2.64-.36987-5.28-.75-7.91-1.23,2.67005.07007,5.33.26,7.99.47,2.66.19019,5.30994.46021,7.96009.73,2.6499.3,5.29992.59009,7.92993.97l3.96.56006c1.32007.22,2.64.41016,3.94995.66993C382.46326,141.137,381.13318,141.0469,379.8031,140.98684ZM340.51318,220.367a9.64959,9.64959,0,0,0-2.55993-4.14014l-.34009,2.7002c-25.8999,6.5498-40.46,7.46-48.15991,7.0498,9.87988,1.28,29.40991,2.55,59.05993-1C345.71326,224.927,340.97314,223.00686,340.51318,220.367Zm2.93006-28.33008s-.93006-.55-2.23-1.3999l-.18006,1.42993A11.85369,11.85369,0,0,1,343.44324,192.03689Z"/><path d="M281.81307,224.64671a27.43265,27.43265,0,0,1,3.91113-.05908c1.28113.04467,2.54517.16845,3.80676.32971a1.0584,1.0584,0,0,1-.196,2.10644,17.89289,17.89289,0,0,1-3.90918-.6206,12.7289,12.7289,0,0,1-1.89234-.67029A6.61491,6.61491,0,0,1,281.81307,224.64671Zm0,0c1.34472.08118,2.59521.076,3.86181.12073,1.2627.02209,2.516.07275,3.77637.14245l-.196,2.10645a24.03314,24.03314,0,0,1-3.80567-.80713A14.35986,14.35986,0,0,1,281.81307,224.64671Z"/><path fill="#020202" d="M419.74361 147.98814c.31262 2.74158.57947 5.47009.95947 8.1582.19666 1.34046.39783 2.68042.71033 3.96692a15.54325 15.54325 0 00.53552 1.86975 6.57828 6.57828 0 00.35889.84412l.22131.51953a3.034 3.034 0 01.21155.61572 4.74525 4.74525 0 01-.04981 2.46546 7.54836 7.54836 0 01-.9021 2.08508 17.61733 17.61733 0 01-2.69543 3.32886c-.25134.246-.50269.4906-.76306.72522l-.391.35058-.1969.17273a1.20974 1.20974 0 00-.13.12757 1.00049 1.00049 0 00-.218.69177 1.53249 1.53249 0 00.33239.77246 5.04694 5.04694 0 003.03968 2.26379.31133.31133 0 01.21716.16809l.00818.017a41.56687 41.56687 0 003.88269 6.34973 33.24309 33.24309 0 004.853 5.41358 9.24334 9.24334 0 002.89587 1.71692 4.33932 4.33932 0 001.5.24109 4.25494 4.25494 0 00.72473-.07166c.26135-.04321.582-.12878.87012-.1908a24.99593 24.99593 0 003.408-1.03686 7.7995 7.7995 0 001.4624-.75122 2.93575 2.93575 0 00.52917-.44336 1.08829 1.08829 0 00.15638-.19153l.03674-.05652c.007.02136-.00012-.06738.00378.1427l1.55493-.87658a16.01273 16.01273 0 012.72974 2.74914 16.83649 16.83649 0 012.02625 3.19531 16.75644 16.75644 0 011.81921 7.17554.10276.10276 0 01-.20178.031l-.00159-.006a21.47494 21.47494 0 00-1.12378-3.415 17.71765 17.71765 0 00-1.65515-3.11768 20.30385 20.30385 0 00-2.1687-2.7373 16.674 16.674 0 00-2.55-2.23768l1.55469-.87646a1.69861 1.69861 0 01-.08643.60156 2.264 2.264 0 01-.15442.37171 2.95945 2.95945 0 01-.38049.57605 4.83179 4.83179 0 01-.87.80334 9.80215 9.80215 0 01-1.834 1.03711 19.70451 19.70451 0 01-3.76086 1.19031c-.32434.06811-.61023.14575-.96619.20581a5.28247 5.28247 0 01-1.14417.07788 6.45 6.45 0 01-2.17419-.44226 11.18166 11.18166 0 01-3.45227-2.22644 24.85726 24.85726 0 01-4.70264-6.13416 73.27384 73.27384 0 01-3.37573-6.80237l.2251.18482a6.21031 6.21031 0 01-3.44519-2.51379 2.2325 2.2325 0 01-.52564-1.07215 1.82365 1.82365 0 01.28638-1.25818 2.03339 2.03339 0 01.20471-.26306l.16895-.1897.333-.3822c.22131-.255.43237-.51843.64209-.78137a16.731 16.731 0 002.10632-3.34412 5.34875 5.34875 0 00.57434-3.3551 1.43457 1.43457 0 00-.12915-.35254l-.06983-.17407-.11364-.25354a8.351 8.351 0 01-.41614-1.06213 17.27256 17.27256 0 01-.536-2.10547 32.14612 32.14612 0 01-.46546-4.18531 46.44428 46.44428 0 01.30176-8.30346.10306.10306 0 01.11524-.08924A.10583.10583 0 01419.74361 147.98814zM449.3431 174.876a8.4597 8.4597 0 01.05041 3.03418 10.03412 10.03412 0 01-.91955 2.93579 8.12511 8.12511 0 01-1.87366 2.46777 6.75429 6.75429 0 01-2.66028 1.48877 15.97471 15.97471 0 002.08569-2.04517 11.84652 11.84652 0 001.53272-2.3706A22.446 22.446 0 00449.3431 174.876z"/><path fill="#020202" d="M452.063 170.447c7.73827 18.20231 28.54925 23.4049 30.70009-7.3816 1.36895-19.59481-15.71066-36.049-28.62258-35.18346a33.73575 33.73575 0 00-9.78166.50259 36.05308 36.05308 0 00-12.3977 5.19364 47.299 47.299 0 00-12.23 10.88985 17.12861 17.12861 0 002.34542 10.63336c3.48413 5.63428 9.42392 7.34439 12.72815 7.8633a6.6506 6.6506 0 006.1406-2.16076 6.16585 6.16585 0 001.17747-2.14752 8.823 8.823 0 014.26-5.47579c2.57879-1.27639 5.73516-.89071 7.2325 6.86831C454.86153 166.507 453.70706 169.31284 452.063 170.447zM334.95943 283.68772a92.80446 92.80446 0 0110.58349-1.1643c3.52723-.23438 7.05384-.31519 10.58021-.311 3.52636.012 7.05236.114 10.57812.36792a91.77906 91.77906 0 0110.57642 1.23047 91.79868 91.79868 0 01-10.58265 1.16895c-3.52734.23315-7.05432.31494-10.58105.30639-3.52661-.01635-7.0531-.11767-10.579-.37256A92.75973 92.75973 0 01334.95943 283.68772z"/><path fill="#020202" d="M371.70418,274.90428c-5.64453.26074-11.28992.45593-16.93579.64782l-8.469.29541-4.23474.13526a21.661,21.661,0,0,0-4.02844.40515,20.70155,20.70155,0,0,0-7.36975,3.02832l-1.70569,1.18359a15.245,15.245,0,0,0-1.5332,1.20508,13.04227,13.04227,0,0,0-2.40479,2.96363,12.88444,12.88444,0,0,0-1.41247,3.52514,12.406,12.406,0,0,0-.2909,1.87451c-.03845.314-.0288.6316-.04345.947l-.00244,1.04737-.02564,8.47021-.08118,16.93946-.15991,16.93847q-.14777,16.93872-.57654,33.87354l-.50634,16.93384-.1305,4.23339c-.01684.69678-.05444,1.43116-.05432,2.09693a12.65867,12.65867,0,0,0,.11646,1.91675,12.8598,12.8598,0,0,0,3.191,6.91943,14.02156,14.02156,0,0,0,3,2.47632,14.32919,14.32919,0,0,0,3.62231,1.47241,19.79739,19.79739,0,0,0,4.01648.41089l4.229.15356c5.64063.155,11.28309.28785,16.92652.33374q33.85986.30322,67.66284-2.12622c11.25281-.801,22.48425-1.82788,33.69128-2.99536,2.80311-.28149,5.59729-.63672,8.39576-.95141,2.8031-.30665,5.58654-.67188,8.36438-1.04957l4.17077-.55078,1.04309-.13354.52149-.0669a.39931.39931,0,0,0,.11853-.02392l.18042-.04736a8.16643,8.16643,0,0,0,1.5813-.65772,9.02023,9.02023,0,0,0,2.66906-2.20361,9.97779,9.97779,0,0,0,1.66529-3.09888,14.12791,14.12791,0,0,0,.632-3.65381,12.81891,12.81891,0,0,0,.00378-1.92236l-.05823-.9729-.02832-.48853-.04712-.5542c-.24231-2.9436-.2865-5.76806-.323-8.62671-.0404-5.69628.09717-11.3728.348-17.04443.5-11.34228,1.55591-22.64819,2.98987-33.90478a350.39432,350.39432,0,0,1,15.00292-66.3357,218.20288,218.20288,0,0,1,13.28492-31.343c1.27063-2.5382,2.69922-4.99536,4.11194-7.45556a44.26042,44.26042,0,0,0,3.71679-7.45008,35.55277,35.55277,0,0,0,1.93885-8.08251,12.58793,12.58793,0,0,0-.15406-4.07959,3.86865,3.86865,0,0,0-2.3938-2.95081l-.01428-.00513a.20481.20481,0,0,1,.13782-.38574,4.06108,4.06108,0,0,1,1.87219,1.19788,5.24074,5.24074,0,0,1,1.04028,1.96386,12.7462,12.7462,0,0,1,.41663,4.32727,36.59877,36.59877,0,0,1-1.59216,8.44373,45.80308,45.80308,0,0,1-3.45069,7.86963c-1.26245,2.51208-2.61535,4.97168-3.774,7.5332-2.46424,5.04675-4.57081,10.26087-6.62378,15.48291-1.95594,5.26416-3.80445,10.56482-5.46875,15.92749a314.58384,314.58384,0,0,0-8.29712,32.63855c-1.11866,5.50366-2.1062,11.03467-3.03467,16.57447q-1.342,8.31957-2.382,16.68457c-.67981,5.57714-1.33166,11.15893-1.82666,16.75634q-.74853,8.395-1.233,16.80786c-.31738,5.60645-.52173,11.2212-.5509,16.81812-.00049,2.78613.01562,5.61255.20446,8.2998a22.66857,22.66857,0,0,1-.79577,9.16822,13.799,13.799,0,0,1-2.3844,4.28344,12.7994,12.7994,0,0,1-3.85633,3.1023,11.83391,11.83391,0,0,1-2.33593.92822l-.33264.08252a3.45465,3.45465,0,0,1-.401.07471l-.52941.06152-1.05872.1228-4.23633.47559c-2.82519.32251-5.6477.6311-8.46411.87817-2.819.25586-5.63416.55225-8.45508.77442l-8.4613.66846-8.46985.52026c-2.82227.18335-5.64758.30688-8.4718.44165-2.82434.13379-5.64759.27808-8.47327.36816-11.29626.49805-22.59936.67969-33.89612.89331q-16.94714.27137-33.89392.32105l-16.95007.02173-4.239-.0044a21.64586,21.64586,0,0,1-4.40564-.30761,15.01259,15.01259,0,0,1-7.86268-4.32715,15.46384,15.46384,0,0,1-4.2915-10.39112c-.02368-.74536-.01038-1.42285-.01746-2.13745l-.01367-4.23535-.03869-16.9414q.05036-16.93983.3584-33.87647l.30786-16.93652.38635-16.93555.20813-8.46753.03308-1.06958c.02612-.38892.03076-.77905.0863-1.16553a15.3025,15.3025,0,0,1,.42469-2.29467,15.4663,15.4663,0,0,1,4.86169-7.761,17.95056,17.95056,0,0,1,1.832-1.36047c.59583-.38782,1.15918-.77478,1.81275-1.17261a23.04516,23.04516,0,0,1,8.32446-3.0586,23.8078,23.8078,0,0,1,4.40124-.27758l4.2345.05725,8.46948.1394c5.64649.08789,11.29322.179,16.94117.3357a.2051.2051,0,0,1,.00378.40991Z"/><path fill="#020202" d="M424.93575 274.21763a41.19869 41.19869 0 016.8125-1.26611c2.27234-.246 4.5459-.37146 6.82031-.39368 2.27441-.02295 4.5498.06177 6.82629.26648a40.65811 40.65811 0 016.83411 1.14734 40.6576 40.6576 0 01-6.81238 1.27026c-2.27234.24573-4.5459.37146-6.82031.38953-2.27441.0188-4.54981-.06567-6.82629-.27075A41.20006 41.20006 0 01424.93575 274.21763zM483.93868 398.1804c.39123 3.20337.56372 6.40674.69177 9.60986.11328 3.20337.1781 6.40674.05884 9.61011-.14685 3.20313-.44544 6.4065-.52075 9.60986-.00562.80079-.0315 1.60157-.02039 2.40235.00427.39941.01343.79443-.01379 1.23218a5.80062 5.80062 0 01-.26709 1.25512 5.32478 5.32478 0 01-3.69361 3.43848 5.40187 5.40187 0 01-6.54382-3.76172 5.54634 5.54634 0 01-.21912-1.41382l-.02685-1.2041c-.07093-3.20337-.157-6.40674-.12915-9.60986.08667-6.40674.344-12.81323.99072-19.22a.103.103 0 01.205 0c.64672 6.40674.904 12.81323.9906 19.22.02783 3.20312-.05811 6.40649-.129 9.60986l-.02527 1.198a4.2692 4.2692 0 00.09888.96045 3.98531 3.98531 0 00.87512 1.73486 4.24693 4.24693 0 001.6311 1.15576 4.31637 4.31637 0 002.05408.23169 4.20178 4.20178 0 003.26807-2.57983 5.28729 5.28729 0 00.31018-2.24707c.0111-.80078-.01477-1.60156-.02027-2.40235-.07544-3.20336-.374-6.40673-.52075-9.60986-.11926-3.20337-.05457-6.40674.05872-9.61011.12817-3.20312.30066-6.40649.69189-9.60986a.10326.10326 0 01.205 0zM337.67928 405.35472c.39123 2.7351.56372 5.47.69189 8.20483.11328 2.73486.178 5.46973.05872 8.20459-.14673 2.73486-.44531 5.46973-.52075 8.20459a5.393 5.393 0 01-1.63575 3.92212 5.365 5.365 0 01-8.084-.67871 5.40275 5.40275 0 01-.9386-2.218 16.673 16.673 0 01-.12634-2.18359c-.0708-2.73487-.15686-5.46973-.129-8.20484a159.81393 159.81393 0 01.9906-16.40918.10323.10323 0 01.205 0 159.81414 159.81414 0 01.99072 16.40918c.02783 2.73511-.05823 5.47-.12915 8.20484-.01.6748-.05835 1.41821-.00733 1.91211a4.11826 4.11826 0 008.19922-.75391c-.07531-2.73486-.3739-5.46973-.52075-8.20459-.11926-2.73486-.05444-5.46973.05884-8.20459.128-2.73486.30054-5.46973.69177-8.20483a.10355.10355 0 01.205 0zM385.7668 197.91978c2.03455.20752 4.07092.53125 6.02918.594l-.05274-.00219 1.22986-.0658a.70975.70975 0 01.08814 1.41675c-.45472.02917-.91639.05139-1.37916.05872a.38056.38056 0 01-.12194-.01771l-.05957-.01916a23.89211 23.89211 0 00-3.28858-.78381 27.84482 27.84482 0 00-3.34363-.29737 30.22949 30.22949 0 00-3.35852.0907 31.20277 31.20277 0 00-3.39538.54541l.11328-.04431a1.21744 1.21744 0 00-.70056.75525c-.07642.30652.19946.68738.504 1.01575a8.45329 8.45329 0 002.54138 1.46679c.47546.168.94079.35852 1.42358.50818l1.46.41333c.98963.21887 1.98108.44153 2.97107.61865a.4375.4375 0 01.20728.09778l.05.043a31.22661 31.22661 0 003.56482 2.58179 25.68681 25.68681 0 003.82519 2.02514 10.488 10.488 0 003.99426.875 5.80535 5.80535 0 003.546-1.145l.031-.0232a1.034 1.034 0 011.19812-.02453c1.21057.8269 2.436 1.631 3.63428 2.4768q1.806 1.25592 3.58862 2.54724c1.19128.85669 2.35523 1.7555 3.53418 2.63111q1.758 1.32952 3.46655 2.735a.10061.10061 0 01-.10888.16773q-1.97937-.98859-3.90833-2.05493c-1.27942-.72095-2.57373-1.41895-3.84082-2.15894q-1.90741-1.09937-3.78638-2.24268c-1.26-.75085-2.49292-1.54345-3.7406-2.31311l1.22876-.04773a7.4457 7.4457 0 01-4.87744 1.5326 12.43039 12.43039 0 01-4.70788-1.23877 20.71871 20.71871 0 01-3.98255-2.45081 29.19111 29.19111 0 01-3.40149-3.12622l.25684.14063c-.998-.28614-1.96875-.62989-2.95007-.94019-.97449-.33728-1.94727-.673-2.90711-1.06262a11.59065 11.59065 0 01-2.77771-1.5127 2.144 2.144 0 01-.8706-1.59448 1.67443 1.67443 0 01.34509-.95788 2.60344 2.60344 0 01.7-.65406.20727.20727 0 01.04456-.02136l.06909-.02307a30.55862 30.55862 0 013.42773-1.01538 16.08991 16.08991 0 013.61939-.39429 19.26915 19.26915 0 017.08642 1.40466l-.18115-.03686c.35718.00732.71533.02954 1.08044.05871l.08826 1.41675-1.22986-.06579-.0531-.0022a22.35869 22.35869 0 01-3.04956-.6947q-1.48389-.43305-2.92114-.99121a.10091.10091 0 01.04736-.19434zM385.98006 190.66978a44.76361 44.76361 0 0111.562 2.4137 95.413 95.413 0 0110.97937 4.3761c3.55444 1.6925 7.04431 3.51184 10.42542 5.51794a96.32722 96.32722 0 019.81311 6.53223c-3.5531-1.69117-7.0542-3.42933-10.55518-5.15918-3.50842-1.7135-7.00244-3.439-10.53174-5.08106-3.51037-1.68493-7.077-3.23071-10.66455-4.72583A90.32982 90.32982 0 00385.98006 190.66978zM235.70325 311.51687c1.17993 1.27 2.36987 2.55 3.56994 3.8.44007-1.65991.93006-3.31006 1.39-4.98Q238.18817 310.96682 235.70325 311.51687zm4.32995 4.6001c1.2699 1.33984 2.54993 2.68994 3.85 4.01l.38.37988c.34-1.8.71-3.59985 1.09-5.3999C243.57312 315.44705 241.81311 315.77688 240.0332 316.117zm4.93006 5.09985c1.74 1.75 3.49 3.48023 5.2799 5.17017l.49-3.6001.42005-3.47C249.08313 319.93679 247.0332 320.597 244.96326 321.21682zm5.60986 5.49c.71008.66016 1.43005 1.33008 2.17 1.98 1.17005 1.08008 2.38 2.13013 3.6 3.15015q.18018-3.795.42-7.57007C254.69324 325.07693 252.63318 325.877 250.57312 326.70681zm12.79 2.71c-2.07007 1.04-4.1499 2.05-6.22 3.09008a62.15254 62.15254 0 005.16992 3.83008c.36011.25.72009.48 1.09009.7zm7.28 2.68017c-2.11 1.81983-4.26 3.58984-6.39 5.38989a.10723.10723 0 01-.05993.02 21.57711 21.57711 0 003.51 1.65992 8.93445 8.93445 0 003.18994.64013 6.29984 6.29984 0 002.14-.37012C272.21326 336.98684 271.42322 334.5469 270.64319 332.097zm-34.93994-20.58008c1.17993 1.27 2.36987 2.55 3.56994 3.8.44007-1.65991.93006-3.31006 1.39-4.98Q238.18817 310.96682 235.70325 311.51687zm4.32995 4.6001c1.2699 1.33984 2.54993 2.68994 3.85 4.01l.38.37988c.34-1.8.71-3.59985 1.09-5.3999C243.57312 315.44705 241.81311 315.77688 240.0332 316.117zm4.93006 5.09985c1.74 1.75 3.49 3.48023 5.2799 5.17017l.49-3.6001.42005-3.47C249.08313 319.93679 247.0332 320.597 244.96326 321.21682zm5.60986 5.49c.71008.66016 1.43005 1.33008 2.17 1.98 1.17005 1.08008 2.38 2.13013 3.6 3.15015q.18018-3.795.42-7.57007C254.69324 325.07693 252.63318 325.877 250.57312 326.70681zm12.79 2.71c-2.07007 1.04-4.1499 2.05-6.22 3.09008a62.15254 62.15254 0 005.16992 3.83008c.36011.25.72009.48 1.09009.7zm7.28 2.68017c-2.11 1.81983-4.26 3.58984-6.39 5.38989a.10723.10723 0 01-.05993.02 21.57711 21.57711 0 003.51 1.65992 8.93445 8.93445 0 003.18994.64013 6.29984 6.29984 0 002.14-.37012C272.21326 336.98684 271.42322 334.5469 270.64319 332.097zm-34.93994-20.58008c1.17993 1.27 2.36987 2.55 3.56994 3.8.44007-1.65991.93006-3.31006 1.39-4.98Q238.18817 310.96682 235.70325 311.51687zm4.32995 4.6001c1.2699 1.33984 2.54993 2.68994 3.85 4.01l.38.37988c.34-1.8.71-3.59985 1.09-5.3999C243.57312 315.44705 241.81311 315.77688 240.0332 316.117zm4.93006 5.09985c1.74 1.75 3.49 3.48023 5.2799 5.17017l.49-3.6001.42005-3.47C249.08313 319.93679 247.0332 320.597 244.96326 321.21682zm5.60986 5.49c.71008.66016 1.43005 1.33008 2.17 1.98 1.17005 1.08008 2.38 2.13013 3.6 3.15015q.18018-3.795.42-7.57007C254.69324 325.07693 252.63318 325.877 250.57312 326.70681zm12.79 2.71c-2.07007 1.04-4.1499 2.05-6.22 3.09008a62.15254 62.15254 0 005.16992 3.83008c.36011.25.72009.48 1.09009.7zm7.28 2.68017c-2.11 1.81983-4.26 3.58984-6.39 5.38989a.10723.10723 0 01-.05993.02 21.57711 21.57711 0 003.51 1.65992 8.93445 8.93445 0 003.18994.64013 6.29984 6.29984 0 002.14-.37012C272.21326 336.98684 271.42322 334.5469 270.64319 332.097zm-34.93994-20.58008c1.17993 1.27 2.36987 2.55 3.56994 3.8.44007-1.65991.93006-3.31006 1.39-4.98Q238.18817 310.96682 235.70325 311.51687zm4.32995 4.6001c1.2699 1.33984 2.54993 2.68994 3.85 4.01l.38.37988c.34-1.8.71-3.59985 1.09-5.3999C243.57312 315.44705 241.81311 315.77688 240.0332 316.117zm4.93006 5.09985c1.74 1.75 3.49 3.48023 5.2799 5.17017l.49-3.6001.42005-3.47C249.08313 319.93679 247.0332 320.597 244.96326 321.21682zm5.60986 5.49c.71008.66016 1.43005 1.33008 2.17 1.98 1.17005 1.08008 2.38 2.13013 3.6 3.15015q.18018-3.795.42-7.57007C254.69324 325.07693 252.63318 325.877 250.57312 326.70681zm12.79 2.71c-2.07007 1.04-4.1499 2.05-6.22 3.09008a62.15254 62.15254 0 005.16992 3.83008c.36011.25.72009.48 1.09009.7zm7.28 2.68017c-2.11 1.81983-4.26 3.58984-6.39 5.38989a.10723.10723 0 01-.05993.02 21.57711 21.57711 0 003.51 1.65992 8.93445 8.93445 0 003.18994.64013 6.29984 6.29984 0 002.14-.37012C272.21326 336.98684 271.42322 334.5469 270.64319 332.097zm-34.93994-20.58008c1.17993 1.27 2.36987 2.55 3.56994 3.8.44007-1.65991.93006-3.31006 1.39-4.98Q238.18817 310.96682 235.70325 311.51687zm4.32995 4.6001c1.2699 1.33984 2.54993 2.68994 3.85 4.01l.38.37988c.34-1.8.71-3.59985 1.09-5.3999C243.57312 315.44705 241.81311 315.77688 240.0332 316.117zm4.93006 5.09985c1.74 1.75 3.49 3.48023 5.2799 5.17017l.49-3.6001.42005-3.47C249.08313 319.93679 247.0332 320.597 244.96326 321.21682zm5.60986 5.49c.71008.66016 1.43005 1.33008 2.17 1.98 1.17005 1.08008 2.38 2.13013 3.6 3.15015q.18018-3.795.42-7.57007C254.69324 325.07693 252.63318 325.877 250.57312 326.70681zm12.79 2.71c-2.07007 1.04-4.1499 2.05-6.22 3.09008a62.15254 62.15254 0 005.16992 3.83008c.36011.25.72009.48 1.09009.7zm7.28 2.68017c-2.11 1.81983-4.26 3.58984-6.39 5.38989a.10723.10723 0 01-.05993.02 21.57711 21.57711 0 003.51 1.65992 8.93445 8.93445 0 003.18994.64013 6.29984 6.29984 0 002.14-.37012C272.21326 336.98684 271.42322 334.5469 270.64319 332.097zm-34.93994-20.58008c1.17993 1.27 2.36987 2.55 3.56994 3.8.44007-1.65991.93006-3.31006 1.39-4.98Q238.18817 310.96682 235.70325 311.51687zm4.32995 4.6001c1.2699 1.33984 2.54993 2.68994 3.85 4.01l.38.37988c.34-1.8.71-3.59985 1.09-5.3999C243.57312 315.44705 241.81311 315.77688 240.0332 316.117zm4.93006 5.09985c1.74 1.75 3.49 3.48023 5.2799 5.17017l.49-3.6001.42005-3.47C249.08313 319.93679 247.0332 320.597 244.96326 321.21682zm5.60986 5.49c.71008.66016 1.43005 1.33008 2.17 1.98 1.17005 1.08008 2.38 2.13013 3.6 3.15015q.18018-3.795.42-7.57007C254.69324 325.07693 252.63318 325.877 250.57312 326.70681zm12.79 2.71c-2.07007 1.04-4.1499 2.05-6.22 3.09008a62.15254 62.15254 0 005.16992 3.83008c.36011.25.72009.48 1.09009.7zm7.28 2.68017c-2.11 1.81983-4.26 3.58984-6.39 5.38989a.10723.10723 0 01-.05993.02 21.57711 21.57711 0 003.51 1.65992 8.93445 8.93445 0 003.18994.64013 6.29984 6.29984 0 002.14-.37012C272.21326 336.98684 271.42322 334.5469 270.64319 332.097zm-34.93994-20.58008c1.17993 1.27 2.36987 2.55 3.56994 3.8.44007-1.65991.93006-3.31006 1.39-4.98Q238.18817 310.96682 235.70325 311.51687zm4.32995 4.6001c1.2699 1.33984 2.54993 2.68994 3.85 4.01l.38.37988c.34-1.8.71-3.59985 1.09-5.3999C243.57312 315.44705 241.81311 315.77688 240.0332 316.117zm4.93006 5.09985c1.74 1.75 3.49 3.48023 5.2799 5.17017l.49-3.6001.42005-3.47C249.08313 319.93679 247.0332 320.597 244.96326 321.21682zm5.60986 5.49c.71008.66016 1.43005 1.33008 2.17 1.98 1.17005 1.08008 2.38 2.13013 3.6 3.15015q.18018-3.795.42-7.57007C254.69324 325.07693 252.63318 325.877 250.57312 326.70681zm12.79 2.71c-2.07007 1.04-4.1499 2.05-6.22 3.09008a62.15254 62.15254 0 005.16992 3.83008c.36011.25.72009.48 1.09009.7zm7.28 2.68017c-2.11 1.81983-4.26 3.58984-6.39 5.38989a.10723.10723 0 01-.05993.02 21.57711 21.57711 0 003.51 1.65992 8.93445 8.93445 0 003.18994.64013 6.29984 6.29984 0 002.14-.37012C272.21326 336.98684 271.42322 334.5469 270.64319 332.097zm-34.93994-20.58008c1.17993 1.27 2.36987 2.55 3.56994 3.8.44007-1.65991.93006-3.31006 1.39-4.98Q238.18817 310.96682 235.70325 311.51687zm4.32995 4.6001c1.2699 1.33984 2.54993 2.68994 3.85 4.01l.38.37988c.34-1.8.71-3.59985 1.09-5.3999C243.57312 315.44705 241.81311 315.77688 240.0332 316.117zm4.93006 5.09985c1.74 1.75 3.49 3.48023 5.2799 5.17017l.49-3.6001.42005-3.47C249.08313 319.93679 247.0332 320.597 244.96326 321.21682zm5.60986 5.49c.71008.66016 1.43005 1.33008 2.17 1.98 1.17005 1.08008 2.38 2.13013 3.6 3.15015q.18018-3.795.42-7.57007C254.69324 325.07693 252.63318 325.877 250.57312 326.70681zm12.79 2.71c-2.07007 1.04-4.1499 2.05-6.22 3.09008a62.15254 62.15254 0 005.16992 3.83008c.36011.25.72009.48 1.09009.7zm7.28 2.68017c-2.11 1.81983-4.26 3.58984-6.39 5.38989a.10723.10723 0 01-.05993.02 21.57711 21.57711 0 003.51 1.65992 8.93445 8.93445 0 003.18994.64013 6.29984 6.29984 0 002.14-.37012C272.21326 336.98684 271.42322 334.5469 270.64319 332.097zm3.82007 28.08984c-1.19007 1.44019-2.37012 2.87012-3.57007 4.29 1.84.48 3.67993.91993 5.55 1.29C275.76318 363.91678 275.11316 362.05691 274.46326 360.18679zm8.12988 3.51026l-1.17993-3.06006c-1.29 1.79-2.59009 3.56982-3.89 5.35986 1.96.41016 3.92005.77 5.9 1.07007.17993.02.36.04.54992.07007C283.50317 365.99685 283.0332 364.847 282.59314 363.69705zm5.69006-3.24024c-1.15 2.25-2.24011 4.54-3.35 6.82007 2.36987.34009 4.76.61988 7.13989.81006C290.83313 365.53689 289.58313 362.97683 288.2832 360.45681zm8.9 1.08008l-4.41 6.62012c1.2699.08984 2.53992.16992 3.80994.2 1.31006.05 2.62012.05 3.93.0398zm8.49-.25c-1.29 2.37012-2.6001 4.72-3.91 7.07007a79.11355 79.11355 0 008-.64014 2.06237 2.06237 0 00.22-.03979C308.51318 365.55691 307.11316 363.41678 305.67322 361.28689zm8.80993-1.83008c-1.14 2.68995-2.30993 5.3501-3.47 8.03a37.917 37.917 0 005.19007-1.18994 29.56073 29.56073 0 004.56994-1.54l.01-1.05981Q317.61823 361.59683 314.48315 359.45681zm52.04-102.59985l-40.57995-28.94018a35.58847 35.58847 0 00-30.93006-4.23975c-7.52 2.56982-15.43 8.08984-21.46008 19.23975 0 0-26.52991 50.31005-38.16992 68.25.08008.08007.16992.18017.24.26025a.01.01 0 00.01-.01025q2.67-.89979 5.35-1.71973a.26542.26542 0 01.35.17993.32862.32862 0 010 .13989v.02c-.3999 1.73-.78 3.47-1.21 5.21q2.87988-.61486 5.74-1.2a.47878.47878 0 01.56006.36988.671.671 0 010 .20019c-.44007 1.93994-.86011 3.87988-1.34009 5.81982 2.07007-.52978 4.17-1.02978 6.25-1.57983a.19392.19392 0 01.24.13989.17035.17035 0 01.01.07007l-.53 3.76-.41992 3.42993q3.21-1.3949 6.37-2.84008a.34845.34845 0 01.46009.17016.35417.35417 0 01.0299.13989v.02q-.04485 3.78-.16 7.54c2.11011-1.08984 4.22-2.2 6.33008-3.27a.57011.57011 0 01.76.24.58362.58362 0 01.05993.26l-.03991 7.5c2.04992-1.60009 4.09-3.21 6.1499-4.78l.02-.01a.33826.33826 0 01.48.06006.43326.43326 0 01.05.12012q1.03491 3.97485 1.99 7.98a4.72547 4.72547 0 00.47-.2002c-1.76 1.18018-4.09 1.06006-6.06006.48a25.17371 25.17371 0 01-5.65991-2.6399 68.99481 68.99481 0 01-9.85-7.56006c-3.03-2.82006-5.97009-5.73-8.74011-8.78979-2.66992-2.9502-5.24-5.98-7.6499-9.16016-.02-.01-.04-.01-.04-.03 0-.01.01-.01.01-.02-.07007-.09985-.15991-.18994-.23-.3-2.27 3.51025-3.97 5.78027-4.8 6.20019 0 0 22.61011 30.3999 42.22 33.91992.64014-7.72 1.44006-15.43994 2.58008-23.12011 1.1-7.67994 2.43994-15.33985 4.1-22.92994a168.52776 168.52776 0 016.33-22.46 64.92941 64.92941 0 014.93-10.63989 22.28555 22.28555 0 013.67005-4.61011 8.027 8.027 0 012.5-1.59985 3.14019 3.14019 0 012.85.16992 3.04028 3.04028 0 00-2.74.1001 8.07885 8.07885 0 00-2.2301 1.71973 21.16755 21.16755 0 00-3.16992 4.73 71.172 71.172 0 00-4.31006 10.66015c-1.18994 3.6499-2.24 7.37012-3.17993 11.1001-.97 3.73975-1.87 7.48975-2.65 11.27-1.68005 7.53979-3.11 15.13989-4.51989 22.73975l-4.16016 22.87011L270.41321 364.367c.12.02979.24.04981.36.08008 1.17005-1.66016 2.36-3.31006 3.57-4.97022a.26649.26649 0 01.37012-.0498.30294.30294 0 01.09985.11987v.01c.75 1.87012 1.52 3.75 2.26 5.62988 1.36011-1.93994 2.71008-3.88989 4.09009-5.80981a.4776.4776 0 01.65991-.12012.7205.7205 0 01.17.22l1.43006 3.91016c.37988 1.0498.74 2.10986 1.11 3.17993 1.2-2.2 2.42005-4.40014 3.58-6.61987a.18908.18908 0 01.25-.09009c.03.03.06006.05982.09009.09009 1.2799 2.66992 2.61987 5.28979 3.98 7.91992l4.47-7.3501a.404.404 0 01.55-.13989.70165.70165 0 01.13989.15991l.01.01 3.52 6.83008c1.33008-2.47 2.65-4.9602 4.02-7.42017l.01-.00976a.53353.53353 0 01.74-.21021.41556.41556 0 01.18994.17994c1.44006 2.18017 2.89 4.35009 4.31006 6.54 1.21-2.5498 2.39-5.10986 3.63-7.63989v-.03a.35235.35235 0 01.46-.14013.21849.21849 0 00.05.03027c2.1 1.56982 4.18006 3.15991 6.25989 4.75976l.11011-8.09985a1.43118 1.43118 0 01-.6001.11987 1.59114 1.59114 0 010-3.17993 1.40613 1.40613 0 01.64014.13013l.84-61.22022s-.56006-11.33984 13.46-15.25l43.89.37012S371.68323 265.66678 366.52319 256.857zm-125.26 50.05005a1.58582 1.58582 0 010-3.17017A1.58582 1.58582 0 01241.26318 306.907zm4.05994 5.33984a1.59114 1.59114 0 010-3.17993A1.59114 1.59114 0 01245.32312 312.24685zm6.23 4.7002a1.58608 1.58608 0 010-3.17017A1.58608 1.58608 0 01251.5531 316.94705zm5.8501 4.57983a1.59086 1.59086 0 010-3.17993A1.59086 1.59086 0 01257.4032 321.52688zm6.35 4.06006a1.58607 1.58607 0 010-3.17016A1.58607 1.58607 0 01263.75317 325.58694zm7.5 3.30982a1.59087 1.59087 0 010-3.17994A1.59087 1.59087 0 01271.25317 328.89676zm-37.09-11.30982a1.536 1.536 0 010-3.07007A1.536 1.536 0 01234.16321 317.58694zm5.40991 6.1499a1.53587 1.53587 0 010-3.07006A1.53587 1.53587 0 01239.57312 323.73684zm5.66 5.90015a1.536 1.536 0 010-3.07007A1.536 1.536 0 01245.23315 329.637zm6.15 6.6499a1.54092 1.54092 0 010-3.08008A1.54092 1.54092 0 01251.38318 336.28689zm6.15 5.41016a1.54092 1.54092 0 010-3.08008A1.54092 1.54092 0 01257.5332 341.69705zm6.64 3.92993a1.53575 1.53575 0 010-3.07007A1.53575 1.53575 0 01264.17322 345.627zm6.63989 2.96a1.54092 1.54092 0 010-3.08008A1.54092 1.54092 0 01270.81311 348.58694zm4.25 6.86987a1.59114 1.59114 0 010-3.17993A1.59114 1.59114 0 01275.06311 355.45681zm8.13013 1.52a1.586 1.586 0 010-3.16992A1.58595 1.58595 0 01283.19324 356.97683zm9.40991 1.02a1.59086 1.59086 0 010-3.17993A1.59086 1.59086 0 01292.60315 357.99685zm10.42-.12988a1.58569 1.58569 0 010-3.16992A1.58569 1.58569 0 01303.02319 357.867zm9.4-1.14014a1.59114 1.59114 0 010-3.17993A1.59114 1.59114 0 01312.42322 356.72683zm-1.41 10.76a37.917 37.917 0 005.19007-1.18994 29.56073 29.56073 0 004.56994-1.54l.01-1.05981q-3.165-2.10023-6.3-4.24024C313.34314 362.14676 312.17322 364.80691 311.01318 367.48684zm-9.25.87012a79.11355 79.11355 0 008-.64014 2.06237 2.06237 0 00.22-.03979c-1.47-2.12012-2.87-4.26025-4.30993-6.39014C304.38318 363.657 303.07312 366.00686 301.76318 368.357zm-8.99-.2c1.2699.08984 2.53992.16992 3.80994.2 1.31006.05 2.62012.05 3.93.0398l-3.32995-6.85987zm-7.84-.88013c2.36987.34009 4.76.61988 7.13989.81006-1.24-2.55-2.49-5.11011-3.78992-7.63013C287.13318 362.70681 286.04309 364.99685 284.93323 367.27688zm-3.52-6.63989c-1.29 1.79-2.59009 3.56982-3.89 5.35986 1.96.41016 3.92005.77 5.9 1.07007.17993.02.36.04.54992.07007-.47-1.14014-.93994-2.29-1.38-3.43994zm-10.52 3.83984c1.84.48 3.67993.91993 5.55 1.29-.68006-1.85009-1.33008-3.71-1.98-5.58008C273.27319 361.627 272.09314 363.05691 270.89319 364.47683zm0-24.66992a6.29984 6.29984 0 002.14-.37012c-.81994-2.45-1.61-4.88989-2.39-7.33984-2.11 1.81983-4.26 3.58984-6.39 5.38989a.10723.10723 0 01-.05993.02 21.57711 21.57711 0 003.51 1.65992A8.93445 8.93445 0 00270.89319 339.80691zm-7.49-2.77l-.04-7.62011c-2.07007 1.04-4.1499 2.05-6.22 3.09008a62.15254 62.15254 0 005.16992 3.83008C262.67322 336.58694 263.0332 336.81692 263.4032 337.03689zm-10.66-8.3501c1.17005 1.08008 2.38 2.13013 3.6 3.15015q.18018-3.795.42-7.57007c-2.06994.81006-4.13 1.61011-6.19006 2.43994C251.2832 327.367 252.00317 328.03689 252.74316 328.68679zm-2.5-2.2998l.49-3.6001.42005-3.47c-2.07007.61987-4.12 1.28-6.18994 1.8999C246.70325 322.96682 248.45325 324.69705 250.24316 326.387zm-6.36-6.26l.38.37988c.34-1.8.71-3.59985 1.09-5.3999-1.78.34009-3.54.66992-5.32 1.01C241.3031 317.45681 242.58313 318.80691 243.88318 320.127zm-3.22-9.79q-2.475.62988-4.96 1.17993c1.17993 1.27 2.36987 2.55 3.56994 3.8C239.71326 313.657 240.20325 312.00686 240.66321 310.33694zm73.81994 49.11987c-1.14 2.68995-2.30993 5.3501-3.47 8.03a37.917 37.917 0 005.19007-1.18994 29.56073 29.56073 0 004.56994-1.54l.01-1.05981Q317.61823 361.59683 314.48315 359.45681zm1.88 7.33008a48.94667 48.94667 0 01-6.47 1.74 70.904 70.904 0 01-13.34009.8899 90.68192 90.68192 0 01-13.2699-1.55982c-2.09-.40015-4.16-.88013-6.22009-1.42017a.43311.43311 0 01-.33-.0498c-.01-.01-.01-.02-.01989-.03q-2.97016-.795-5.8501-1.8501c-.03.04-.06006.04-.08.01a.03677.03677 0 01-.01-.03q-.18-.05969-.36-.11987l-1.88 10.29981s28.82 11.3 52.1 0l.14-9.71A30.32652 30.32652 0 01316.36316 366.78689zm-39.86 6.75a1.14449 1.14449 0 01-.17.14014 1.05957 1.05957 0 01-.26.12988.49066.49066 0 01-.16992.06006c-.05.01-.1001.02-.16.02979a1.90376 1.90376 0 01-.25.02 1.53563 1.53563 0 010-3.06983 1.63542 1.63542 0 01.65.12988 1.17171 1.17171 0 01.18994.11011 1.15865 1.15865 0 01.17.13989 1.68869 1.68869 0 01.20008 2.07007A1.16312 1.16312 0 01276.50317 373.53689zm7.11 2.83008a1.53575 1.53575 0 010-3.07007A1.53575 1.53575 0 01283.61316 376.367zm7.86.99a1.53575 1.53575 0 010-3.07007A1.53575 1.53575 0 01291.47314 377.357zm8.61-.24a1.53575 1.53575 0 010-3.07007A1.53575 1.53575 0 01300.08313 377.117zm8.61011-1.23a1.53575 1.53575 0 010-3.07007A1.53575 1.53575 0 01308.69324 375.887zm7.38989-1.97021a1.53563 1.53563 0 010-3.06983A1.53563 1.53563 0 01316.08313 373.91678zm-10.40991-12.62989c-1.29 2.37012-2.6001 4.72-3.91 7.07007a79.11355 79.11355 0 008-.64014 2.06237 2.06237 0 00.22-.03979C308.51318 365.55691 307.11316 363.41678 305.67322 361.28689zm-8.49.25l-4.41 6.62012c1.2699.08984 2.53992.16992 3.80994.2 1.31006.05 2.62012.05 3.93.0398zm-8.9-1.08008c-1.15 2.25-2.24011 4.54-3.35 6.82007 2.36987.34009 4.76.61988 7.13989.81006C290.83313 365.53689 289.58313 362.97683 288.2832 360.45681zm-5.69006 3.24024l-1.17993-3.06006c-1.29 1.79-2.59009 3.56982-3.89 5.35986 1.96.41016 3.92005.77 5.9 1.07007.17993.02.36.04.54992.07007C283.50317 365.99685 283.0332 364.847 282.59314 363.69705zm-8.12988-3.51026c-1.19007 1.44019-2.37012 2.87012-3.57007 4.29 1.84.48 3.67993.91993 5.55 1.29C275.76318 363.91678 275.11316 362.05691 274.46326 360.18679zM270.64319 332.097c-2.11 1.81983-4.26 3.58984-6.39 5.38989a.10723.10723 0 01-.05993.02 21.57711 21.57711 0 003.51 1.65992 8.93445 8.93445 0 003.18994.64013 6.29984 6.29984 0 002.14-.37012C272.21326 336.98684 271.42322 334.5469 270.64319 332.097zm-7.28-2.68017c-2.07007 1.04-4.1499 2.05-6.22 3.09008a62.15254 62.15254 0 005.16992 3.83008c.36011.25.72009.48 1.09009.7zm-12.79-2.71c.71008.66016 1.43005 1.33008 2.17 1.98 1.17005 1.08008 2.38 2.13013 3.6 3.15015q.18018-3.795.42-7.57007C254.69324 325.07693 252.63318 325.877 250.57312 326.70681zm-5.60986-5.49c1.74 1.75 3.49 3.48023 5.2799 5.17017l.49-3.6001.42005-3.47C249.08313 319.93679 247.0332 320.597 244.96326 321.21682zM240.0332 316.117c1.2699 1.33984 2.54993 2.68994 3.85 4.01l.38.37988c.34-1.8.71-3.59985 1.09-5.3999C243.57312 315.44705 241.81311 315.77688 240.0332 316.117zm-4.32995-4.6001c1.17993 1.27 2.36987 2.55 3.56994 3.8.44007-1.65991.93006-3.31006 1.39-4.98Q238.18817 310.96682 235.70325 311.51687zM270.64319 332.097c-2.11 1.81983-4.26 3.58984-6.39 5.38989a.10723.10723 0 01-.05993.02 21.57711 21.57711 0 003.51 1.65992 8.93445 8.93445 0 003.18994.64013 6.29984 6.29984 0 002.14-.37012C272.21326 336.98684 271.42322 334.5469 270.64319 332.097zm-7.28-2.68017c-2.07007 1.04-4.1499 2.05-6.22 3.09008a62.15254 62.15254 0 005.16992 3.83008c.36011.25.72009.48 1.09009.7zm-12.79-2.71c.71008.66016 1.43005 1.33008 2.17 1.98 1.17005 1.08008 2.38 2.13013 3.6 3.15015q.18018-3.795.42-7.57007C254.69324 325.07693 252.63318 325.877 250.57312 326.70681zm-5.60986-5.49c1.74 1.75 3.49 3.48023 5.2799 5.17017l.49-3.6001.42005-3.47C249.08313 319.93679 247.0332 320.597 244.96326 321.21682zM240.0332 316.117c1.2699 1.33984 2.54993 2.68994 3.85 4.01l.38.37988c.34-1.8.71-3.59985 1.09-5.3999C243.57312 315.44705 241.81311 315.77688 240.0332 316.117zm-4.32995-4.6001c1.17993 1.27 2.36987 2.55 3.56994 3.8.44007-1.65991.93006-3.31006 1.39-4.98Q238.18817 310.96682 235.70325 311.51687zM270.64319 332.097c-2.11 1.81983-4.26 3.58984-6.39 5.38989a.10723.10723 0 01-.05993.02 21.57711 21.57711 0 003.51 1.65992 8.93445 8.93445 0 003.18994.64013 6.29984 6.29984 0 002.14-.37012C272.21326 336.98684 271.42322 334.5469 270.64319 332.097zm-7.28-2.68017c-2.07007 1.04-4.1499 2.05-6.22 3.09008a62.15254 62.15254 0 005.16992 3.83008c.36011.25.72009.48 1.09009.7zm-12.79-2.71c.71008.66016 1.43005 1.33008 2.17 1.98 1.17005 1.08008 2.38 2.13013 3.6 3.15015q.18018-3.795.42-7.57007C254.69324 325.07693 252.63318 325.877 250.57312 326.70681zm-5.60986-5.49c1.74 1.75 3.49 3.48023 5.2799 5.17017l.49-3.6001.42005-3.47C249.08313 319.93679 247.0332 320.597 244.96326 321.21682zM240.0332 316.117c1.2699 1.33984 2.54993 2.68994 3.85 4.01l.38.37988c.34-1.8.71-3.59985 1.09-5.3999C243.57312 315.44705 241.81311 315.77688 240.0332 316.117zm-4.32995-4.6001c1.17993 1.27 2.36987 2.55 3.56994 3.8.44007-1.65991.93006-3.31006 1.39-4.98Q238.18817 310.96682 235.70325 311.51687zM270.64319 332.097c-2.11 1.81983-4.26 3.58984-6.39 5.38989a.10723.10723 0 01-.05993.02 21.57711 21.57711 0 003.51 1.65992 8.93445 8.93445 0 003.18994.64013 6.29984 6.29984 0 002.14-.37012C272.21326 336.98684 271.42322 334.5469 270.64319 332.097zm-7.28-2.68017c-2.07007 1.04-4.1499 2.05-6.22 3.09008a62.15254 62.15254 0 005.16992 3.83008c.36011.25.72009.48 1.09009.7zm-12.79-2.71c.71008.66016 1.43005 1.33008 2.17 1.98 1.17005 1.08008 2.38 2.13013 3.6 3.15015q.18018-3.795.42-7.57007C254.69324 325.07693 252.63318 325.877 250.57312 326.70681zm-5.60986-5.49c1.74 1.75 3.49 3.48023 5.2799 5.17017l.49-3.6001.42005-3.47C249.08313 319.93679 247.0332 320.597 244.96326 321.21682zM240.0332 316.117c1.2699 1.33984 2.54993 2.68994 3.85 4.01l.38.37988c.34-1.8.71-3.59985 1.09-5.3999C243.57312 315.44705 241.81311 315.77688 240.0332 316.117zm-4.32995-4.6001c1.17993 1.27 2.36987 2.55 3.56994 3.8.44007-1.65991.93006-3.31006 1.39-4.98Q238.18817 310.96682 235.70325 311.51687zM270.64319 332.097c-2.11 1.81983-4.26 3.58984-6.39 5.38989a.10723.10723 0 01-.05993.02 21.57711 21.57711 0 003.51 1.65992 8.93445 8.93445 0 003.18994.64013 6.29984 6.29984 0 002.14-.37012C272.21326 336.98684 271.42322 334.5469 270.64319 332.097zm-7.28-2.68017c-2.07007 1.04-4.1499 2.05-6.22 3.09008a62.15254 62.15254 0 005.16992 3.83008c.36011.25.72009.48 1.09009.7zm-12.79-2.71c.71008.66016 1.43005 1.33008 2.17 1.98 1.17005 1.08008 2.38 2.13013 3.6 3.15015q.18018-3.795.42-7.57007C254.69324 325.07693 252.63318 325.877 250.57312 326.70681zm-5.60986-5.49c1.74 1.75 3.49 3.48023 5.2799 5.17017l.49-3.6001.42005-3.47C249.08313 319.93679 247.0332 320.597 244.96326 321.21682zM240.0332 316.117c1.2699 1.33984 2.54993 2.68994 3.85 4.01l.38.37988c.34-1.8.71-3.59985 1.09-5.3999C243.57312 315.44705 241.81311 315.77688 240.0332 316.117zm-4.32995-4.6001c1.17993 1.27 2.36987 2.55 3.56994 3.8.44007-1.65991.93006-3.31006 1.39-4.98Q238.18817 310.96682 235.70325 311.51687zM270.64319 332.097c-2.11 1.81983-4.26 3.58984-6.39 5.38989a.10723.10723 0 01-.05993.02 21.57711 21.57711 0 003.51 1.65992 8.93445 8.93445 0 003.18994.64013 6.29984 6.29984 0 002.14-.37012C272.21326 336.98684 271.42322 334.5469 270.64319 332.097zm-7.28-2.68017c-2.07007 1.04-4.1499 2.05-6.22 3.09008a62.15254 62.15254 0 005.16992 3.83008c.36011.25.72009.48 1.09009.7zm-12.79-2.71c.71008.66016 1.43005 1.33008 2.17 1.98 1.17005 1.08008 2.38 2.13013 3.6 3.15015q.18018-3.795.42-7.57007C254.69324 325.07693 252.63318 325.877 250.57312 326.70681zm-5.60986-5.49c1.74 1.75 3.49 3.48023 5.2799 5.17017l.49-3.6001.42005-3.47C249.08313 319.93679 247.0332 320.597 244.96326 321.21682zM240.0332 316.117c1.2699 1.33984 2.54993 2.68994 3.85 4.01l.38.37988c.34-1.8.71-3.59985 1.09-5.3999C243.57312 315.44705 241.81311 315.77688 240.0332 316.117zm-4.32995-4.6001c1.17993 1.27 2.36987 2.55 3.56994 3.8.44007-1.65991.93006-3.31006 1.39-4.98Q238.18817 310.96682 235.70325 311.51687zM270.64319 332.097c-2.11 1.81983-4.26 3.58984-6.39 5.38989a.10723.10723 0 01-.05993.02 21.57711 21.57711 0 003.51 1.65992 8.93445 8.93445 0 003.18994.64013 6.29984 6.29984 0 002.14-.37012C272.21326 336.98684 271.42322 334.5469 270.64319 332.097zm-7.28-2.68017c-2.07007 1.04-4.1499 2.05-6.22 3.09008a62.15254 62.15254 0 005.16992 3.83008c.36011.25.72009.48 1.09009.7zm-12.79-2.71c.71008.66016 1.43005 1.33008 2.17 1.98 1.17005 1.08008 2.38 2.13013 3.6 3.15015q.18018-3.795.42-7.57007C254.69324 325.07693 252.63318 325.877 250.57312 326.70681zm-5.60986-5.49c1.74 1.75 3.49 3.48023 5.2799 5.17017l.49-3.6001.42005-3.47C249.08313 319.93679 247.0332 320.597 244.96326 321.21682zM240.0332 316.117c1.2699 1.33984 2.54993 2.68994 3.85 4.01l.38.37988c.34-1.8.71-3.59985 1.09-5.3999C243.57312 315.44705 241.81311 315.77688 240.0332 316.117zm-4.32995-4.6001c1.17993 1.27 2.36987 2.55 3.56994 3.8.44007-1.65991.93006-3.31006 1.39-4.98Q238.18817 310.96682 235.70325 311.51687z"/><path fill="none" d="M272.80492,351.28743l4.15091-22.86568c1.42451-7.60472,2.84927-15.19917,4.51974-22.74258.7892-3.78184,1.69124-7.533,2.6546-11.274.94308-3.73054,1.98825-7.45107,3.18756-11.09967a71.97564,71.97564,0,0,1,4.30455-10.659,21.23094,21.23094,0,0,1,3.16705-4.73505,7.87025,7.87025,0,0,1,2.23422-1.71164,3.03,3.03,0,0,1,2.73641-.10246,3.13274,3.13274,0,0,0-2.84926-.17428A8.1395,8.1395,0,0,0,294.41,267.522a22.36742,22.36742,0,0,0-3.659,4.62233,63.67449,63.67449,0,0,0-4.94011,10.62826,170.6286,170.6286,0,0,0-6.33384,22.466c-1.65,7.59445-2.99264,15.25046-4.09962,22.927C274.25019,335.84217,273.44048,343.55961,272.80492,351.28743Z"/><path fill="#020202" d="M426.0974 166.98933a1.53828 1.53828 0 000-3.07472 1.53828 1.53828 0 000 3.07472zM450.482 168.89841a1.53828 1.53828 0 000-3.07472 1.53828 1.53828 0 000 3.07472zM430.4764 178.01719a3.60126 3.60126 0 01-.31958 1.657 4.7634 4.7634 0 01-.94678 1.42054 4.13425 4.13425 0 01-1.42944.96557 3.20566 3.20566 0 01-1.68323.22913c.46618-.347.9021-.60022 1.28894-.92493a9.72028 9.72028 0 001.09094-.98559C429.17293 179.68272 429.7629 178.89378 430.4764 178.01719zM423.2867 160.67723a2.42811 2.42811 0 011.20142-1.08081 2.39983 2.39983 0 011.60925-.14124A2.41281 2.41281 0 01424.896 160.536 2.43781 2.43781 0 01423.2867 160.67723zM452.06294 170.447a1.75414 1.75414 0 01-1.58007.87818 1.92813 1.92813 0 01-.91724-.23218 1.613 1.613 0 01-.66455-.646c.63745.04285 1.09949.11792 1.58276.11A13.39608 13.39608 0 00452.06294 170.447z"/><path d="M403.60408,270.22325a24.491,24.491,0,0,0-1.13965-9.9,27.1666,27.1666,0,0,0-4.69543-8.73462,27.54972,27.54972,0,0,0-3.43713-3.56555l-3.74915-3.41492c-2.4895-2.29724-5.02466-4.51037-7.47949-6.88012a90.09871,90.09871,0,0,1-12.46179-16.12329,122.00471,122.00471,0,0,1-9.32032-18.11756.78355.78355,0,0,1-.04419-.14929l-.00366-.02075c-.2041-1.10693-.43371-2.20923-.743-3.28882a29.08142,29.08142,0,0,0-1.09168-3.17834,24.83107,24.83107,0,0,0-1.48974-2.99183A16.2143,16.2143,0,0,0,356.049,191.23l.13135.10315c-2.80762-1.81628-5.65332-3.57312-8.56885-5.19141a48.84634,48.84634,0,0,0-9.02966-4.09777,11.00331,11.00331,0,0,0-2.34424-.44275,2.461,2.461,0,0,0-1.9408.51489,1.35039,1.35039,0,0,0-.36059.8053,2.15941,2.15941,0,0,0,.28015.96692,8.73024,8.73024,0,0,0,1.44311,1.88366,43.1651,43.1651,0,0,0,7.969,5.95142.366.366,0,0,1-.2284.67517,13.07237,13.07237,0,0,0-3.54321.19128,9.49146,9.49146,0,0,0-3.2959,1.24927,6.82865,6.82865,0,0,0-2.40417,2.507,8.7699,8.7699,0,0,0-1.01844,3.37329.3064.3064,0,0,1-.08349.1792l-.00952.01a6.8564,6.8564,0,0,0-1.93909,3.568,3.17479,3.17479,0,0,0,.33948,1.907,4.609,4.609,0,0,0,1.32885,1.49047l.00879.00733a.35163.35163,0,0,1,.10144.39929,14.776,14.776,0,0,0-.81335,2.84241,7.77962,7.77962,0,0,0-.02942,2.88513,3.16141,3.16141,0,0,0,1.47961,2.18335,5.37919,5.37919,0,0,0,2.73133.5531l-.34522.59119-1.62024-2.97376a.43579.43579,0,0,1,.65857-.54614,27.37646,27.37646,0,0,1,4.82654,4.84289,9.1184,9.1184,0,0,1,.91089,1.52869,4.97041,4.97041,0,0,1,.30994.88721,3.31586,3.31586,0,0,0,.10058.38611,1.20775,1.20775,0,0,0,.11585.31689,5.17125,5.17125,0,0,0,2.14721,2.05335,12.52907,12.52907,0,0,0,2.96216,1.18371,7.68831,7.68831,0,0,0,3.064.24085,2.72762,2.72762,0,0,1,2.05053.68664,8.50536,8.50536,0,0,1,1.28858,1.29932,21.31891,21.31891,0,0,1,1.93432,2.88965,43.54292,43.54292,0,0,1,2.85108,6.2135c.4021,1.06384.73205,2.19165,1.101,3.1615.41077,1.02282.83728,2.04321,1.29492,3.0592,1.81043,4.06482,3.8114,8.06213,5.90625,11.99878a143.20319,143.20319,0,0,0,14.42066,22.41406c1.38,1.73181,2.87976,3.34473,4.3966,4.93042l2.39222,2.2334a14.8298,14.8298,0,0,0,2.58984,1.74536,13.40266,13.40266,0,0,0,12.03064.20606l-.28089.19922.03992-.03.205-.15308a.48207.48207,0,0,1,.07507-.04541,24.1375,24.1375,0,0,0,5.72949-3.89233c.85352-.76954,1.66773-1.64429,2.523-2.51221l2.5315-2.5918,10.18628-10.30762.00427-.00439a.97149.97149,0,0,1,.10827-.09338c3.95252-2.89331,7.81849-5.9712,11.5702-9.15113,3.7539-3.18359,7.42675-6.46716,10.90063-9.95031a89.14058,89.14058,0,0,0,9.59912-11.16077,35.14269,35.14269,0,0,0,3.60962-6.38208,14.03191,14.03191,0,0,0,1.22327-7.13464.10008.10008,0,0,1,.08227-.11512.10316.10316,0,0,1,.115.08191,14.359,14.359,0,0,1-.97778,7.34168,35.74338,35.74338,0,0,1-3.42883,6.62732,83.05854,83.05854,0,0,1-9.3772,11.5636c-3.42114,3.59582-7.014,7.02331-10.743,10.29174-3.73548,3.26746-7.55567,6.41016-11.53015,9.41663l.1123-.09754-10.0227,10.46631-2.52088,2.60193c-.837.85425-1.66589,1.75342-2.6029,2.60669a26.17343,26.17343,0,0,1-6.203,4.241l.27967-.19849-.0398.03-.19714.14819a.507.507,0,0,1-.084.051,15.65521,15.65521,0,0,1-6.96228,1.55078,15.37561,15.37561,0,0,1-6.923-1.74707,16.93448,16.93448,0,0,1-2.97913-1.99292l-2.52954-2.34375a63.32034,63.32034,0,0,1-4.52466-5.11572,145.05748,145.05748,0,0,1-14.43542-22.86353c-2.08972-3.988-4.0448-8.04052-5.813-12.19275-.4469-1.03418-.86865-2.08752-1.27649-3.15063-.40735-1.13269-.68567-2.16382-1.06091-3.20239a43.85764,43.85764,0,0,0-2.64844-6.03882,19.9475,19.9475,0,0,0-1.735-2.73291A7.21777,7.21777,0,0,0,350.59493,226a1.52206,1.52206,0,0,0-1.01123-.449,8.93651,8.93651,0,0,1-3.58448-.3462,13.69008,13.69008,0,0,1-3.2301-1.3811,6.235,6.235,0,0,1-2.5459-2.61169,2.11258,2.11258,0,0,1-.16174-.47266c-.0459-.16968-.0863-.33179-.10242-.42883a3.91936,3.91936,0,0,0-.23034-.70105,8.12461,8.12461,0,0,0-.78125-1.36865,26.536,26.536,0,0,0-4.54712-4.7428l.65857-.54615,1.55957,3.006.016.03088a.38405.38405,0,0,1-.16406.51782.38819.38819,0,0,1-.19739.04273,6.166,6.166,0,0,1-3.1322-.71595,3.906,3.906,0,0,1-1.80738-2.67834,8.468,8.468,0,0,1,.048-3.15564,15.411,15.411,0,0,1,.87988-2.986l.11023.40625a5.26737,5.26737,0,0,1-1.51489-1.73352,3.83712,3.83712,0,0,1-.39087-2.29431,6.05619,6.05619,0,0,1,.78454-2.14026,8.81541,8.81541,0,0,1,1.37049-1.78614l-.09278.18885a10.07182,10.07182,0,0,1,1.0885-3.60877,7.46987,7.46987,0,0,1,2.593-2.75915,10.16164,10.16164,0,0,1,3.51379-1.37512,13.70719,13.70719,0,0,1,3.7627-.236l-.22839.675a47.7746,47.7746,0,0,1-8.21863-5.96118,9.56392,9.56392,0,0,1-1.65332-2.064,3.06468,3.06468,0,0,1-.41956-1.42,2.29794,2.29794,0,0,1,.59168-1.4657,3.42224,3.42224,0,0,1,2.71887-.90295,12.01931,12.01931,0,0,1,2.605.41907,49.57952,49.57952,0,0,1,9.38306,3.97339c2.99463,1.56823,5.90783,3.27063,8.781,5.03173l.00781.00476a.66906.66906,0,0,1,.12378.09852,15.91586,15.91586,0,0,1,2.20057,2.93884,26.48068,26.48068,0,0,1,1.62109,3.19226,30.777,30.777,0,0,1,1.18433,3.36133c.33544,1.13891.58691,2.29736.80969,3.4602l-.04773-.16968a140.28794,140.28794,0,0,0,9.12121,17.88111,90.67227,90.67227,0,0,0,12.07361,15.97693c2.34522,2.3728,4.84278,4.66089,7.2583,6.99731l3.65345,3.48877a28.61854,28.61854,0,0,1,3.49121,3.79407,27.40745,27.40745,0,0,1,4.52221,9.15832,23.83735,23.83735,0,0,1,.73694,10.10718.1.1,0,0,1-.19812-.02734Z"/><path d="M332.58406 206.61656l2.30469.61316-2.343.44519a.54306.54306 0 01-.20276-1.067A.55147.55147 0 01332.58406 206.61656zM332.78194 199.15708l4.51233.08106-4.407.97278a.53322.53322 0 11-.22986-1.04138A.57127.57127 0 01332.78194 199.15708zM337.63631 219.02745a182.4194 182.4194 0 01-24.10681 6.322 101.957 101.957 0 01-12.39746 1.56579c-2.08118.14038-4.16724.22559-6.254.22449q-1.5639.02528-3.1294-.03345c-1.04528-.01928-2.0885-.09143-3.126-.19336l.02771.00123L288.64 226.914h-.00525l-.025-.00146a25.569 25.569 0 01-3.59461-.576 11.24315 11.24315 0 01-3.43774-1.37586.39389.39389 0 01.33057-.70727l.02233.00708c5.41517 1.7 11.12427 2.19092 16.77515 2.53137 5.66895.33252 11.36133.2384 17.04932.05823 2.854-.11511 5.6687-.19592 8.55969-.36328 2.82251-.12574 5.67175-.3114 8.52246-.48206l17.11755-1.19055a.1061.1061 0 01.02845.20984c-5.62085 1.14038-11.28968 2.02368-16.98487 2.72546-2.8468.35254-5.70105.62854-8.58838.86731-2.81787.21045-5.718.4231-8.58264.49365a145.01871 145.01871 0 01-17.2594-.47766 65.945 65.945 0 01-16.90063-3.62695l.3529-.70007a10.10969 10.10969 0 003.161 1.3789 22.11375 22.11375 0 003.489.58741l-.02991-.00135.01038-.00012.02807.00122a52.5204 52.5204 0 0012.31226-.67981c4.08069-.6062 8.12866-1.40478 12.19421-2.11255 8.13184-1.44543 16.22119-3.1748 24.3982-4.6571a.10623.10623 0 01.05322.20508zM371.573 221.53013c1.08509-.43139 2.182-.78711 3.27918-1.13623 1.10022-.333 2.19934-.665 3.30737-.94775 1.10364-.30457 2.21521-.56629 3.327-.82532 1.10791-.27734 2.2312-.47949 3.34656-.71985l-.82569.98975c.01331-1.27613.10523-2.54969.15406-3.82471.08288-1.27393.16723-2.54773.28894-3.82043q.17577-1.90906.43689-3.81556c.19006-1.27038.37524-2.541.66491-3.8081.20679 1.2832.309 2.56323.41614 3.84326q.13531 1.91931.188 3.83594c.03882 1.27783.04016 2.55444.04016 3.83105-.03418 1.27552-.02527 2.55237-.09485 3.82666l-.00378.06739a.99173.99173 0 01-.82215.92273c-1.13159.19384-2.25512.4259-3.39416.58276-1.13513.175-2.27051.34753-3.4137.47717-1.13879.15161-2.28662.25366-3.43335.355C373.88472 221.449 372.7347 221.52745 371.573 221.53013zM336.42338 132.92072a25.03467 25.03467 0 00-10.84426-.42377c-5.2 1.17564-13.87347-2.20262-13.87347-2.20262s-2.99716-1.76877-2.39369 3.1241c0 0 2.02292 12.846.62518 20.92656-1.4086 8.09092-.37077 8.47229 1.24985 7.72041 1.60924-.76273 9.11815-.0848 16.85977.01035 7.73075.0954 7.44479-1.46135 6.89407-5.69749C334.37977 152.14211 336.42338 132.92072 336.42338 132.92072zm-3.3674 21.869c.46591 3.56908.70947 4.89287-5.8247 4.80807-6.53469-.08481-12.878-.65673-14.23338-.0106-1.3662.63526-2.24528.30716-1.059-6.51323 1.18573-6.83073-.51917-17.67525-.51917-17.67525-.51918-4.13013 2.02292-2.637 2.02292-2.637s7.3181 2.849 11.70214 1.85331a21.2385 21.2385 0 019.16056.36016S332.5792 151.21029 333.056 154.7897z"/><path d="M329.51979 151.80472c.30484 2.33517.4642 3.2013-3.811 3.14582-4.27551-.05549-8.42584-.42969-9.31261-.00694-.89387.41564-1.469.201-.6929-4.26147.77579-4.46921-.33969-11.56455-.33969-11.56455-.33968-2.70227 1.32356-1.72533 1.32356-1.72533s4.78809 1.864 7.65647 1.21258a13.89589 13.89589 0 015.99357.23565S329.20785 149.46278 329.51979 151.80472zM285.828 132.2471a50.259 50.259 0 017.74158-.22779 49.68562 49.68562 0 017.70031.82984 49.68315 49.68315 0 01-7.74157.22778A50.25793 50.25793 0 01285.828 132.2471zM289.9189 162.46328a50.2753 50.2753 0 017.74158-.22766 49.66965 49.66965 0 017.70032.82972 49.6698 49.6698 0 01-7.74158.22778A50.258 50.258 0 01289.9189 162.46328zM287.25313 152.79385a50.26027 50.26027 0 017.74158-.22778 49.68245 49.68245 0 017.70031.82971 49.65368 49.65368 0 01-7.74157.22778A50.27434 50.27434 0 01287.25313 152.79385zM291.77339 172.69851c5.335-.316 10.66394-.3114 15.99146-.22815 5.3269.11524 10.65222.31092 15.97143.8302-5.335.31849-10.66394.31348-15.99133.228C302.41805 173.41116 297.09273 173.21512 291.77339 172.69851zM291.193 214.83767c5.25159-.92358 10.53406-1.52771 15.824-2.05383 5.293-.49414 10.59363-.9082 15.9253-1.00012-5.25135.926-10.53382 1.52991-15.824 2.05371C301.825 214.32937 296.52437 214.74319 291.193 214.83767zM287.57393 138.17312a34.9027 34.9027 0 016.40686-.76526 34.50277 34.50277 0 016.44568.29249 34.51354 34.51354 0 01-6.40686.76525A34.91238 34.91238 0 01287.57393 138.17312zM288.14961 143.89566a34.91234 34.91234 0 016.40686-.76526 34.5023 34.5023 0 016.44568.29248 34.50287 34.50287 0 01-6.40673.76526A34.91414 34.91414 0 01288.14961 143.89566zM290.46578 158.26773a34.90307 34.90307 0 016.40686-.76526 34.50234 34.50234 0 016.44568.29248 34.51313 34.51313 0 01-6.40674.76526A34.914 34.914 0 01290.46578 158.26773zM290.75533 148.61758a34.9131 34.9131 0 016.40686-.76526 34.50361 34.50361 0 016.44568.29248 34.50219 34.50219 0 01-6.40686.76526A34.91238 34.91238 0 01290.75533 148.61758zM289.79793 193.24991c5.33508-.316 10.66394-.31141 15.99145-.22815 5.32691.11523 10.65223.31091 15.97144.83007-5.335.31861-10.66394.3136-15.99133.22815C300.44258 193.96255 295.11727 193.76651 289.79793 193.24991zM290.46187 178.62918c4.42651-.49512 8.85876-.66968 13.29224-.7655 4.4342-.064 8.86975-.04737 13.31115.29272-4.42651.49768-8.85864.67175-13.29223.7655C299.33882 178.98355 294.90315 178.9667 290.46187 178.62918zM291.65352 184.35171c4.42651-.49511 8.85877-.66955 13.29236-.7655 4.43408-.064 8.86963-.04736 13.311.29272-4.42651.49768-8.85864.67188-13.29223.76551C300.53047 184.7062 296.0948 184.68924 291.65352 184.35171zM295.7275 203.57864c4.42639-.49512 8.85864-.66955 13.29223-.7655 4.43408-.06384 8.86975-.04737 13.311.29272-4.4264.49768-8.85865.67188-13.29224.76551C304.60433 203.93313 300.16878 203.91629 295.7275 203.57864zM296.91915 209.3013c4.42651-.49524 8.85864-.66968 13.29223-.76551 4.43408-.064 8.86975-.04736 13.311.29261-4.42639.49768-8.85865.67187-13.29224.76562C305.796 209.65567 301.36043 209.63882 296.91915 209.3013zM296.44783 198.72378c4.42652-.49511 8.85864-.66968 13.29224-.7655 4.4342-.064 8.86975-.04736 13.311.29272-4.42639.49769-8.85864.67176-13.29223.76551C305.32466 199.07815 300.88912 199.06131 296.44783 198.72378zM297.04708 189.07364c4.42651-.49512 8.85864-.66968 13.29223-.76551 4.43421-.064 8.86975-.04736 13.311.29273-4.42639.49768-8.85865.67175-13.29224.7655C305.92391 189.428 301.48836 189.41116 297.04708 189.07364zM337.22859 218.64012a.40314.40314 0 01-.11621-.78907.4033.4033 0 11.26319.76172A.47176.47176 0 01337.22859 218.64012z"/><path fill="#020202" d="M313.80733,373.79c.22412,2.40186.48523,4.8.876,7.17041a43.9673,43.9673,0,0,0,1.59582,6.95337,13.74691,13.74691,0,0,0,.65833,1.59961c.1228.2605.26037.48926.40393.74072.155.27612.3258.54663.46338.83106a17.17191,17.17191,0,0,1,1.356,3.51684,21.71946,21.71946,0,0,1,.72571,7.46069,15.19209,15.19209,0,0,1-.7594,3.76,8.47151,8.47151,0,0,1-2.078,3.42456,5.83246,5.83246,0,0,1-1.75171,1.18873,5.61506,5.61506,0,0,1-1.01025.34423l-.92261.1814a17.291,17.291,0,0,0-3.24341,1.15991,26.69074,26.69074,0,0,1-7.2605,1.57593c-2.43616.24194-4.86658.31274-7.29126.322-4.84924.00708-9.67908-.15771-14.511-.30127q-3.62329-.11426-7.24378-.29687c-2.416-.07886-4.82971-.19849-7.24463-.30908-9.66125-.42408-19.30188-1.18946-28.92358-2.10035l-.0387-.00366a.96539.96539,0,0,1-.86792-.85376,2.91278,2.91278,0,0,1,.00684-.76684,4.49188,4.49188,0,0,1,.11645-.61036,5.73369,5.73369,0,0,1,.40491-1.08447,6.198,6.198,0,0,1,.54517-.96118,7.136,7.136,0,0,1,.63647-.86328,15.42577,15.42577,0,0,1,3.02881-2.782,37.176,37.176,0,0,1,6.95911-3.8042c1.2124-.491,2.42993-.968,3.65881-1.39917,1.23083-.40332,2.47583-.84473,3.69434-1.21533,2.44567-.76978,4.89733-1.51368,7.3247-2.32056a92.6997,92.6997,0,0,0,14.13855-5.72876,23.36084,23.36084,0,0,0,6.02344-4.47608,10.61668,10.61668,0,0,0,2.90271-6.78125.1026.1026,0,0,1,.10645-.09863.10528.10528,0,0,1,.09851.09863,10.81906,10.81906,0,0,1-2.49854,7.29688,22.897,22.897,0,0,1-6.01221,5.03027,80.30837,80.30837,0,0,1-14.15063,6.40357c-2.42493.88183-4.85413,1.74243-7.29871,2.54687-1.23376.395-2.40307.834-3.6073,1.24805-1.18725.4375-2.35644.91724-3.51623,1.40723a35.92047,35.92047,0,0,0-6.54431,3.5581,14.34925,14.34925,0,0,0-2.67115,2.3667,5.29433,5.29433,0,0,0-.51953.67456,4.27448,4.27448,0,0,0-.41931.70288,3.70211,3.70211,0,0,0-.28577.709,2.52129,2.52129,0,0,0-.07238.333c-.02063.08521-.01514.25171-.02637.19312l-.90637-.85718q14.38842,1.59632,28.79162,3.04712c2.40284.21558,4.80591.44043,7.21167.62427,2.40662.1709,4.81555.30127,7.22473.41919a136.26128,136.26128,0,0,0,14.45459-.00464c2.40088-.13794,4.79761-.34448,7.15369-.70264a26.38507,26.38507,0,0,0,6.776-1.81762,18.56126,18.56126,0,0,1,3.532-1.356l.48755-.093.36573-.0791a3.784,3.784,0,0,0,.69824-.24268,4.00513,4.00513,0,0,0,1.2207-.84253,9.85136,9.85136,0,0,0,2.35547-6.02246,21.2905,21.2905,0,0,0-.50623-6.90356,18.70122,18.70122,0,0,0-1.11792-3.2771c-.11169-.26611-.25293-.51343-.37963-.771-.14258-.28-.2992-.57861-.41907-.87158a15.03191,15.03191,0,0,1-.62964-1.78247,37.97008,37.97008,0,0,1-1.23-7.23486,70.66213,70.66213,0,0,1-.24329-7.26831.10268.10268,0,0,1,.10511-.1001A.10489.10489,0,0,1,313.80733,373.79Z"/><path fill="#020202" d="M306.62471 387.11717a5.53852 5.53852 0 01.60706 2.5332 5.79046 5.79046 0 01-.58277 2.61841 5.13257 5.13257 0 01-1.76941 2.0332 5.51766 5.51766 0 01-2.43652.93238 15.67631 15.67631 0 001.929-1.5503 6.38216 6.38216 0 001.358-1.86767A10.46094 10.46094 0 00306.62471 387.11717zM316.58361 408.21654s5.825 2.02248 2.6066 12.5995c0 0 .47128 3.93563-13.54941 3.1977l-70.59545.09216s-5.22556-11.55013 5.62746-13.8154l17.72242 1.64029s-4.40964-10.54695-3.17975-13.99063a16.3338 16.3338 0 0118.66835-7.093s-.72858 16.92359 12.31649 22.70831C286.20032 413.55545 305.38849 412.58947 316.58361 408.21654zM264.013 338.52171c-.837 2.26733-1.656 4.54077-2.35523 6.84521a51.75116 51.75116 0 00-1.73474 6.94873 15.92875 15.92875 0 00-.18115 1.73365c-.02625.5498-.0094 1.15942-.01086 1.78784a24.20084 24.20084 0 01-.29664 3.719 16.1521 16.1521 0 01-2.73388 7.06983 12.023 12.023 0 01-6.29322 4.4209 17.43521 17.43521 0 01-1.873.44531l-1.78821.26513a17.66615 17.66615 0 01-3.75891.46241 21.15151 21.15151 0 01-7.22315-2.04883c-2.23925-.9939-4.39953-2.11206-6.52893-3.27661-8.4862-4.70191-16.7976-9.63794-25.18249-14.48462-8.38281-4.8457-16.61975-9.93213-24.80188-15.09937l-.03259-.0205a.96567.96567 0 01-.38868-1.15381 2.95243 2.95243 0 01.36292-.69678 4.97579 4.97579 0 01.39172-.50269 5.9962 5.9962 0 01.88-.79638 8.83508 8.83508 0 011.93786-1.10474 15.90632 15.90632 0 014.07593-1.09717 39.00311 39.00311 0 018.14624-.18579c2.66907.23218 5.35486.63623 7.93726 1.063 2.59289.42285 5.19067.80859 7.79712 1.10693 2.60571.29981 5.21911.5271 7.83349.62085a63.69539 63.69539 0 007.82752-.11572 28.5081 28.5081 0 007.58972-1.60864 10.86985 10.86985 0 005.8739-4.81055.10266.10266 0 01.18506.08838 11.06452 11.06452 0 01-5.74732 5.44775 27.37789 27.37789 0 01-7.76367 2.09961 73.22189 73.22189 0 01-15.98047.10181c-2.65088-.22754-5.29516-.5166-7.92517-.89209-2.63635-.39819-5.1842-.73511-7.78357-.92432a38.7065 38.7065 0 00-7.66809.16529 15.0339 15.0339 0 00-3.5686.8955 6.78267 6.78267 0 00-1.51318.8169 3.97445 3.97445 0 00-.59937.5144 3.02886 3.02886 0 00-.223.27246c-.05847.0691-.13257.22413-.11585.16773l-.42114-1.17432 24.27136 15.88452 6.10913 3.90748c2.05115 1.279 4.12391 2.52172 6.19715 3.76318 4.14612 2.48144 8.38269 4.81982 12.72778 6.91455 2.17358 1.042 4.3728 2.02856 6.60327 2.88306a20.198 20.198 0 006.7417 1.58154 16.27583 16.27583 0 003.41016-.53613c.30652-.06665.63012-.11206.94812-.1587l.848-.12988a15.59607 15.59607 0 001.65149-.40307 10.57334 10.57334 0 005.41223-3.72168 15.18212 15.18212 0 002.58472-6.28785 29.20988 29.20988 0 00.41491-3.49462c.03223-.58057.04432-1.17994.10694-1.83716a17.22215 17.22215 0 01.291-1.85987 43.51461 43.51461 0 012.1825-7.00561c.90149-2.25952 1.86462-4.48609 2.96667-6.64917a.10274.10274 0 01.13807-.04492A.10447.10447 0 01264.013 338.52171z"/><path fill="#020202" d="M251.58211 347.16673a5.53643 5.53643 0 01-.60327 2.53393 5.79032 5.79032 0 01-1.70313 2.07251 5.13244 5.13244 0 01-2.49719 1.01416 5.51844 5.51844 0 01-2.595-.26928 15.67666 15.67666 0 002.42139-.51148 6.38008 6.38008 0 002.05554-1.05224A10.46088 10.46088 0 00251.58211 347.16673zM250.93114 370.48913s4.28228 4.43653-3.36856 12.4175c0 0-1.35813 3.72382-13.532-3.27052l-63.01735-31.82042s.55806-12.66493 11.26334-9.78114l15.06829 9.47215s.83256-11.40132 3.48593-13.91751a16.33381 16.33381 0 0119.85877 2.10894s-8.29785 14.76769.725 25.8232C221.41458 361.52133 238.9682 369.33089 250.93114 370.48913z"/><path fill="none" d="M275.49029,373.91741a1.53833,1.53833,0,0,0,0-3.07471A1.53833,1.53833,0,0,0,275.49029,373.91741Z"/><path fill="#020202" d="M465.98787 174.876l1.10376 7.26037c.38245 2.41162.78491 4.81592 1.25562 7.20313.44055 2.39441 1.01074 4.757 1.672 7.08838a23.51321 23.51321 0 002.84363 6.6781 17.71483 17.71483 0 01-3.62866-6.41968 47.61339 47.61339 0 01-1.92566-7.14368A71.8677 71.8677 0 01465.98787 174.876zM467.51292 139.46421s14.86887-13.6684 33.169 16.935 18.07 43.31928 25.31375 42.08816c0 0-18.12967 14.08578-40.62359-9.41373S467.51292 139.46421 467.51292 139.46421z"/><path fill="#020202" d="M467.4073,189.08189a11.08847,11.08847,0,0,1,.14014-3.29749,10.07485,10.07485,0,0,1,1.27625-3.08129,14.82809,14.82809,0,0,1,4.79516-4.59876,29.85819,29.85819,0,0,1,6.022-2.77393,40.13191,40.13191,0,0,1,6.43823-1.62072l-.15027.03418a16.79914,16.79914,0,0,1,5.56641-.73291,15.204,15.204,0,0,1,5.5133,1.15564c.42761.20727.86743.39318,1.28369.62243.40576.24805.8197.48548,1.21717.7461l1.13476.86413c.3457.27539.66162.54492,1.01367.8064,1.3761,1.05408,2.85816,2.02734,4.341,2.99121l9.00073,5.75964a79.94309,79.94309,0,0,1,8.726,6.36206,15.94761,15.94761,0,0,1,1.94043,2.01685,5.12983,5.12983,0,0,1,.77234,1.3125,2.11348,2.11348,0,0,1,.11584.41675l.04493.21655a1.74848,1.74848,0,0,1-.00513.32739,1.49016,1.49016,0,0,1-.5968.92444,7.12577,7.12577,0,0,1-2.75428.97022c-.90124.16906-1.79846.28064-2.69494.36853-3.58533.32739-7.15552.40466-10.72718.45483-3.57067.03833-7.13928.03259-10.70776.01489l-5.35193-.07446-2.67566-.05066c-.88867-.00354-1.80127-.053-2.63318.00647a9.31949,9.31949,0,0,0-7.8446,5.59045c-1.501,3.23023-2.93481,6.49158-4.40076,9.7367q-4.34088,9.7619-8.44238,19.621c-5.35828,13.1853-10.45032,26.48377-14.59644,40.07153l-.01306.04273a.6368.6368,0,0,1-.03955.09778,24.71071,24.71071,0,0,1-2.9635,4.50317,18.24633,18.24633,0,0,1-3.983,3.66528,10.78407,10.78407,0,0,1-5.19055,1.85035c-1.7898.07153-3.47241-.02588-5.21338-.03028l-10.35889-.17383-10.35022-.26049a.10614.10614,0,0,1-.10327-.10865.10749.10749,0,0,1,.10327-.10327l10.33447-.37719,10.32581-.29029c1.70386-.06592,3.47717-.04761,5.12317-.18213a9.54472,9.54472,0,0,0,4.387-1.72387,20.18415,20.18415,0,0,0,6.11646-7.59143l-.05237.14025A314.13882,314.13882,0,0,1,465.857,233.36961q4.21-9.85584,8.85156-19.51282c1.53064-3.22595,3.137-6.41553,4.75074-9.60022a10.6887,10.6887,0,0,1,3.66308-4.21582,10.29113,10.29113,0,0,1,5.27515-1.72082c3.64392.10022,7.14453.26184,10.72546.319,3.56189.08337,7.12549.10217,10.68482.00781a98.35081,98.35081,0,0,0,10.62488-.74109c.87353-.12207,1.74243-.26782,2.58654-.46277a6.379,6.379,0,0,0,2.23548-.84546c.11389-.09533.13965-.17578.12915-.16076-.00635-.00367-.00562.00769-.00476-.00574l-.03382-.1084a.93594.93594,0,0,0-.07214-.22241,3.96364,3.96364,0,0,0-.62854-.95227,14.71042,14.71042,0,0,0-1.83777-1.75708,91.66133,91.66133,0,0,0-8.77185-5.91944c-3.02576-1.86779-6.0675-3.72729-9.07678-5.68042-1.49536-.99475-2.98792-1.9945-4.43225-3.12353-.36109-.2738-.72144-.58569-1.06971-.86951l-.985-.76636c-.34546-.23-.70483-.439-1.05554-.66162-.36133-.2041-.745-.36731-1.11573-.55542a15.19205,15.19205,0,0,0-9.88085-.61059l-.07569.0199a.6537.6537,0,0,1-.075.0144,38.86781,38.86781,0,0,0-6.23437,1.31982,28.70983,28.70983,0,0,0-5.884,2.43836,14.39043,14.39043,0,0,0-4.77319,4.07239,9.50782,9.50782,0,0,0-1.37671,2.83007,10.91056,10.91056,0,0,0-.38171,3.16663.10589.10589,0,0,1-.09961.11194A.11013.11013,0,0,1,467.4073,189.08189Z"/><path fill="#020202" d="M394.71285,247.62486l10.72522-12.66773c.88635-1.05859,1.76623-2.12207,2.62646-3.19506l1.27234-1.61219a13.41082,13.41082,0,0,0,1.09265-1.5747,49.76654,49.76654,0,0,1,3.94422-7.41163,35.07555,35.07555,0,0,1,12.20446-11.691,30.54368,30.54368,0,0,1,7.96448-3.12341,27.16032,27.16032,0,0,1,8.59961-.72265l-.82239.27478,6.39295-6.04395.01806-.01721a.85523.85523,0,0,1,.47046-.22656,46.07417,46.07417,0,0,1,15.92139.2091,26.16258,26.16258,0,0,1,7.4834,2.77442,15.71739,15.71739,0,0,1,5.8092,5.30969,16.62081,16.62081,0,0,0-6.10889-4.73657,27.40362,27.40362,0,0,0-7.39709-2.19983,48.02912,48.02912,0,0,0-15.42432.43408l.48816-.24353-6.25573,6.18579a.97471.97471,0,0,1-.7555.28l-.06738-.005a25.91031,25.91031,0,0,0-7.86255.75281,30.838,30.838,0,0,0-13.88794,7.67652,37.65539,37.65539,0,0,0-5.23706,6.14209,54.461,54.461,0,0,0-4.07117,7.09912,13.782,13.782,0,0,1-1.32336,1.79272c-.44861.54163-.90064,1.072-1.36487,1.59094-.925,1.04-1.86279,2.062-2.806,3.07825-1.8783,2.03906-3.8175,4.01782-5.75378,5.99756C398.65206,243.73167,396.70479,245.69969,394.71285,247.62486Z"/><path fill="#020202" d="M474.77652,215.67434l-13.55087,31.95047s4.76226-38.00121-16.36417-39.66046l-1.8429-1.34029,5.63111-5.44465s27.79871,1.22886,26.12683,14.49493"/><path d="M280.32308,120.25682q.7641,13.03893,1.14611,26.08313c.28248,8.6958.448,17.39318.59095,26.09094.10547,8.69824.18579,17.39685.14978,26.09717q-.01154,13.04975-.41138,26.1051-.76758-13.03876-1.14917-26.083c-.28186-8.6958-.44751-17.39319-.58789-26.09106-.103-8.69825-.18335-17.39685-.14685-26.09717Q279.92764,133.31218,280.32308,120.25682Z"/></svg>