<svg xmlns="http://www.w3.org/2000/svg" data-name="Layer 1" viewBox="0 0 700 550"><path d="M456.85521 323.9285c-.17017 0-.34009-.00977-.51025-.02.5-2.93994 1.02-5.88989 1.7102-8.84985.65991 2.84985 1.16992 5.67993 1.6499 8.52A12.98424 12.98424 0 01456.85521 323.9285zM460.07494 325.74857c-.01978 1.7-.01978 3.40015-.01978 5.1001 0 1.85986.01 3.73 0 5.59008v53.42994c-.61011 3.57006-1.2 7.12988-2 10.68994-.8-3.56006-1.39014-7.11988-2-10.68994v-58.77c0-1.78 0-3.57007-.02-5.3501.07007-.3999.12988-.79.2-1.18994a13.31391 13.31391 0 003.62012-.07007C459.935 324.90848 460.00511 325.32865 460.07494 325.74857zM392.20506 235.38846s.21.37012.61988.9502l-.01978.02-2.94018 3.1499c-1.2.8501-2.39991 1.7-3.69 2.46.68018-1.33008 1.4502-2.58008 2.21-3.83984l2.23-2.37012C391.58519 235.55863 392.20506 235.38846 392.20506 235.38846zM409.77513 216.78861c-.68994 1.32007-1.46 2.58008-2.22 3.83008l-2.95 3.1499-.54.57007a16.51762 16.51762 0 00-2.20019-.57007l1.28-1.36987 2.95-3.15015C407.29515 218.40848 408.4951 217.56864 409.77513 216.78861z"/><path fill="#020202" d="M442.46262 241.01464a2.29716 2.29716 0 01.69482-.88062 1.68563 1.68563 0 01.7688-.321 1.62812 1.62812 0 01.82471.10083 2.23 2.23 0 01.89868.6604h.00268l.01246.01855-.01246.01831.00245.00025a2.23085 2.23085 0 01-.69629.87133 1.62758 1.62758 0 01-.77.31177 1.68222 1.68222 0 01-.82593-.10986A2.29727 2.29727 0 01442.46262 241.01464zM401.72824 246.426l-21.8811 2.70435q-10.94129 1.34327-21.89063 2.614c-14.60083 1.67774-29.19091 3.4541-43.80224 5.03516L270.333 261.63964l-43.84619 4.62988-.00537.00073a.891.891 0 01-.35938-.0376c-6.25122-2.02563-12.50928-4.03076-18.74316-6.11059l-18.71851-6.188q-9.36548-3.0747-18.70019-6.24536L151.29 241.34984l18.88062 5.68164q9.43982 2.84179 18.85058 5.77515l18.83228 5.83252c6.283 1.927 12.542 3.92871 18.80761 5.90991l-.3645-.03711 43.82227-4.85229 43.84692-4.62232c14.61133-1.57959 29.2439-2.96411 43.866-4.447q10.96581-1.11658 21.94336-2.1272z"/><path fill="#020202" d="M151.28708,250.668c6.1958,2.15673,12.35254,4.416,18.52783,6.62671l18.46338,6.79516,9.22778,3.408,9.198,3.48486,18.39624,6.96973-.46972-.0564c8.76684-1.18432,17.55151-2.2312,26.3291-3.3313l26.3396-3.25024,26.36255-3.072c8.79516-.9646,17.5852-1.96777,26.39013-2.85474-8.74463,1.35767-17.50439,2.59961-26.259,3.87989l-26.28687,3.66284-26.30957,3.48437c-8.772,1.145-17.53735,2.34326-26.32006,3.40357l-.011.00146a.96491.96491,0,0,1-.45923-.05786l-18.33691-7.12476-9.16846-3.5625-9.13892-3.63916L169.49216,258.136C163.42307,255.64818,157.33542,253.20946,151.28708,250.668Z"/><path fill="#020202" d="M224.00876,368.41283q-.28161-12.89172-.1814-25.77417c.03907-8.58936.19507-17.17578.37378-25.76148.21582-8.5852.457-17.16967.8147-25.75122q.49365-12.87378,1.37573-25.73828.28528,12.89136.18457,25.77417c-.03979,8.58911-.1958,17.17554-.377,25.76148-.21851,8.585-.45947,17.16943-.81763,25.75122Q224.88644,355.548,224.00876,368.41283Z"/><path d="M492.237,172.82469a12.01876,12.01876,0,0,1-3.34033-2.22753,15.33629,15.33629,0,0,1-2.50024-3.20337,20.95286,20.95286,0,0,1-1.667-3.71192,22.17572,22.17572,0,0,1-.94238-4.00244.60714.60714,0,0,1,.00464-.18725l.02148-.11231a20.13,20.13,0,0,0,.4729-4.2561,18.97919,18.97919,0,0,0-.44824-4.239,21.66012,21.66012,0,0,0-3.39258-7.72851l.10962.11548a29.21939,29.21939,0,0,0-5.73755-4.2732,21.307,21.307,0,0,0-6.78027-2.34375,22.87113,22.87113,0,0,0-14.10107,2.76978,28.24531,28.24531,0,0,0-3.10572,1.93066c-.49511.35352-.98047.71948-1.448,1.10059-.21923.18115-.49462.40625-.64111.55884-.186.20044-.37671.43432-.5603.66113a19.94574,19.94574,0,0,0-3.18286,6.342,25.46565,25.46565,0,0,0-1.05591,7.00928,32.5654,32.5654,0,0,0,.85229,7.07422,1.3221,1.3221,0,0,1,.00879.50366c-.2268,1.25049-.4707,2.47363-.74731,3.70947a34.47021,34.47021,0,0,1-1.00293,3.72339c-.18823.57178-.63721,1.57007-.53662,1.3623-.04175-.07153.02319.116.37573.36206a5.38981,5.38981,0,0,0,2.65527.78345l.09522-.00366a1.286,1.286,0,0,1,1.083.52661c1.40161,1.93994,2.8833,3.853,4.35376,5.7478a54.067,54.067,0,0,0,4.65454,5.34473c.20581.18726.41137.36377.6123.51733.09546.06714.19654.13916.2793.18873l.11108.062c.03321.01782.02564.00537.03833.01977.03955.022-.08716-.02124-.12158.01392-.03052.01855.09912-.02051.14087-.02759a3.89376,3.89376,0,0,0,.387-.10254c.26319-.07324.53589-.16968.80567-.26074a21.80373,21.80373,0,0,0,3.17212-1.467,14.50293,14.50293,0,0,0,5.22-4.542l.03247-.0503a.38225.38225,0,0,1,.52832-.11474l.0415.03076a14.60756,14.60756,0,0,1,1.665,1.65552,6.61167,6.61167,0,0,1,.69116.95727,3.11923,3.11923,0,0,1,.44043,1.11694.12425.12425,0,0,1-.24121.05591l-.0022-.00732a4.56109,4.56109,0,0,0-1.29321-1.74024,13.97176,13.97176,0,0,0-1.7456-1.3811l.602-.13428a14.59154,14.59154,0,0,1-5.1333,5.45923,23.43757,23.43757,0,0,1-3.29908,1.8396c-.29663.125-.58569.25781-.90185.365-.15161.05786-.31226.11157-.48364.15943a1.95561,1.95561,0,0,1-.3.07617,1.69891,1.69891,0,0,1-.57227-.00757,3.40125,3.40125,0,0,1-1.18994-.5332c-.29419-.19678-.56055-.40064-.81616-.60694a47.40073,47.40073,0,0,1-5.17456-5.365c-1.60425-1.85669-3.10181-3.77246-4.5979-5.72192l1.17773.52246a6.88634,6.88634,0,0,1-2.32641-.2522,6.80183,6.80183,0,0,1-2.0879-.93335,3.86814,3.86814,0,0,1-1.00659-.969,2.669,2.669,0,0,1-.51635-1.67627,2.46056,2.46056,0,0,1,.17529-.8562l.14038-.353.07593-.16968c.10327-.21728.2019-.49414.2959-.7583a66.84034,66.84034,0,0,0,1.824-7.0271l.00879.50318a34.88224,34.88224,0,0,1-.70117-7.67359,24.85917,24.85917,0,0,1,1.50342-7.574c.2185-.60669.49682-1.19239.75415-1.78174.31005-.56738.56982-1.157.92138-1.69971a18.97482,18.97482,0,0,1,2.27368-3.12158c.22315-.24.43872-.47388.69092-.71143a9.6631,9.6631,0,0,1,.7981-.614c.51855-.3689,1.04687-.71533,1.58349-1.04736,1.07154-.66675,2.19-1.24561,3.3169-1.79932a28.55975,28.55975,0,0,1,14.62622-2.99048,22.93569,22.93569,0,0,1,7.38965,1.8938,25.7092,25.7092,0,0,1,6.44507,4.16138.85339.85339,0,0,1,.10131.10473l.00855.011a18.78446,18.78446,0,0,1,2.44482,4.1228,20.49989,20.49989,0,0,1,1.40845,4.51978,18.60714,18.60714,0,0,1,.36426,4.72363,21.18483,21.18483,0,0,1-.73462,4.66529l.02612-.29908a20.683,20.683,0,0,0,.62378,3.7,21.11775,21.11775,0,0,0,1.2544,3.583,15.50787,15.50787,0,0,0,2.00122,3.22437,13.04612,13.04612,0,0,0,2.8623,2.5603l.00757.00537a.12412.12412,0,0,1-.12256.21484Z"/><path d="M447.01877,171.42406a1.2393,1.2393,0,0,1-1.06982-.61035l-3.42579-5.8086a1.24114,1.24114,0,1,1,2.1377-1.26171l3.42578,5.80859a1.241,1.241,0,0,1-1.06787,1.87207Z"/><path d="M444.34445,166.26976a.62108.62108,0,0,1-.35547-1.12988c1.80079-1.25586,17.69727-12.24512,21.07813-12.10937a.62072.62072,0,0,1,.5918.64843.62961.62961,0,0,1-.64844.5918c-.01514-.001-.03125-.001-.04736-.001-2.34229,0-13.64209,7.26953-20.26416,11.8877A.61976.61976,0,0,1,444.34445,166.26976Z"/><path d="M463.25168 156.62938a4.03437 4.03437 0 01.844-2.56543 1.96675 1.96675 0 011.37037-.68017l.39917-.00635c.12792.01465.24731.05151.37207.07812a2.53761 2.53761 0 01.699.24488 6.30026 6.30026 0 011.21509.73144c.34326.303.70532.57862 1.03418.90991a8.5852 8.5852 0 011.606 2.29029 8.89491 8.89491 0 01.6294 5.44262 6.72806 6.72806 0 01-1.0398 2.55079 2.7485 2.7485 0 01-1.06128.93652 1.08242 1.08242 0 01-1.302-.25171.97876.97876 0 001.13477-.04883 2.46014 2.46014 0 00.7063-.95019 7.21436 7.21436 0 00.60425-2.38062 9.3282 9.3282 0 00-.79541-4.77344 7.86033 7.86033 0 00-1.33228-2.009c-.26514-.30664-.583-.58227-.8728-.87842a7.83059 7.83059 0 00-.9607-.70776 1.62872 1.62872 0 00-1.98706-.0603A4.53609 4.53609 0 00463.25168 156.62938zM448.17526 179.55712a18.91246 18.91246 0 002.81592-.53077 6.50619 6.50619 0 001.22534-.47924c.42163-.19141.81446-.4607 1.32886-.72144a2.70611 2.70611 0 01-.73828 1.489 3.20231 3.20231 0 01-1.46069.90015 3.59638 3.59638 0 01-1.69239.08008A2.84345 2.84345 0 01448.17526 179.55712zM444.344 161.95555a3.38211 3.38211 0 01.77833-2.34106 4.79639 4.79639 0 012.0664-1.49121 6.45223 6.45223 0 012.45557-.39282 11.38812 11.38812 0 011.208.15551 8.97105 8.97105 0 011.15405.3816 10.0806 10.0806 0 01-1.17017.22778c-.38037.06958-.75195.15234-1.12036.20093a13.53677 13.53677 0 00-2.08179.58447A6.30663 6.30663 0 00444.344 161.95555zM449.54949 167.25971a1.39712 1.39712 0 000-2.79257 1.39712 1.39712 0 000 2.79257zM477.6987 202.65087a16.26666 16.26666 0 00-4.76391-2.75684 25.264 25.264 0 00-5.291-1.35327 41.09164 41.09164 0 00-5.49121-.45191l-2.78687.01294c-.9309.04248-1.86523.08887-2.81616.08106.90527-.26392 1.82691-.47363 2.752-.687.9336-.1416 1.87354-.28467 2.81958-.375a25.13 25.13 0 015.71412.19433 18.68808 18.68808 0 015.49194 1.69751A11.20268 11.20268 0 01477.6987 202.65087zM408.04929 253.56786a27.57875 27.57875 0 012.10327-5.07886 30.95961 30.95961 0 012.96387-4.65771 21.462 21.462 0 013.88671-3.97193 11.45627 11.45627 0 014.99292-2.35718 17.51225 17.51225 0 00-4.36425 3.09424 32.63363 32.63363 0 00-3.53345 3.99292C411.89523 247.40917 410.0112 250.47826 408.04929 253.56786zM452.00632 272.6516a4.36559 4.36559 0 001.7102.08667 7.61362 7.61362 0 001.66138-.377l.79248-.31324c.2605-.11132.50366-.26538.75513-.39526a10.82019 10.82019 0 001.43066-.92065 24.757 24.757 0 004.80493-4.8252c.6648-.93115 1.33985-1.85449 1.97535-2.80518.59594-.98 1.23608-1.92968 1.79541-2.93164l1.66406-3.01538 1.51562-3.09887c2.00367-4.16455 3.96338-8.375 6.03467-12.51709l3.10108-6.219c1.07421-2.05249 2.1101-4.12353 3.21728-6.158-.85547 2.16016-1.78247 4.28394-2.67114 6.42627l-2.78736 6.36524c-1.86889 4.24072-3.78808 8.44238-5.7749 12.63647a56.12069 56.12069 0 01-7.33056 11.91406 25.12135 25.12135 0 01-5.20752 4.73047 11.29446 11.29446 0 01-1.56031.8357c-.2727.1145-.53393.25146-.814.34594l-.84717.25855A5.8463 5.8463 0 01452.00632 272.6516zM450.86008 244.677a.61131.61131 0 01-.21826-.04l-5.55518-2.08594a.6207.6207 0 01.43652-1.16211l5.55518 2.08594a.621.621 0 01-.21826 1.20215zM405.23605 243.13085a8.82355 8.82355 0 01-4.13037.2727 11.51234 11.51234 0 01-3.95239-1.50732 17.02965 17.02965 0 01-3.29785-2.62061 20.01471 20.01471 0 01-2.61841-3.3374l1.26221.52393a27.59971 27.59971 0 01-7.85132.84814 13.302 13.302 0 01-3.97778-.675 3.899 3.899 0 01-1.75391-1.20923 2.92786 2.92786 0 01-.53809-.97168 2.58974 2.58974 0 01-.00048-1.13867 4.068 4.068 0 011.05127-1.81225 11.12544 11.12544 0 011.46484-1.36109 29.65943 29.65943 0 013.22-2.25537 55.59328 55.59328 0 016.8916-3.62378c1.19727-.491 2.31934-1.064 3.6958-1.48633a14.89734 14.89734 0 014.13355-.6455 15.05714 15.05714 0 014.09863.55029 20.0599 20.0599 0 013.82739 1.38086 28.51967 28.51967 0 016.57471 4.44165 31.55688 31.55688 0 015.19434 5.82422.12457.12457 0 01-.18335.16552l-.00611-.00512a46.96387 46.96387 0 00-12.57788-8.16382 18.03566 18.03566 0 00-3.4436-1.075 13.92922 13.92922 0 00-3.4978-.48023 12.841 12.841 0 00-3.46387.36451c-1.09644.26489-2.30591.78588-3.501 1.20825-2.37378.90576-4.76465 1.76635-7.08349 2.781a27.16986 27.16986 0 00-3.324 1.76978 9.97437 9.97437 0 00-1.43286 1.155 3.269 3.269 0 00-.90405 1.43481 1.45324 1.45324 0 00.417 1.43921 2.62759 2.62759 0 001.43188.83008 10.48474 10.48474 0 003.63428.0957 72.10681 72.10681 0 007.31568-1.533 1.17442 1.17442 0 011.26245.52417 21.3926 21.3926 0 002.22485 3.00513 18.4522 18.4522 0 002.73364 2.59473 12.27018 12.27018 0 003.2688 1.81689 10.68146 10.68146 0 003.7937.63013.12564.12564 0 01.12842.12256A.12885.12885 0 01405.23605 243.13085zM426.22409 330.41649l2.78711 6.80957a.17474.17474 0 01-.2207.231l-.01074-.00391a16.93214 16.93214 0 00-4.35743-1.0625 14.09059 14.09059 0 00-4.43066.33081 17.08159 17.08159 0 00-7.59424 4.51123 34.31263 34.31263 0 00-5.439 7.14283 48.6738 48.6738 0 00-3.8479 8.14111l-.00244.00635a.50373.50373 0 01-.94385.01123l-5.41138-13.981-5.32056-14.01562.9878-.23853 1.90429 19.38159c.61548 6.4624 1.2854 12.91895 1.95874 19.37525a.20324.20324 0 01-.02563.123 11.829 11.829 0 01-6.26318 4.88282 27.34715 27.34715 0 01-7.86475 1.47021 56.49232 56.49232 0 01-7.99512-.18555 67.937 67.937 0 01-7.916-1.18628.31446.31446 0 01-.24512-.25879l-.00122-.00854q-2.28039-14.70373-3.82935-29.502c-1.0039-9.86768-1.76928-19.76685-2.02588-29.69995-.0205-2.48487-.04394-4.97-.00805-7.45581l.12451-3.73047.06885-1.865.15307-1.864.3147-3.72754.56421-3.71313a30.84876 30.84876 0 01.81445-3.67481c.15869-.60815.29785-1.22192.47315-1.82544l.66284-1.77294.67236-1.76832c.27808-.56713.58447-1.12231.87573-1.68334.30225-.55542.574-1.12769.90186-1.66773l1.092-1.55688a22.60145 22.60145 0 012.45191-2.90088 16.53984 16.53984 0 011.42382-1.261 11.28977 11.28977 0 011.5066-1.15771l1.59692-1.03394 1.70215-.846a15.718 15.718 0 011.75952-.70776 13.53542 13.53542 0 011.80884-.563 22.05113 22.05113 0 017.51977-.71777l-.40674.2312a16.8679 16.8679 0 011.95411-3.21265 17.3881 17.3881 0 012.65918-2.644 21.30047 21.30047 0 016.60083-3.39356 33.56273 33.56273 0 017.25585-1.38623 40.79194 40.79194 0 017.36451.02271.06209.06209 0 01.05566.06763.06443.06443 0 01-.06885.05566 40.59577 40.59577 0 00-7.31762.19043 33.13776 33.13776 0 00-7.11524 1.57422 20.85385 20.85385 0 00-6.3562 3.3938 16.69023 16.69023 0 00-2.50317 2.56714 16.10413 16.10413 0 00-1.81006 3.08252.39934.39934 0 01-.38452.23291l-.02222-.00147a21.69427 21.69427 0 00-13.708 3.92139 23.89821 23.89821 0 00-8.3457 11.59961l-.63574 1.709c-.16773.585-.30054 1.18189-.45264 1.772a29.72378 29.72378 0 00-.78271 3.57642l-.543 3.636-.3003 3.67895-.14648 1.83985-.06323 1.84838-.11377 3.698c-.033 2.46729.01025 4.93823.01855 7.40747.18213 9.88355.89307 19.76319 1.80493 29.61939q1.34144 14.788 3.38135 29.51025l-.24634-.26684a67.41819 67.41819 0 007.81714 1.2976 50.24587 50.24587 0 007.92041.26783 26.95176 26.95176 0 007.7522-1.39991 11.10043 11.10043 0 006.0459-4.71606l-.02564.12256c-.71509-6.45191-1.43408-12.90332-2.207-19.34864l-2.27026-19.34179a.51185.51185 0 01.98559-.24463l.0022.0061 5.40552 13.9834L403.104 356.1743l-.946.01758a49.5772 49.5772 0 013.99512-8.29736 34.20732 34.20732 0 015.70215-7.22949 17.77578 17.77578 0 017.9934-4.54395 13.94667 13.94667 0 014.62622-.22192 17.35228 17.35228 0 014.4397 1.22827l-.23144.22705-2.57447-6.89258a.06205.06205 0 01.11548-.04541z"/><polygon points="391.911 328.354 393.016 338.581 386.177 299.795 393.648 332.884 391.911 328.354"/><path d="M442.57053,273.7307c-13.79932,0-54.17823-5.27441-56.10205-5.52734a.62049.62049,0,1,1,.16113-1.23047c.52832.06836,52.95264,6.91308,59.48,5.27734a.62032.62032,0,1,1,.30273,1.20313A18.14992,18.14992,0,0,1,442.57053,273.7307Z"/><path d="M536.675 205.6287s-44.67993-10.42017-55.69995 42.8999c-11.02 53.31006-13.83008 49.43994-13.83008 49.43994-20.10986 29.15015-59.32983 11.27-68.23 6.68018a5.66715 5.66715 0 00-6.3999.68994c-2.38989 2.18994-2.02 5.73-2.02 5.73l.16992 4.01a4.49593 4.49593 0 001.72 3.32983c14.5 11.52 40.31006 13.91016 63.67017 12.69019 1.33984-.07007 2.67993-.15015 4-.25 20.18994-1.40992 37.8999-5.37012 43.85986-8.15015 13.40015-6.25977 17.27-3.57983 38.12012-58.68994C562.895 208.90848 536.675 205.6287 536.675 205.6287zm8.89014 14.68994l-.01-.01a30.46223 30.46223 0 00-19.19995-3.36011c-6.48 1.09009-12.15015 4.88013-16.49023 9.75a51.93008 51.93008 0 00-5.81983 7.96 74.65248 74.65248 0 00-4.58008 8.84009 143.94871 143.94871 0 00-6.55 18.92993c-.84985 3.24023-1.74 6.49023-2.5 9.77-.3999 1.64014-.86987 3.26-1.28979 4.89014-.42017 1.62988-.87012 3.25-1.33008 4.86987a161.497 161.497 0 01-6.31006 19.25c-.62988 1.57007-1.39013 3.09009-2.12011 4.62012-.81983 1.5-1.56983 3.02-2.5 4.45a43.50441 43.50441 0 01-6.25 8.14013 22.05247 22.05247 0 01-8.64991 5.56983 13.49442 13.49442 0 01-2.10986.5 13.31391 13.31391 0 01-3.62012.07007 10.81765 10.81765 0 01-4.28-1.48.09822.09822 0 01-.03-.1399.09629.09629 0 01.12012-.04l.01.00976a10.98729 10.98729 0 004.2898 1c.17016.01025.34008.02.51025.02a12.98424 12.98424 0 002.84985-.34985 16.32976 16.32976 0 001.92017-.58008 21.8343 21.8343 0 007.87988-5.65991 46.91 46.91 0 005.83985-7.97c.88012-1.41016 1.63012-2.90015 2.43017-4.3501.71-1.51 1.53-2.96 2.18994-4.49a137.38215 137.38215 0 007.2-18.75c1-3.21 1.77-6.48 2.56006-9.74.76-3.28 1.3899-6.57007 2.13013-9.86988a113.31 113.31 0 015.87988-19.41015 60.6835 60.6835 0 0110.55-17.49 33.10809 33.10809 0 018.0398-6.52 27.36141 27.36141 0 019.80029-3.34985 29.25856 29.25856 0 0119.53979 4.73974.1002.1002 0 01.03.14014A.10924.10924 0 01545.56517 220.31864zM501.6528 399.896a5.19429 5.19429 0 01-.93359 2.86695 10.21084 10.21084 0 01-2.06983 2.1936 25.08418 25.08418 0 01-5.13525 3.11792 60.57154 60.57154 0 01-11.37646 3.87573 93.01479 93.01479 0 01-23.86206 2.48023 128.77572 128.77572 0 01-23.78614-2.84912 67.05781 67.05781 0 01-11.49072-3.41773 24.99867 24.99867 0 01-5.324-2.92236 10.13449 10.13449 0 01-2.228-2.21948 5.68936 5.68936 0 01-1.10352-3.12574 5.79342 5.79342 0 01.97364-3.21289 10.44919 10.44919 0 012.16284-2.37695 22.622 22.622 0 015.29467-3.19434 57.18946 57.18946 0 0111.56128-3.65039 113.74728 113.74728 0 0123.93995-2.39038 101.46273 101.46273 0 0123.86962 2.73389 61.5305 61.5305 0 0111.377 3.894 25.02493 25.02493 0 015.136 3.12573 10.1781 10.1781 0 012.06714 2.2002A5.19592 5.19592 0 01501.6528 399.896zm-.24829 0c-.03515-1.98022-1.4414-3.62524-2.97583-4.78369a21.18289 21.18289 0 00-5.18091-2.78076 57.26088 57.26088 0 00-11.43066-2.92627 151.55723 151.55723 0 00-23.5415-1.68677 129.8239 129.8239 0 00-23.47095 2.03028 62.00283 62.00283 0 00-11.24634 3.16967 23.65065 23.65065 0 00-5.02222 2.71216c-1.4895 1.0918-2.77221 2.56885-2.834 4.26538-.05176 1.70191 1.178 3.31714 2.63867 4.51026a21.06038 21.06038 0 004.99341 2.98413 53.0209 53.0209 0 0011.31689 3.40259 87.55646 87.55646 0 0011.77759 1.3938c3.947.24169 7.9021.26464 11.84693.17749a176.1 176.1 0 0023.54907-1.94019 58.16193 58.16193 0 0011.43115-2.94482 21.13668 21.13668 0 005.18164-2.78809C499.97141 403.5288 501.37473 401.87621 501.40451 399.896zM393.8259 369.71459a14.57 14.57 0 011.43359 3.79907c.345 1.31055.60962 2.63745.83643 3.96948.44336 2.66529.80371 5.34278 1.05444 8.02954.11768 1.35742.24951 2.65821.31421 4.06153a10.99969 10.99969 0 01-.70972 4.155 9.03509 9.03509 0 01-.98877 1.89428 15.4802 15.4802 0 01-1.33691 1.62183 13.88609 13.88609 0 01-3.28882 2.56641 19.31813 19.31813 0 01-7.86377 2.31909 18.54 18.54 0 01-4.09326-.09644 12.25113 12.25113 0 01-2.01416-.41846c-.654-.20166-1.28271-.43042-1.91943-.66113-5.09571-1.85132-9.73023-4.6687-14.74219-6.592-4.97876-1.98364-10.11646-3.65576-15.05054-5.90381a37.4272 37.4272 0 01-7.13525-4.03418 16.73749 16.73749 0 01-3.01343-2.90869 4.34647 4.34647 0 01-.94067-2.14307 3.734 3.734 0 01.02832-1.21728 4.66429 4.66429 0 01.40942-1.11621 7.44506 7.44506 0 013.24585-2.92017 12.75827 12.75827 0 014.03613-1.22973 15.543 15.543 0 012.09742-.13575c.69628.02857 1.41552.08155 2.05249.13306 1.311.1106 2.64868.11035 3.98291.09155 5.34912-.10742 10.7146-.62548 16.064-1.196a.062.062 0 01.06909.05395.06327.06327 0 01-.05029.06885 128.98623 128.98623 0 01-16.05151 2.04321c-1.35474.05664-2.71192.0962-4.08643.01929-.70532-.03808-1.33032-.06323-1.97827-.07422a14.38784 14.38784 0 00-1.9231.179 12.39008 12.39008 0 00-3.62793 1.177 6.21067 6.21067 0 00-2.65527 2.39941 2.68979 2.68979 0 00.37036 3.05225 16.87783 16.87783 0 002.76318 2.70117 36.26873 36.26873 0 006.83326 3.99683c4.8374 2.28467 9.89795 4.11816 14.82788 6.33886 2.47 1.09131 4.86889 2.33521 7.26831 3.55347a51.98384 51.98384 0 007.35132 3.25879 15.551 15.551 0 003.84814.97754 17.96066 17.96066 0 003.96314-.08423 18.7623 18.7623 0 007.40991-2.522 13.94258 13.94258 0 003.00854-2.43408 10.15964 10.15964 0 002.11743-3.15992 9.94841 9.94841 0 00.70191-3.74292c-.03736-1.28588-.14917-2.66674-.24219-3.99194-.208-2.67554-.40454-5.35425-.74951-8.01367a29.09041 29.09041 0 00-1.73291-7.801l-.00293-.00634a.06193.06193 0 01.10962-.05713z"/><path d="M371.17941 372.72484a35.50521 35.50521 0 00.62818 4.26807 21.22942 21.22942 0 001.21753 4.05395 7.0881 7.0881 0 002.37524 3.15528 3.85075 3.85075 0 001.74146.63061 5.40438 5.40438 0 001.91674-.19971 12.46457 12.46457 0 003.68287-1.79614 13.53927 13.53927 0 003.07812-2.773 13.15984 13.15984 0 002.92969-7.79834 11.7805 11.7805 0 01-2.1582 8.38379 14.3269 14.3269 0 01-7.21485 5.18262 6.614 6.614 0 01-2.36694.20483 4.85341 4.85341 0 01-2.27-.86718 7.722 7.722 0 01-2.61084-3.76685A21.59067 21.59067 0 01371.17941 372.72484zM349.76145 380.55663a4.64338 4.64338 0 01-.33228-2.49683 5.44156 5.44156 0 01.91162-2.43042 5.49863 5.49863 0 011.92261-1.73828 5.79061 5.79061 0 011.17236-.49341 6.88424 6.88424 0 011.24195-.19629c-.322.2876-.66041.4961-.97046.742-.29663.26367-.62329.46606-.887.74023-.13525.13257-.27368.25708-.41455.37671l-.37011.41016a6.00855 6.00855 0 00-.66846.85547A10.77167 10.77167 0 00349.76145 380.55663zM356.46359 380.55663a4.26125 4.26125 0 01-.30932-2.46143 6.65066 6.65066 0 01.835-2.37524 7.65994 7.65994 0 011.613-1.89722 9.316 9.316 0 011.00073-.718 8.51875 8.51875 0 011.12085-.51464 11.53 11.53 0 01-.719.9729l-.69922.92578a21.63778 21.63778 0 00-1.24682 1.85937A12.576 12.576 0 00356.46359 380.55663z"/><path d="M368.143 403.91511a36.19662 36.19662 0 01-6.68994-2.95408c-3.62405-2.07262-9.954-5.63485-11.74119-6.32966-5.63484-2.20957-12.323-4.49264-14.73253-8.19167-4.10664-6.30443-.00173-9.56066-.00173-9.56066C336.277 383.8151 344.4 387.70569 356.017 392.17393c11.61694 4.46794 13.05686 6.57783 21.00007 9.1595 4.21977 1.3775 13.789.55846 18.29416-6.03209a8.654 8.654 0 00.81935-1.48932l.82518-6.47675C403.0527 411.51527 377.07887 406.80677 368.143 403.91511zM404.69074 385.34609a6.22592 6.22592 0 01-4.29253-5.87292 8.795 8.795 0 015.66156-8.74639c6.29034-2.64856 9.269-10.34108 10.39007-14.14869a31.50769 31.50769 0 014.29926-9.07932c3.13151-4.5138 8.046-9.02866 14.042-5.80388a9.87148 9.87148 0 014.43935 5.34417c1.50139 4.02777 3.90873 8.00515-2.60707 16.86647a43.65293 43.65293 0 01-3.41886 4.04744 21.70892 21.70892 0 00-4.35733 7.01852C427.9419 377.50332 419.08136 389.92346 404.69074 385.34609z"/><path d="M405.87912 349.30419a25.16116 25.16116 0 01-.01343 9.72778 30.70725 30.70725 0 01-3.30493 9.2273 43.37887 43.37887 0 01-2.61011 4.10742 8.66751 8.66751 0 00-.98779 2.06665 7.14773 7.14773 0 00-.25195 2.28247 13.1787 13.1787 0 00.83545 4.64013 4.57562 4.57562 0 003.34985 3.062 3.91124 3.91124 0 01-2.22827-.9292 6.1199 6.1199 0 01-1.46558-1.97779 12.92771 12.92771 0 01-1.17236-4.76928 8.75866 8.75866 0 01.14307-2.52051 9.0361 9.0361 0 01.91943-2.36377c.85083-1.44873 1.69287-2.72241 2.40894-4.16162a38.26346 38.26346 0 003.32714-8.88379A35.76932 35.76932 0 00405.87912 349.30419zM426.19113 336.43553a4.9876 4.9876 0 011.70972.42359 7.13909 7.13909 0 011.50122.85986 5.99286 5.99286 0 011.24072 1.24512 3.18744 3.18744 0 01.67359 1.666c-.48853-.37182-.92578-.66723-1.36035-.98315l-1.30054-.93726A13.8 13.8 0 01426.19113 336.43553zM410.165 255.24857a.14539.14539 0 01-.12988.15991l-39.90991 5.6001-39 5.3.25976 42.8999.12012 21.91016.06006 21.90991a1.50952 1.50952 0 01-1.29 1.5h-.01l-53.01 7.76-53.04 7.57007h-.01a1.4057 1.4057 0 01-.84008-.14014l-36.47-18.18994-36.41992-18.29h-.01a1.017 1.017 0 01-.56006-.91992l.56006-45.48c.21-15.16993.23-30.33008.35987-45.49a.46648.46648 0 01.42016-.46021l29.66992-3.13989 1.23-.12988.27-.03c-.15991.37988-.32006.76-.47 1.1499l-.87011.09009-29.31983 2.93994c.01 15.03-.09009 30.05005 0 45.07007l.2 44.85009 36.09009 17.51978 36.18994 17.7 52.57007-7.75 51.73-7.43994.05982-20.59985.13012-21.91016.27-43.82007v-.00976a1.0492 1.0492 0 01.91992-1.04l40.03-4.68994 40.06006-4.53A.14553.14553 0 01410.165 255.24857z"/><path d="M183.52513 237.46854c.13989.36011.29.72021.42993 1.07007-.54.05-1.07983.11011-1.61987.15991.21-.38989.41992-.77979.61987-1.16992zM184.28514 237.38846c.88989-.08984 1.78-.17993 2.66992-.27978-.15991.38989-.32007.79-.48 1.17993-.56006.05-1.11987.11011-1.67993.16992C184.62523 238.09867 184.45506 237.74857 184.28514 237.38846zM187.87523 237.48856l.25976.63013c-.17993.01977-.35986.03979-.52978.05981Q187.74 237.83353 187.87523 237.48856zM191.30516 236.63846h.09985l-.45 1.21021c-.61987.05981-1.24.11987-1.84985.17993l-.41016-1.10987C189.56517 236.82865 190.435 236.72855 191.30516 236.63846zM191.94505 237.13846l.21.59009c-.13989.02-.29.03-.42993.04zM195.72508 236.46854l-.40991.96-2.52.24023-.3501-1.05C193.53514 236.58866 194.635 236.53861 195.72508 236.46854zM196.02513 236.56864l.31006.76q-.31494.03-.63013.05981zM449.20506 227.33866a.14649.14649 0 01-.16992.10986l-25.34009-5.34985q-12.59985-2.67-25.16992-5.40992l-30.77 3.44971L336.865 223.44852l-30.89991 3.3-30.90991 3.13013c-10.31006 1.0498-20.62012 2.00976-30.92993 2.98L213.185 235.74857q-7.14.66027-14.27 1.34009c-.77.06982-1.53979.13989-2.30981.22l-.32007-.88013c.91992-.06982 1.84009-.1499 2.77-.27-.55-.06982-1.11011-.12988-1.66016-.18994.58008-.06006 1.15015-.12988 1.72-.18994q6.96019-.78 13.91015-1.57007l30.87988-3.47c10.29-1.16992 20.58008-2.33008 30.88013-3.38989l30.90991-3.25L336.615 221.0286l30.92016-3.06006 30.92993-2.90991h.02a.93347.93347 0 01.24.02q12.61487 2.93994 25.2 5.99l25.16993 6.08984A.14479.14479 0 01449.20506 227.33866zM239.05516 323.57865v35.05981l78.63989-10.12988v-33.96zm44.67993 14.98c-5.8 0-5.79-9 0-9C289.53514 329.55863 289.52513 338.55863 283.73509 338.55863zM239.05516 282.22855v35.06006l78.63989-10.13013v-33.96zm44.67993 14.98c-5.8 0-5.79-9 0-9C289.53514 288.20853 289.52513 297.20853 283.73509 297.20853z"/><path d="M413.08469 229.39769l.0122-.001c1.6504-.42212 3.31373-.76856 4.97022-1.1543 1.66138-.35913 3.32349-.71143 4.99-1.03955a.43775.43775 0 01.26221.02905l.02319.01026c3.49341 1.53881 6.95337 3.14843 10.39893 4.78857 3.44043 1.6499 6.8667 3.33057 10.25976 5.08057l.02735.01416a.42775.42775 0 01.18408.57617.43247.43247 0 01-.34156.23c-1.42407.1289-2.84594.27563-4.27392.37549-1.42725.104-2.85181.22949-4.28369.2998 1.40234-.29809 2.81152-.54053 4.21826-.80493 1.406-.26807 2.81811-.48975 4.22778-.729l-.13012.82006c-3.49927-1.52636-6.96558-3.12231-10.41724-4.749-3.447-1.63647-6.87964-3.30371-10.27857-5.04126l.28492.03931c-1.68042.24707-3.365.46948-5.05078.68554-1.69019.18921-3.37378.418-5.07032.57081h-.00049zM405.84885 242.45458l-.01245.00024L397.5 243.79076c-2.77783.45288-5.56518.83154-8.34741 1.25024-2.78443.40064-5.56421.83765-8.35278 1.2085l-8.36207 1.13574a.5944.5944 0 01-.26513-.02734c-3.3606-1.157-6.73511-2.27417-10.08008-3.47656L352.04 240.32616a.54552.54552 0 01-.33643-.69434.5514.5514 0 01.42359-.35864c4.50122-.76831 9.02221-1.42212 13.53442-2.12842 4.5127-.70239 9.03687-1.3374 13.5647-1.95092-4.47461.92553-8.95288 1.82934-13.44263 2.666-4.49023.83276-8.97168 1.718-13.47265 2.48853l.08715-1.05274 10.09082 3.44483c3.36963 1.13086 6.70972 2.34716 10.06373 3.52343l-.26465-.02734 8.37426-1.04468c2.79029-.356 5.58936-.64551 8.38355-.97168 2.79663-.30786 5.58813-.65625 8.38916-.92993 2.79956-.28516 5.59668-.58911 8.40112-.83618h.00025zM373.36813 224.70873c-3.00952.87427-6.0354 1.67163-9.05419 2.50195-.75635.2002-1.50684.427-2.26954.59766l-2.29492.47973-4.58325.991-2.2915.49561a6.28168 6.28168 0 01-2.55542.15332 4.53561 4.53561 0 01-2.415-1.17432 3.31 3.31 0 01-.94776-2.61377 7.436 7.436 0 012.21631-4.522 9.15519 9.15519 0 012.00244-1.50928 11.00506 11.00506 0 011.11377-.54028q.52368-.223 1.03272-.47705a15.4572 15.4572 0 006.64868-5.89356 11.75485 11.75485 0 001.45972-4.18579c.19555-1.449.19751-3.05835.27612-4.60962l.76489-18.74048.01392.15772a2.24716 2.24716 0 00-.31275-.57715 3.75247 3.75247 0 00-.52-.57666 8.67449 8.67449 0 00-1.35815-.9165 12.23448 12.23448 0 00-3.26685-1.16675 25.115 25.115 0 00-3.56079-.43067c-1.20434-.06714-2.41455-.05957-3.63061-.0393 1.20166-.1648 2.40845-.34644 3.63061-.40137a25.72634 25.72634 0 013.688.05542 13.23705 13.23705 0 013.67725.8977 5.60379 5.60379 0 011.66406 1.08155 4.10359 4.10359 0 011.20166 1.80835.3592.3592 0 01.01563.11914l-.00171.03906-.7649 18.74146c-.08227 1.56909-.07129 3.09521-.28955 4.74658a13.00134 13.00134 0 01-1.61181 4.61816 16.68579 16.68579 0 01-7.17261 6.385q-.54016.26953-1.09546.50586a9.72872 9.72872 0 00-.99463.48169 7.918 7.918 0 00-1.73071 1.303 6.24884 6.24884 0 00-1.8562 3.71753 2.04884 2.04884 0 00.58154 1.65942 3.32516 3.32516 0 001.74463.83252 5.04012 5.04012 0 002.09058-.14209l2.29174-.4956 4.58326-.991 2.28808-.511c.76514-.15967 1.54224-.26318 2.31372-.39355C367.18137 225.67943 370.26633 225.15575 373.36813 224.70873z"/><path d="M354.385,168.71854c1.33008,1.51,2.56006,3.11011,4.19,4.66016L341.145,194.96854c-.3-20.54981-14.58984-21.58984-14.58984-21.58984l23.49-8.94a27.3064,27.3064,0,0,1,2.33008,2.07984C353.07494,167.22855,353.72508,167.96854,354.385,168.71854Z"/><path d="M366.02513 173.3787h-7.45019a9.34861 9.34861 0 00-.8899-3.19 11.87914 11.87914 0 00-1.79-2.78027 9.96055 9.96055 0 00-2.57983-2.1499 5.99233 5.99233 0 00-3.27-.81983l3.31983-6.26025zM341.14792 194.97093a18.486 18.486 0 01-6.11865-3.2434 22.365 22.365 0 01-4.8042-5.10352 12.97426 12.97426 0 01-.93018-1.49927c-.27661-.51953-.5979-1.01513-.8352-1.55371a21.27133 21.27133 0 01-1.20728-3.30493 19.41365 19.41365 0 01-.70044-6.89111 53.96686 53.96686 0 002.1731 6.37451 30.49127 30.49127 0 003.14868 5.74438 34.18222 34.18222 0 004.18408 5.06788A46.30314 46.30314 0 00341.14792 194.97093z"/><path d="M335.04147 188.04524c7.18756 0 7.19946-11.17031 0-11.17031-7.18756 0-7.19946 11.17031 0 11.17031zM282.87692 233.62914l18.37647-3.18311c6.25928-1.06543 12.5979-2.15893 18.92114-2.97729l.02026-.00269a.44725.44725 0 01.27173.0503l7.3523 3.96386c2.44409 1.33472 4.91284 2.6211 7.37939 3.91162 2.45752 1.30811 4.95386 2.54077 7.43433 3.804 2.479 1.2666 4.98877 2.47314 7.48169 3.71264a.33589.33589 0 01-.08814.63111l-.01269.00244c-6.27271 1.13428-12.54981 2.241-18.8374 3.282-6.28467 1.05933-12.56861 2.12256-18.8689 3.08594l-.0061.001a.64168.64168 0 01-.40186-.0691c-4.96509-2.66479-9.88281-5.44873-14.74976-8.18017C292.31687 238.906 287.56076 236.21068 282.87692 233.62914zm.12256.021c5.07154 2.62867 10.0708 5.1438 14.99365 7.59839 4.88843 2.479 9.72608 4.90528 14.51636 7.45069l-.40771-.06812c6.28515-1.05713 12.58618-2.01465 18.88672-2.97607 6.29736-.9795 12.60546-1.89331 18.918-2.77954l-.10083.6333c-2.45922-1.30469-4.90161-2.64234-7.37475-3.92017-2.47168-1.28076-4.92749-2.59228-7.42188-3.82861-2.48559-1.25342-4.969-2.51123-7.47729-3.72095l-7.50391-3.6687.29151.04761c-6.113 1.08032-12.21045 1.88549-18.38745 2.719l-9.36426 1.22388z"/><path d="M304.832 237.54979a40.79488 40.79488 0 014.0835-.69336c1.2998.207 2.60547.37207 3.908.56006l7.81933 1.09595 7.81909 1.09619 3.90967.54785c1.25074.55615 2.50318 1.10156 3.73731 1.7771-1.37232.3103-2.72632.49024-4.08179.68115l-3.90967-.54785-7.81933-1.09595-7.8191-1.09619c-1.30395-.177-2.60473-.37744-3.91137-.53564A40.81351 40.81351 0 01304.832 237.54979zM203.24509 240.56932l18.37646-3.1831c6.25928-1.06543 12.5979-2.15894 18.92115-2.9773l.02026-.00268a.44719.44719 0 01.27173.05029l7.35229 3.96387c2.44409 1.33471 4.91284 2.62109 7.37915 3.91162 2.45777 1.3081 4.9541 2.54077 7.43457 3.80395 2.479 1.26661 4.98877 2.47315 7.48169 3.71265a.33588.33588 0 01-.08813.6311l-.0127.00245c-6.2727 1.13427-12.5498 2.241-18.8374 3.282-6.28467 1.05932-12.56885 2.12256-18.8689 3.08594l-.0061.001a.64176.64176 0 01-.40186-.06909c-4.96508-2.66479-9.88281-5.44873-14.74975-8.18018C212.685 245.84618 207.92893 243.15087 203.24509 240.56932zm.12256.021c5.07153 2.62866 10.0708 5.1438 14.99365 7.59839 4.88818 2.479 9.72607 4.90527 14.51636 7.45068l-.40772-.06811c6.28516-1.05713 12.58618-2.01465 18.88648-2.97608 6.2976-.97949 12.60571-1.89331 18.91821-2.77954l-.10083.6333c-2.45923-1.30469-4.90161-2.64233-7.37476-3.92016-2.47168-1.28077-4.92749-2.59229-7.42187-3.82862-2.4856-1.25341-4.969-2.51123-7.4773-3.72094l-7.5039-3.66871.2915.04761c-6.113 1.08032-12.21045 1.8855-18.38745 2.719l-9.36426 1.22387z"/><path d="M248.698 238.98q3.37939-.69068 6.77075-1.30249c2.26294-.3938 4.52-.82642 6.78809-1.188 4.53442-.73315 9.06128-1.51538 13.6167-2.11011l.02392-.00293a.46725.46725 0 01.28613.05347l7.32862 4.01074c2.44165 1.33887 4.91113 2.624 7.38305 3.904 2.48462 1.25562 4.96924 2.51123 7.4795 3.71705l7.51342 3.65039a.48812.48812 0 01-.12719.91943l-.01953.00342-9.42041 1.63037c-3.14087.53808-6.28272 1.06958-9.43018 1.56811-3.14868.49-6.29688.98169-9.45313 1.42408-3.15551.448-6.30688.92065-9.46923 1.32519l-.02173.00269a.35164.35164 0 01-.21826-.04273q-4.02906-2.28-8.01636-4.63794a.06216.06216 0 01.05835-.10962q4.18286 1.9911 8.31689 4.075l-.23974-.04c3.13012-.605 6.27148-1.14185 9.40844-1.70337 3.13648-.56714 6.28052-1.08472 9.42456-1.6045 3.14527-.51074 6.2959-.98852 9.44751-1.46l9.45752-1.39819-.147.92285-7.34277-3.98242c-2.4419-1.33862-4.90967-2.62744-7.3772-3.91626-2.48-1.26416-4.96289-2.52344-7.47314-3.72876l-7.52784-3.62256.30957.05054c-4.52539.7915-9.07959 1.395-13.62622 2.04785-2.27246.33154-4.5559.5918-6.83349.89111q-3.41859.431-6.85083.77637a.0622.0622 0 01-.0188-.1228zM402.08519 178.9285c-.52 1.47022-1.11011 2.91016-1.7002 4.3501l-2.34985 3.96-4.51 7.62012h-1.74l.27-.4502 4.68994-7.92993 2.34986-3.97C400.07494 181.30863 401.04515 180.09867 402.08519 178.9285zM391.10521 183.90848l-.56006 4.90015-.68994 6.05H388.345l.7102-6.22022.55-4.8999c.40991-1.60986.80981-3.22 1.30981-4.81006C391.03514 180.59867 391.07494 182.24857 391.10521 183.90848zM384.91507 194.85862h.95l-.53-3.71-.43-2.98-.66-4.68c-.45-1.52-.89-3.05-1.42-4.56-.07 1.31-.09 2.61-.08 3.91v.87l.19 1.29.49 3.38.93 6.48zM381.7451 194.85868h-1.51l-.93994-6.48-.66992-4.67017c-.01025-1.58984-.01025-3.17993.07983-4.78.53 1.51025.97 3.04 1.42017 4.56006l.65991 4.68017.63989 4.46z"/><path d="M382.935 184.11869v.87988l-.01 3.72v6.14014h-1.5v-10.74c.22-1.53.44-3.06006.75-4.6001.22 1.11011.41016 2.22.57007 3.32007C382.81517 183.26859 382.87523 183.68875 382.935 184.11869zM387.55516 184.88846l-.52 4.57007-.61011 5.40015h-1.51l.42017-3.71.21-1.86011.51-4.57007c.38989-1.5.78-3 1.26-4.48C387.45506 181.78861 387.50511 183.33866 387.55516 184.88846zM377.115 200.97855v5.40015c.26025-.03.52-.05.78-.08008l2.25-5.05C379.135 201.1785 378.12523 201.09867 377.115 200.97855zm3.31.36011l-2.40991 4.95c1.45-.15015 2.90991-.25 4.36011-.31006zm.32007-.05l2.06006 4.43994 1.63989-4.2898C383.21507 201.41873 381.97508 201.35868 380.7451 201.28861zm4.22.58008l-1.68994 4.07983c1.06983-.04 2.12988-.06006 3.2-.06982zm2.12989-.39014c-.52-.01-1.04981-.02-1.56983-.02l1.53 3.77 1.3-3.77C387.935 201.46854 387.51512 201.46854 387.095 201.47855zm1.93017.95l-1.31006 3.4502c.84009.00976 1.67993.02 2.52.0498C389.81517 204.75858 389.415 203.59867 389.02513 202.4285zm.7-.98975c.42993 1.19.84009 2.37989 1.24 3.56983.54-1.23 1.07007-2.45 1.62012-3.66992C391.635 201.38846 390.685 201.41873 389.72508 201.43875zm3.41992.46c-.5 1.35986-1.01977 2.71-1.53979 4.06982 1.1499.04 2.2998.11011 3.43994.21C394.385 204.75858 393.76512 203.33866 393.145 201.89872zm-16.03-7.04v6.11987a85.43881 85.43881 0 019.98-.5c.6101 0 1.22021.01 1.83007.02a.495.495 0 01.27 0c1.28.02 2.55.07007 3.82007.13989a.36426.36426 0 01.09986-.01977.40165.40165 0 01.15014.03c1.27.07983 2.54.17993 3.80982.32983v-6.11987zm2.33007 4.47a1.50082 1.50082 0 010-3A1.50082 1.50082 0 01379.44505 199.32865zm5.39991 0a1.50082 1.50082 0 010-3A1.50082 1.50082 0 01384.845 199.32865zm5.22021-.17993a1.50082 1.50082 0 010-3A1.50082 1.50082 0 01390.06517 199.14872zm5.12988.17993a1.50082 1.50082 0 010-3A1.50082 1.50082 0 01395.19505 199.32865zm-1.60986 1.95c.55981 1.62988 1.09985 3.26 1.59985 4.91015.63013.05982 1.26.10987 1.8899.19v-5.40015C395.915 201.10868 394.75511 201.20853 393.58519 201.2786zm-13.16016.06006l-2.40991 4.95c1.45-.15015 2.90991-.25 4.36011-.31006zm.32007-.05l2.06006 4.43994 1.63989-4.2898C383.21507 201.41873 381.97508 201.35868 380.7451 201.28861zm4.22.58008l-1.68994 4.07983c1.06983-.04 2.12988-.06006 3.2-.06982zm2.12989-.39014c-.52-.01-1.04981-.02-1.56983-.02l1.53 3.77 1.3-3.77C387.935 201.46854 387.51512 201.46854 387.095 201.47855zm1.93017.95l-1.31006 3.4502c.84009.00976 1.67993.02 2.52.0498C389.81517 204.75858 389.415 203.59867 389.02513 202.4285zm.7-.98975c.42993 1.19.84009 2.37989 1.24 3.56983.54-1.23 1.07007-2.45 1.62012-3.66992C391.635 201.38846 390.685 201.41873 389.72508 201.43875zm3.41992.46c-.5 1.35986-1.01977 2.71-1.53979 4.06982 1.1499.04 2.2998.11011 3.43994.21C394.385 204.75858 393.76512 203.33866 393.145 201.89872zm-12.72-.56006l-2.40991 4.95c1.45-.15015 2.90991-.25 4.36011-.31006zm.32007-.05l2.06006 4.43994 1.63989-4.2898C383.21507 201.41873 381.97508 201.35868 380.7451 201.28861zm4.22.58008l-1.68994 4.07983c1.06983-.04 2.12988-.06006 3.2-.06982zm2.12989-.39014c-.52-.01-1.04981-.02-1.56983-.02l1.53 3.77 1.3-3.77C387.935 201.46854 387.51512 201.46854 387.095 201.47855zm1.93017.95l-1.31006 3.4502c.84009.00976 1.67993.02 2.52.0498C389.81517 204.75858 389.415 203.59867 389.02513 202.4285zm.7-.98975c.42993 1.19.84009 2.37989 1.24 3.56983.54-1.23 1.07007-2.45 1.62012-3.66992C391.635 201.38846 390.685 201.41873 389.72508 201.43875zm3.41992.46c-.5 1.35986-1.01977 2.71-1.53979 4.06982 1.1499.04 2.2998.11011 3.43994.21C394.385 204.75858 393.76512 203.33866 393.145 201.89872zm-16.03 10.32983v1.24a9.98 9.98 0 0019.96 0v-1.24a99.85 99.85 0 01-19.96 0zm14.06-5.42993a.48159.48159 0 01-.43994.05.61312.61312 0 01-.06006-.04c-1.18994.04-2.38989.06006-3.58007.07007a90.04955 90.04955 0 01-9.98-.5v5.84985a99.85 99.85 0 0119.96 0V206.3787C395.10521 206.60868 393.145 206.72855 391.175 206.79862zm-11.28 4.05a1.50082 1.50082 0 010-3A1.50082 1.50082 0 01379.895 210.84867zm4.59009-.09009a1.50082 1.50082 0 010-3A1.50082 1.50082 0 01384.48509 210.75858zm5.04 0a1.50082 1.50082 0 010-3A1.50082 1.50082 0 01389.52513 210.75858zm5.04-.17993a1.50082 1.50082 0 010-3A1.50082 1.50082 0 01394.56517 210.57865zm.48-4.40015c-.66016-1.41992-1.28-2.83984-1.90015-4.27978-.5 1.35986-1.01977 2.71-1.53979 4.06982C392.75511 206.00858 393.905 206.07865 395.04515 206.1785zm-2.46-4.83984c-.9502.0498-1.90015.08007-2.86011.10009.42993 1.19.84009 2.37989 1.24 3.56983C391.50511 203.7786 392.03514 202.55863 392.58519 201.33866zm-2.3501 4.58984c-.41992-1.16992-.82007-2.32983-1.21-3.5l-1.31006 3.4502C388.55516 205.88846 389.395 205.89872 390.23509 205.9285zm-1.87988-4.47c-.42017.01-.84009.01-1.26025.02-.52-.01-1.04981-.02-1.56983-.02l1.53 3.77zm-1.88013 4.42017l-1.51-4.01-1.68994 4.07983C384.345 205.90848 385.405 205.88846 386.47508 205.8787zm-2.03-4.44c-1.23-.02-2.47-.08007-3.7-.15014l2.06006 4.43994zm-4.02-.10009l-2.40991 4.95c1.45-.15015 2.90991-.25 4.36011-.31006zm12.72.56006c-.5 1.35986-1.01977 2.71-1.53979 4.06982 1.1499.04 2.2998.11011 3.43994.21C394.385 204.75858 393.76512 203.33866 393.145 201.89872zm-3.41992-.46c.42993 1.19.84009 2.37989 1.24 3.56983.54-1.23 1.07007-2.45 1.62012-3.66992C391.635 201.38846 390.685 201.41873 389.72508 201.43875zm-.7.98975l-1.31006 3.4502c.84009.00976 1.67993.02 2.52.0498C389.81517 204.75858 389.415 203.59867 389.02513 202.4285zm-1.93017-.95c-.52-.01-1.04981-.02-1.56983-.02l1.53 3.77 1.3-3.77C387.935 201.46854 387.51512 201.46854 387.095 201.47855zm-2.12989.39014l-1.68994 4.07983c1.06983-.04 2.12988-.06006 3.2-.06982zm-4.22-.58008l2.06006 4.43994 1.63989-4.2898C383.21507 201.41873 381.97508 201.35868 380.7451 201.28861zm-.32007.05l-2.40991 4.95c1.45-.15015 2.90991-.25 4.36011-.31006zm12.72.56006c-.5 1.35986-1.01977 2.71-1.53979 4.06982 1.1499.04 2.2998.11011 3.43994.21C394.385 204.75858 393.76512 203.33866 393.145 201.89872zm-3.41992-.46c.42993 1.19.84009 2.37989 1.24 3.56983.54-1.23 1.07007-2.45 1.62012-3.66992C391.635 201.38846 390.685 201.41873 389.72508 201.43875zm-.7.98975l-1.31006 3.4502c.84009.00976 1.67993.02 2.52.0498C389.81517 204.75858 389.415 203.59867 389.02513 202.4285zm-1.93017-.95c-.52-.01-1.04981-.02-1.56983-.02l1.53 3.77 1.3-3.77C387.935 201.46854 387.51512 201.46854 387.095 201.47855zm-2.12989.39014l-1.68994 4.07983c1.06983-.04 2.12988-.06006 3.2-.06982zm-4.22-.58008l2.06006 4.43994 1.63989-4.2898C383.21507 201.41873 381.97508 201.35868 380.7451 201.28861zm-.32007.05l-2.40991 4.95c1.45-.15015 2.90991-.25 4.36011-.31006zM214.6738 365.39647c.18555 2.46924.28052 4.93848.41113 7.408.13623 2.46924.19776 4.93848.28687 7.408.05615 2.46924.14721 4.93848.17431 7.408.03174 2.46924.095 4.93872.09546 7.408l-.71191-.93311 6.95874 1.87769-.49732-.00733 6.93433-1.644-.73145.93018c.06031-4.583.144-9.166.28907-13.749.0874-2.2915.15185-4.583.28174-6.87451.11962-2.2915.21386-4.583.38647-6.87427.17261 2.29126.26685 4.58277.38647 6.87427.12989 2.29151.19434 4.583.28174 6.87451.145 4.583.22876 9.166.28907 13.749a.94186.94186 0 01-.71387.92627l-.01782.00415-6.91651 1.71679a.99085.99085 0 01-.49756-.00732l-6.94433-1.92993a.97379.97379 0 01-.71216-.93335c.00049-2.46924.06372-4.93872.09546-7.408.0271-2.46948.11816-4.93872.17431-7.408.08912-2.46948.15064-4.93872.28687-7.408C214.39353 370.335 214.4885 367.86571 214.6738 365.39647z"/><path d="M221.61252 367.63866c.49023 4.88184.60449 9.76416.62671 14.64648-.01514 4.88233-.12476 9.76465-.61353 14.64722-.49316-4.88208-.60717-9.7644-.62671-14.64673C221.01682 377.40331 221.12668 372.521 221.61252 367.63866zM151.13034 332.417c.19605 2.46924.29151 4.93872.4314 7.408.12622 2.46924.21264 4.93872.28784 7.408.14331 4.93872.24146 9.87744.25684 14.81592l-.71827-.94117c2.32129.62037 4.64307 1.23828 6.95386 1.896l-.49194-.00708c2.31274-.54321 4.61987-1.10815 6.94067-1.61792l-.70263.89355c.03979-1.9812.05078-3.9624.1145-5.9436.06128-1.9812.09448-3.9624.18091-5.9436.06958-1.9812.1521-3.9624.26831-5.94361.106-1.9812.19921-3.9624.356-5.9436.1565 1.9812.24976 3.9624.356 5.9436.116 1.98121.19849 3.96241.26807 5.94361.08642 1.9812.11963 3.9624.1809 5.9436.06373 1.9812.07471 3.9624.11475 5.9436a.89641.89641 0 01-.665.884l-.03808.01c-2.29615.61035-4.60572 1.16577-6.91016 1.74292a.9508.9508 0 01-.47144-.00147l-.02075-.00561c-2.32348-.61157-4.636-1.2627-6.94946-1.91162l-.00855-.00245a.97334.97334 0 01-.70971-.9392c.01538-4.93848.11352-9.8772.25683-14.81592.0752-2.46924.16162-4.93872.28785-7.408C150.83884 337.3557 150.9343 334.88622 151.13034 332.417z"/><path d="M158.06906 334.65917c.49024 4.88208.60449 9.76416.62671 14.64648-.01538 4.88233-.125 9.76465-.61377 14.64722-.49316-4.88208-.60693-9.76441-.62671-14.64649C157.47312 344.42406 157.58322 339.54174 158.06906 334.65917zM316.44919 354.82152c.16724 2.19531.26123 4.39038.37622 6.58569.12549 2.19532.1958 4.39039.27734 6.5857.14649 4.39038.23365 8.78076.29175 13.17138l-.52124-.84472 6.27564 3.1001-.70606-.07007c2.45093-.697 4.91919-1.33008 7.37793-1.99829l-.71264.93408c.001-2.42261.0603-4.845.094-7.26758.02661-2.42261.11694-4.845.17407-7.26758.0874-2.42236.1521-4.845.28711-7.26733.13184-2.42261.22681-4.84522.41358-7.26758.18676 2.42236.28173 4.845.41357 7.26758.135 2.42236.19971 4.845.28711 7.26733.05713 2.42261.14746 4.845.17407 7.26758.03369 2.42261.09326 4.845.094 7.26758a.97249.97249 0 01-.7129.93432c-2.45605.678-4.90258 1.39112-7.36645 2.04029l-.01563.00415a.97384.97384 0 01-.69067-.07422l-6.23486-3.18066-.0166-.00855a.92686.92686 0 01-.50464-.83643c.0581-4.39062.14526-8.781.2915-13.17138.08179-2.19531.1521-4.39038.27734-6.5857C316.188 359.2119 316.282 357.01683 316.44919 354.82152z"/><path d="M323.26291 354.01293c.395 5.05761.41406 10.1084.34082 15.15747-.11035 5.04834-.31519 10.095-.89917 15.13452-.398-5.05762-.4165-10.1084-.34082-15.15747C322.47678 364.09935 322.6821 359.05272 323.26291 354.01293zM397.08688 303.66918a8.46284 8.46284 0 01-2.876-.68286 19.16209 19.16209 0 01-7.1189-5.01539 20.77757 20.77757 0 012.64453 1.23438c.85205.44409 1.668.93652 2.48975 1.41479.80762.50367 1.62231.98633 2.42017 1.50538C395.45529 302.62987 396.24 303.16063 397.08688 303.66918zM192.655 186.22855a19.27968 19.27968 0 002.88013 3.65015 6.73328 6.73328 0 01-3.23-.7002 4.57485 4.57485 0 01-1.77-1.61987 4.6751 4.6751 0 01-.67993-2.31006 6.64767 6.64767 0 01.75977-3.21A18.90891 18.90891 0 00192.655 186.22855zM196.30516 186.66873a6.58828 6.58828 0 01-.77 3.21 18.90344 18.90344 0 00-2.04-4.19 19.59348 19.59348 0 00-2.88012-3.65014 6.59554 6.59554 0 013.22021.71 4.65809 4.65809 0 011.77979 1.61011A4.55 4.55 0 01196.30516 186.66873zM189.98509 195.76859a18.94058 18.94058 0 002.89014 3.65014 6.705 6.705 0 01-3.23023-.70019 4.60964 4.60964 0 01-1.78-1.61987 4.67761 4.67761 0 01-.67994-2.31006 6.64787 6.64787 0 01.76-3.21A19.35835 19.35835 0 00189.98509 195.76859zM193.635 196.20853a6.67161 6.67161 0 01-.75976 3.2102 19.85669 19.85669 0 00-2.04-4.19018 19.6557 19.6557 0 00-2.89014-3.6499 6.566 6.566 0 013.22.71 4.467 4.467 0 012.47 3.91992zM186.97508 206.26859a19.25848 19.25848 0 002.8899 3.65014 6.58035 6.58035 0 01-3.23-.7102 4.509 4.509 0 01-1.77978-1.60986 4.67528 4.67528 0 01-.68018-2.31006 6.62377 6.62377 0 01.76-3.21A19.35835 19.35835 0 00186.97508 206.26859z"/><path d="M190.62523 206.69852a6.6843 6.6843 0 01-.76025 3.22021 19.38109 19.38109 0 00-2.04981-4.19018 19.59913 19.59913 0 00-2.88013-3.6499 6.56536 6.56536 0 013.22.71 4.65514 4.65514 0 011.78 1.61011A4.5428 4.5428 0 01190.62523 206.69852zM185.50511 217.44852a19.39581 19.39581 0 002.88989 3.66016 6.58068 6.58068 0 01-3.23-.71 4.51471 4.51471 0 01-2.46-3.92017 6.73911 6.73911 0 01.76-3.21A19.75194 19.75194 0 00185.50511 217.44852z"/><path d="M189.155 217.88846a6.56645 6.56645 0 01-.76 3.22022 21.54111 21.54111 0 00-4.92993-7.84009 6.56607 6.56607 0 013.22.71 4.51012 4.51012 0 011.78 1.61011A4.41872 4.41872 0 01189.155 217.88846zM185.06615 224.28153a6.65765 6.65765 0 013.22217.70874 4.60646 4.60646 0 011.78076 1.6145 4.5326 4.5326 0 01.68921 2.30054 6.60925 6.60925 0 01-.76563 3.21484 6.60953 6.60953 0 01-3.229-.70435 4.533 4.533 0 01-1.77393-1.61889 4.60486 4.60486 0 01-.68213-2.30493A6.65471 6.65471 0 01185.06615 224.28153zM199.345 189.16873a30.32873 30.32873 0 00-3.85987 2.17994 7.72011 7.72011 0 011.1499-2.98 4.26446 4.26446 0 011.61011-1.44019 3.87312 3.87312 0 012.04-.37988 12.12733 12.12733 0 013.02.7z"/><path d="M202.7451 190.56864a4.29 4.29 0 01-4.28 2.13989 5.73887 5.73887 0 01-2.98-1.35986 10.29244 10.29244 0 002.22-.45 16.29769 16.29769 0 002.09009-.83008 12.47572 12.47572 0 001.92993-1.18018 6.32965 6.32965 0 001.58008-1.63989A4.60476 4.60476 0 01202.7451 190.56864zM197.78514 198.16873c-1.65015.59986-3.33008 1.12989-5.02 1.83985a9.23158 9.23158 0 012.02-2.85986 6.27267 6.27267 0 012.15991-1.33008 5.6633 5.6633 0 012.37989-.32007 21.82271 21.82271 0 013.30029.59009A29.31788 29.31788 0 01197.78514 198.16873z"/><path d="M201.4951 199.68875a5.76249 5.76249 0 01-5.51 2.00977 6.20386 6.20386 0 01-3.22-1.68994 11.76174 11.76174 0 002.72-.21 16.16816 16.16816 0 002.62989-.68994 12.45884 12.45884 0 002.48-1.16993 6.65912 6.65912 0 002.03027-1.85009A4.70885 4.70885 0 01201.4951 199.68875zM195.905 205.94852c-1.6499.6001-3.33007 1.13013-5.02 1.84009a9.08282 9.08282 0 012.03-2.86011 6.15018 6.15018 0 012.15015-1.32983 5.66328 5.66328 0 012.37988-.32007 21.82041 21.82041 0 013.3.59009A29.28719 29.28719 0 01195.905 205.94852z"/><path d="M199.615 207.46854a5.76179 5.76179 0 01-5.50977 2.01 6.20449 6.20449 0 01-3.22022-1.68994 11.76286 11.76286 0 002.72022-.21 16.15083 16.15083 0 002.62988-.69019 12.45094 12.45094 0 002.48-1.16992 6.65486 6.65486 0 002.03-1.84985A4.70735 4.70735 0 01199.615 207.46854zM194.32494 215.47855c-1.66993.76-3.41993 1.38013-5.16993 2.15991a9.83618 9.83618 0 012.03-2.96 7.25084 7.25084 0 012.13013-1.48975 6.39905 6.39905 0 012.31006-.54c.85986-.08008 1.73975.08984 3.28979-.12012a8.34966 8.34966 0 01-2.1499 1.72A20.60675 20.60675 0 01194.32494 215.47855z"/><path d="M199.20506 213.61869a5.39134 5.39134 0 01-.07007 1.05981 5.26629 5.26629 0 01-.77 1.81006 6.05646 6.05646 0 01-2.61988 2.18994 6.14988 6.14988 0 01-3.15014.49023 6.299 6.299 0 01-3.43995-1.53027 11.81981 11.81981 0 002.8501-.34985 15.03754 15.03754 0 002.73-.90015 10.29476 10.29476 0 002.49-1.50976 4.906 4.906 0 001.68994-2.3501 4.28325 4.28325 0 01.19019.54A4.898 4.898 0 01199.20506 213.61869zM189.115 229.02884a9.73224 9.73224 0 01.71264-3.20386 5.22783 5.22783 0 011.20581-1.78564 3.96929 3.96929 0 011.647-.90186 10.01447 10.01447 0 002.77759-.95874 4.29373 4.29373 0 01.41382.3501 4.53417 4.53417 0 01.32715.41748 4.00522 4.00522 0 01.39355.9253 4.23442 4.23442 0 01.03565 1.84912 4.93668 4.93668 0 01-1.532 2.73266 4.81162 4.81162 0 01-2.57984 1.22852A5.40372 5.40372 0 01189.115 229.02884zM198.78514 180.07865a22.19249 22.19249 0 00-1.17993 4.95 6.93874 6.93874 0 01-1.40015-3.15991 5.507 5.507 0 01.21-2.61011 5.32308 5.32308 0 011.44019-2.18994 7.01408 7.01408 0 013.0498-1.62012A22.48014 22.48014 0 00198.78514 180.07865z"/><path d="M202.095,181.21854a5.35541,5.35541,0,0,1-1.45,2.18018,6.932,6.932,0,0,1-3.03979,1.62988,23.55564,23.55564,0,0,0,2.11987-4.62988,22.327,22.327,0,0,0,1.17993-4.9502,6.97429,6.97429,0,0,1,1.41016,3.16016A5.38823,5.38823,0,0,1,202.095,181.21854Z"/><path fill="#fff" d="M185.06638 224.28148a19.33262 19.33262 0 012.88623 3.65357 19.10278 19.10278 0 012.04 4.1853 19.10652 19.10652 0 01-2.88623-3.65357A19.31247 19.31247 0 01185.06638 224.28148zM189.115 229.0288c1.21777-1.12183 2.46972-2.08448 3.61157-3.15015a14.1392 14.1392 0 001.60132-1.66309 5.96363 5.96363 0 001.13012-2.03686 3.62064 3.62064 0 01-.477 2.46411 7.50234 7.50234 0 01-1.57763 1.97119 11.25934 11.25934 0 01-2.009 1.45825A9.12035 9.12035 0 01189.115 229.0288z"/><path d="M183.82494,236.44852c.16015.31006.31.63013.4602.93994.16992.36011.34009.71021.51,1.07007.29981.63013.59985,1.25.88989,1.88013.26-.68994.53-1.37012.79-2.05.15991-.38989.32007-.79.48-1.17993.06006-.16993.13013-.33008.2-.5C186.04515,236.57865,184.935,236.5286,183.82494,236.44852Zm4.31,1.67017-.25976-.63013q-.13513.345-.27.68994c-.39014.99023-.78027,1.98-1.19019,2.96.98-.03979,1.96021-.06982,2.94019-.07983Zm3.17017-1.48023c-.48022,0-.9602.01026-1.45.02-.42017-.00976-.84009-.00976-1.27-.02l.10986.28027.41016,1.10987.88989,2.37012.96-2.55.45-1.21021Zm.84985,1.09009-.21-.59009-.22.63013-1.13012,3.3c.93017.01,1.8601.03,2.8.06982Zm.29-1.10986.3501,1.05,1.04981,3.16993,1.47021-3.41016.40991-.96C194.635,236.53861,193.53514,236.58866,192.44505,236.61869Zm3.89014.71-.31006-.76-.32007.81982-1.47,3.79c1.26.07007,2.53.18018,3.8.36011Zm-12.51025-.88013c.16015.31006.31.63013.4602.93994.16992.36011.34009.71021.51,1.07007.29981.63013.59985,1.25.88989,1.88013.26-.68994.53-1.37012.79-2.05.15991-.38989.32007-.79.48-1.17993.06006-.16993.13013-.33008.2-.5C186.04515,236.57865,184.935,236.5286,183.82494,236.44852Zm4.31,1.67017-.25976-.63013q-.13513.345-.27.68994c-.39014.99023-.78027,1.98-1.19019,2.96.98-.03979,1.96021-.06982,2.94019-.07983Zm3.17017-1.48023c-.48022,0-.9602.01026-1.45.02-.42017-.00976-.84009-.00976-1.27-.02l.10986.28027.41016,1.10987.88989,2.37012.96-2.55.45-1.21021Zm.84985,1.09009-.21-.59009-.22.63013-1.13012,3.3c.93017.01,1.8601.03,2.8.06982Zm.29-1.10986.3501,1.05,1.04981,3.16993,1.47021-3.41016.40991-.96C194.635,236.53861,193.53514,236.58866,192.44505,236.61869Zm3.89014.71-.31006-.76-.32007.81982-1.47,3.79c1.26.07007,2.53.18018,3.8.36011Zm-13.04-.44019c-.11011.21021-.23.43018-.34009.64014l.57007-.06006C183.44505,237.2786,183.37523,237.07865,183.29515,236.88846Zm.52979-.43994c.16015.31006.31.63013.4602.93994.16992.36011.34009.71021.51,1.07007.56006-.05981,1.11987-.11987,1.67993-.16992.15991-.38989.32007-.79.48-1.17993.06006-.16993.13013-.33008.2-.5C186.04515,236.57865,184.935,236.5286,183.82494,236.44852Zm4.05029,1.04q-.13513.345-.27.68994c.16992-.02.34985-.04.52978-.05981Zm1.98-.83008c-.42017-.00976-.84009-.00976-1.27-.02l.10986.28027c.87012-.09008,1.74-.19018,2.61011-.28027C190.82494,236.63846,190.345,236.64872,189.85521,236.65848Zm-11.41016-14.73975,2.22,14.23975c.84009-.10986,1.67994-.18994,2.51-.25976a.2952.2952,0,0,1,.27-.04l.02.02c1.41992-.1001,2.83008-.17017,4.24-.2002a.58421.58421,0,0,1,.32007,0c.60986-.00977,1.22-.02,1.83008-.02,2.52.01025,5.02978.07007,7.53979.31006.55.06006,1.11011.12012,1.66016.18994l.05982-.37988,2.15014-13.85987Zm3.53,13.40992a1.501,1.501,0,0,1,0-3A1.501,1.501,0,0,1,181.97508,235.32865Zm5.40015,0a1.501,1.501,0,0,1,0-3A1.50095,1.50095,0,0,1,187.37523,235.32865Zm5.21973-.17993a1.501,1.501,0,0,1,0-3A1.501,1.501,0,0,1,192.595,235.14872Zm5.13012.17993a1.501,1.501,0,0,1,0-3A1.501,1.501,0,0,1,197.72508,235.32865Zm-1.38989,2-.31006-.76-.32007.81982-1.47,3.79c1.26.07007,2.53.18018,3.8.36011Zm-3.89014-.71.3501,1.05,1.04981,3.16993,1.47021-3.41016.40991-.96C194.635,236.53861,193.53514,236.58866,192.44505,236.61869Zm-.29,1.10986-.21-.59009-.22.63013-1.13012,3.3c.93017.01,1.8601.03,2.8.06982Zm-.84985-1.09009c-.48022,0-.9602.01026-1.45.02-.42017-.00976-.84009-.00976-1.27-.02l.10986.28027.41016,1.10987.88989,2.37012.96-2.55.45-1.21021Zm-3.17017,1.48023-.25976-.63013q-.13513.345-.27.68994c-.39014.99023-.78027,1.98-1.19019,2.96.98-.03979,1.96021-.06982,2.94019-.07983Zm-4.31-1.67017c.16015.31006.31.63013.4602.93994.16992.36011.34009.71021.51,1.07007.29981.63013.59985,1.25.88989,1.88013.26-.68994.53-1.37012.79-2.05.15991-.38989.32007-.79.48-1.17993.06006-.16993.13013-.33008.2-.5C186.04515,236.57865,184.935,236.5286,183.82494,236.44852Zm12.51025.88013-.31006-.76-.32007.81982-1.47,3.79c1.26.07007,2.53.18018,3.8.36011Zm-3.89014-.71.3501,1.05,1.04981,3.16993,1.47021-3.41016.40991-.96C194.635,236.53861,193.53514,236.58866,192.44505,236.61869Zm-.29,1.10986-.21-.59009-.22.63013-1.13012,3.3c.93017.01,1.8601.03,2.8.06982Zm-.84985-1.09009c-.48022,0-.9602.01026-1.45.02-.42017-.00976-.84009-.00976-1.27-.02l.10986.28027.41016,1.10987.88989,2.37012.96-2.55.45-1.21021Zm-3.17017,1.48023-.25976-.63013q-.13513.345-.27.68994c-.39014.99023-.78027,1.98-1.19019,2.96.98-.03979,1.96021-.06982,2.94019-.07983Zm-4.31-1.67017c.16015.31006.31.63013.4602.93994.16992.36011.34009.71021.51,1.07007.29981.63013.59985,1.25.88989,1.88013.26-.68994.53-1.37012.79-2.05.15991-.38989.32007-.79.48-1.17993.06006-.16993.13013-.33008.2-.5C186.04515,236.57865,184.935,236.5286,183.82494,236.44852Zm7.48022.18994c-.87012.09009-1.74.19019-2.61011.28027l.41016,1.10987c.60986-.06006,1.23-.12012,1.84985-.17993l.45-1.21021Zm.63989.5-.22.63013c.1399-.01.29-.02.42993-.04Zm.5-.51977.3501,1.05,2.52-.24023.40991-.96C194.635,236.53861,193.53514,236.58866,192.44505,236.61869Zm3.58008-.05-.32007.81982q.31494-.02966.63013-.05981Zm.26-.14014.32007.88013,1.52978,4.23v.01a.2204.2204,0,0,1,.08008.01l.7-4.47.14014-.93018C198.12523,236.2786,197.20506,236.35868,196.28514,236.4285Zm1.84009,5.14014c0,.01,0,.03-.02.03a.04814.04814,0,0,1-.06006-.02,64.30325,64.30325,0,0,1-8.18994.48c-1.29-.01-2.58008-.04-3.87012-.1001a.45076.45076,0,0,1-.45.05.835.835,0,0,1-.12012-.08008c-1.3-.07983-2.60986-.18994-3.90991-.36987l.66992,4.3h15.37012l.66992-4.3A.27489.27489,0,0,0,198.12523,241.56864ZM185.385,245.47855a1.50082,1.50082,0,0,1,0-3A1.50082,1.50082,0,0,1,185.385,245.47855Zm5.04,0a1.50082,1.50082,0,0,1,0-3A1.50082,1.50082,0,0,1,190.425,245.47855Zm5.04-.17993a1.50082,1.50082,0,0,1,0-3A1.50082,1.50082,0,0,1,195.46507,245.29862Zm.87012-7.97-.31006-.76-.32007.81982-1.47,3.79c1.26.07007,2.53.18018,3.8.36011Zm-3.89014-.71.3501,1.05,1.04981,3.16993,1.47021-3.41016.40991-.96C194.635,236.53861,193.53514,236.58866,192.44505,236.61869Zm-.29,1.10986-.21-.59009-.22.63013-1.13012,3.3c.93017.01,1.8601.03,2.8.06982Zm-.84985-1.09009c-.48022,0-.9602.01026-1.45.02-.42017-.00976-.84009-.00976-1.27-.02l.10986.28027.41016,1.10987.88989,2.37012.96-2.55.45-1.21021Zm-3.17017,1.48023-.25976-.63013q-.13513.345-.27.68994c-.39014.99023-.78027,1.98-1.19019,2.96.98-.03979,1.96021-.06982,2.94019-.07983Zm-4.31-1.67017c.16015.31006.31.63013.4602.93994.16992.36011.34009.71021.51,1.07007.29981.63013.59985,1.25.88989,1.88013.26-.68994.53-1.37012.79-2.05.15991-.38989.32007-.79.48-1.17993.06006-.16993.13013-.33008.2-.5C186.04515,236.57865,184.935,236.5286,183.82494,236.44852Zm.13012,2.09009c-.13989-.34986-.29-.71-.42993-1.07007-.08008-.18994-.1499-.38989-.23-.58008-.11011.21021-.23.43018-.34009.64014-.2.39013-.40991.78-.61987,1.16992q-.46509.88514-.96,1.77a.03726.03726,0,0,1-.03027.01l.16015,1.08008c1.17993-.17017,2.37012-.27,3.55-.3501C184.69505,240.31864,184.32494,239.4285,183.95506,238.53861Zm.84009-.08008c.29981.63013.59985,1.25.88989,1.88013.26-.68994.53-1.37012.79-2.05C185.915,238.33866,185.35521,238.39872,184.79515,238.45853Zm3.33984-.33984c-.17993.01977-.35986.03979-.52978.05981-.39014.99023-.78027,1.98-1.19019,2.96.98-.03979,1.96021-.06982,2.94019-.07983Zm.97022-.09009.88989,2.37012.96-2.55C190.33519,237.90848,189.71507,237.96854,189.10521,238.0286Zm3.0498-.3c-.13989.02-.29.03-.42993.04l-1.13012,3.3c.93017.01,1.8601.03,2.8.06982Zm.64014-.05982,1.04981,3.16993,1.47021-3.41016Zm3.54-.34008q-.31494.03-.63013.05981l-1.47,3.79c1.26.07007,2.53.18018,3.8.36011ZM180.665,236.15848l.25,1.59009.15992,1.08008.24023,1.51c.21-.54.41992-1.07007.62988-1.6001.14991-.38989.31006-.77.47-1.1499.15992-.39991.32007-.8.49-1.2002C182.155,236.32865,181.415,236.24857,180.665,236.15848Z"/><path d="M191.24289,233.88451a6.2748,6.2748,0,0,1-1.78979-2.782c-.15723-.53394-.36109-1.06275-.481-1.6084l-.33838-1.64551a38.80117,38.80117,0,0,1-.25195-6.6814c.0393-2.23413.37329-4.4353.63208-6.6455.405-2.18213.717-4.38916,1.24682-6.54322.49707-2.16284.99414-4.32519,1.62232-6.45068.60522-2.13232,1.18652-4.27026,1.93237-6.35718.72119-2.09375,1.36841-4.21045,2.17041-6.27368.81152-2.0603,1.58179-4.13281,2.42725-6.17627-1.17627,4.269-2.53833,8.46607-3.6836,12.72608l-.89087,3.18334-.82006,3.2002c-.2649,1.06812-.58472,2.12329-.82276,3.197l-.72363,3.21826c-.54981,2.13282-.85938,4.30738-1.301,6.46021-.32422,2.16772-.66528,4.33716-.84057,6.51953a39.02036,39.02036,0,0,0-.09619,6.55151l.19433,1.62451c.072.54126.22608,1.06348.3357,1.60035A6.69909,6.69909,0,0,0,191.24289,233.88451Z"/><path fill="#fcfcfc" d="M181.33519,240.44852l-.02-.10986-.03.08984c-.01.02,0,.04.02.06006.01978.01.03,0,.0398-.01Z"/><path d="M216.72263 242.37523a92.13959 92.13959 0 019.96557-2.158 91.0676 91.0676 0 0110.12915-1.17212 91.06176 91.06176 0 01-9.96557 2.15821A92.07317 92.07317 0 01216.72263 242.37523zM256.41452 241.937a92.02 92.02 0 019.96558-2.158 91.00364 91.00364 0 0110.1289-1.17212 90.995 90.995 0 01-9.96557 2.158A92.12963 92.12963 0 01256.41452 241.937zM297.11472 234.88353a92.07991 92.07991 0 019.96557-2.158 91.00382 91.00382 0 0110.12891-1.17212 90.99 90.99 0 01-9.96558 2.158A92.12459 92.12459 0 01297.11472 234.88353zM467.07834 298.07347a22.8684 22.8684 0 01-5.44385-5.18652 49.40208 49.40208 0 01-4.19165-6.26392c-1.24292-2.18408-2.36621-4.43164-3.40185-6.71728-1.03638-2.29077-2.00318-4.59131-2.866-6.98023l.95019.59327a35.11629 35.11629 0 01-14.9331-1.29224 52.18172 52.18172 0 01-7.01392-2.61475A64.82038 64.82038 0 01423.55 266.198a91.80678 91.80678 0 01-12.13989-8.52955 115.18427 115.18427 0 01-10.78565-10.14868l-.01635-.01758a.69029.69029 0 01.01025-.94653c1.4563-1.50635 2.96387-2.90576 4.52685-4.26782 1.55445-1.36572 3.19532-2.63208 4.8711-3.84937a34.37919 34.37919 0 015.32861-3.21948 14.3707 14.3707 0 016.05518-1.66992.38132.38132 0 01.12109.01978c1.98633.6875 3.98926 1.325 5.98316 1.98974l5.988 1.97485c3.98609 1.33472 7.99854 2.59034 12.00318 3.86963l-.77051.41846 5.2522-21.98877q2.65686-10.98669 5.41186-21.94775l-.02368.11548a8.69293 8.69293 0 01.58789-1.82373c.22852-.54566.49927-1.05469.769-1.56543a24.65525 24.65525 0 011.886-2.82837 37.13662 37.13662 0 014.533-4.89234 65.88808 65.88808 0 0110.60058-7.77563 53.40051 53.40051 0 015.87207-3.04956 54.17 54.17 0 016.22364-2.24976A47.18993 47.18993 0 01498.894 171.874a46.04857 46.04857 0 0113.06128 1.74927 37.99264 37.99264 0 016.187 2.36767c.4917.25708.97022.542 1.45484.81177l.72388.4104.6892.47168c.4563.31861.92286.6211 1.36817.95313l1.28125 1.07251a22.14408 22.14408 0 016.82666 11.17968 33.89887 33.89887 0 01.35742 12.9668.12406.12406 0 01-.14111.10449.126.126 0 01-.10547-.1333 34.74584 34.74584 0 00-1.09546-12.66235 21.16467 21.16467 0 00-6.86255-10.25024l-1.23389-.95093c-.4292-.29273-.87939-.55738-1.31665-.83741l-.65966-.41479-.69654-.3562c-.46582-.23413-.9226-.48316-1.39355-.70557a37.11691 37.11691 0 00-5.91382-2.08545 43.87392 43.87392 0 00-12.48291-1.354 44.50028 44.50028 0 00-6.25317.63574 46.669 46.669 0 00-6.11988 1.42676 51.6129 51.6129 0 00-5.88623 2.20483 58.59061 58.59061 0 00-5.57373 2.90894 69.13234 69.13234 0 00-10.23535 7.41138 34.67024 34.67024 0 00-4.29687 4.50317 22.23945 22.23945 0 00-1.73023 2.51245c-.23755.43823-.47974.87549-.67285 1.32105a7.34993 7.34993 0 00-.44019 1.22949l-.02392.116q-2.87 10.93177-5.83277 21.8396l-5.99243 21.79859-.00512.0188a.58983.58983 0 01-.72535.41235l-.04028-.01245c-3.96338-1.40161-7.91895-2.8269-11.90112-4.1731l-5.96387-2.04638c-1.99023-.67554-3.97119-1.37867-5.969-2.0315l.12036.01953a13.64711 13.64711 0 00-5.7 1.63916 32.52136 32.52136 0 00-5.12012 3.2605 54.73705 54.73705 0 00-4.64746 3.95386c-1.4773 1.395-2.92285 2.85229-4.26123 4.353l-.00611-.96411a114.653 114.653 0 0010.9917 9.55761 112.12 112.12 0 0012.01343 8.16822c2.08936 1.21337 4.21753 2.354 6.408 3.35229a50.04479 50.04479 0 006.71753 2.582 34.46089 34.46089 0 0014.09155 1.57544l.03467-.00366a.86527.86527 0 01.91553.59692c.74292 2.3274 1.61963 4.65967 2.55249 6.94434.9353 2.28931 1.95849 4.5437 3.09863 6.73462a49.48951 49.48951 0 003.75122 6.37793 24.68945 24.68945 0 004.978 5.43359.12442.12442 0 01.02759.17359A.12728.12728 0 01467.07834 298.07347z"/></svg>