<svg xmlns="http://www.w3.org/2000/svg" data-name="Layer 1" viewBox="0 0 700 550"><path d="M290.11351,413.30516c-.55981,1.46009-1.11987,2.91016-1.67993,4.37012a31.86483,31.86483,0,0,1-8.31006-8.16c.8-2.93006,1.58008-5.72,2.3501-8.39a14.25359,14.25359,0,0,0,1.04,4.66,14.50755,14.50755,0,0,0,1.09985,2.15,13.76967,13.76967,0,0,0,1.42017,1.98A15.09225,15.09225,0,0,0,290.11351,413.30516Z"/><path d="M308.51366 415.73522c1.56982-.30994 3.13989-.6 4.68994-.95l-4.37988 8.63a32.709 32.709 0 01-20.39014-5.74l1.83008-4.29a18.98 18.98 0 003.90991 1.67993 26.74665 26.74665 0 004.75 1c.8.11011 1.6001.07007 2.40991.12012.8.01 1.61011.09 2.41016.02C305.33348 416.04528 306.93358 415.97533 308.51366 415.73522zM378.03368 420.14525c.21 2.48.3999 4.97.59985 7.45-6.96.31006-13.03.04-13.03.04 0-.63-.52978-3.45-1.40991-7.68994a56.06847 56.06847 0 008.78.48C374.66356 420.40526 376.3535 420.30516 378.03368 420.14525z"/><path d="M377.14354,410.07518q.43506,4.56006.82007,9.12012c-1.67017.18994-3.34009.34-5.02.47-1.44995.12-2.90991.17993-4.36011.21-1.46.07007-2.91992.07007-4.38989.07007-4.21-20.33008-16.40991-73.25-16.40991-73.25l-34.58008,68.09c-1.59009.13-3.16992.30993-4.74.47-1.58008.14-3.15991.11-4.74.18-.78.02-1.57007-.1001-2.3501-.13013-.77978-.05993-1.56982-.04992-2.33984-.17993a27.08061,27.08061,0,0,1-4.56006-1.01,19.86736,19.86736,0,0,1-3.84009-1.61l9.44019-22.18006c3.87988-9.11987,7.71972-18.25,11.67993-27.32995q5.81982-13.665,11.91992-27.21c2.03-4.52,4.1001-9.02,6.26-13.4701,1.09009-2.22,2.17993-4.45,3.3501-6.61987.58984-1.1001,1.18994-2.17,1.83984-3.23a18.72652,18.72652,0,0,1,2.15015-3.01,19.006,19.006,0,0,0-2.28,2.92993c-.68018,1.04-1.32007,2.1-1.93994,3.17993-1.24024,2.14014-2.40015,4.34009-3.56006,6.53-2.26,4.41-4.3999,8.88013-6.52,13.36011-4.21,8.98-8.18018,18.05994-12.14014,27.13989-3.87988,9.12012-7.73,18.25-11.47,27.43006q-4.52965,11.16009-8.8999,22.39a15.88338,15.88338,0,0,1-3.86011-3.01,16.4084,16.4084,0,0,1-4.12988-8.28v-.02c15.38989-53.78,23.51-56.81994,27.12012-74.94995a304.33949,304.33949,0,0,0,4.80981-32.41,5.38909,5.38909,0,0,0,3.92993,1.15s-.75,4.07007,3.17017,4.07007h5.74s-.75,3.16992,3.16992,3.0199c2.45-.09,4.18994-1.24,6.21-2.13a9.82221,9.82221,0,0,0,5.87012-9.05,24.47732,24.47732,0,0,0-.16016-2.48l2.74024-.5299c3.48974.30993,7.0498.48,10.60986.43994a347.49828,347.49828,0,0,0,5.10986,34.97009c1.14014,5.79993,2.53028,11.57,4.18018,17.26.77,2.84985,1.83984,5.65991,2.63989,8.47.92017,2.79,1.54,5.67993,2.24,8.54a351.08828,351.08828,0,0,1,5.46,34.97C376.01366,398.31517,376.59374,404.1953,377.14354,410.07518Z"/><path d="M397.69359,412.56517c-.61011.41016-1.21.82007-1.81006,1.24a16.67329,16.67329,0,0,1-1.8999,1.05c-.32007.17005-.63013.36011-.95.52l-1.01.41a18.2417,18.2417,0,0,1-2.01.78991c-.68994.2201-1.38013.44007-2.06006.67005l-2.1001.55c-.7.2-1.40991.31994-2.11987.47s-1.42017.30993-2.13989.4c-1.12012.2-2.25.36-3.38013.5-.5-8.95-1.23-17.88-2.13013-26.8a330.772,330.772,0,0,0-5.25976-35.11c-.71021-2.88-1.3501-5.77991-2.3-8.6-.84009-2.87-1.89014-5.59009-2.67993-8.45-1.68018-5.65015-3.0503-11.39014-4.3003-17.16-1.23974-5.77-2.31982-11.58-3.27978-17.41q-1.47-8.67-2.57007-17.4a78.90539,78.90539,0,0,0,12.33008-1.04993,10.06283,10.06283,0,0,0,8.38989-5.47C380.6035,324.18529,391.61351,371.01525,397.69359,412.56517Z"/><path d="M378.63353 427.5952q-.16479-3.735-.36987-7.48c1.16992-.12 2.33984-.26 3.5-.46a39.47511 39.47511 0 008.52-2.36 23.04343 23.04343 0 007.40991-4.73011q.61487 4.09516 1.13989 8.13013C399.48363 425.60521 388.22362 427.15526 378.63353 427.5952zM342.95248 113.51405s15.10218 16.00831 17.51853 16.00831c0 0-3.92657 4.53065-3.92657 6.947 0 0-15.40422-13.894-18.12261-19.33078z"/><path d="M342.23459 287.4115c2.156.11719 4.303.26526 6.45581.30408 2.15186.0415 4.29981.04968 6.44556-.00281 2.145-.058 4.28442-.18848 6.41308-.40711 2.12671-.23132 4.24976-.477 6.34961-.85986l.02906-.00537.10864-.005a8.79736 8.79736 0 004.23022-1.40734 9.786 9.786 0 003.13574-3.27588 19.35231 19.35231 0 002.418-9.05677 47.87123 47.87123 0 00-.55615-9.722c-.24145-1.61365-.5542-3.23352-.83447-4.869l-.78491-4.90063c-1.03858-6.53956-1.55469-13.13648-2.31348-19.68714-.76025-6.557-1.65332-13.09839-2.4707-19.64563q-2.45764-19.64208-5.32862-39.20752c-.96093-6.51928-1.96582-13.03308-3.2268-19.49316-.6062-3.23487-1.29712-6.45264-2.14185-9.62573-.20264-.79676-.42163-1.5868-.66357-2.37012-.21851-.793-.49366-1.56238-.76685-2.335a13.83783 13.83783 0 00-2.25464-4.30615l.13062-.13611a13.20282 13.20282 0 012.63867 4.2334c.3291.764.66089 1.52954.93408 2.31311.29419.77783.58032 1.55883.822 2.35205 1.00879 3.16235 1.86133 6.3684 2.62866 9.58972 1.48609 6.45422 2.72071 12.95752 3.802 19.481 2.147 13.05151 3.63159 26.18945 4.95581 39.33227.66357 6.57227 1.15283 13.16126 1.70727 19.74133l.86841 9.86438c.31006 3.27906.78 6.54346 1.37476 9.78321.56518 3.25793 1.3789 6.41638 2.05346 9.68945a46.76582 46.76582 0 011.00611 9.98254 19.4685 19.4685 0 01-2.57105 9.87867 10.90356 10.90356 0 01-8.81811 5.29687l.1372-.01038a64.07183 64.07183 0 01-6.49218.71753c-2.17212.12586-4.34668.16163-6.51563.12366q-3.25305-.04632-6.49023-.36047c-2.15625-.18982-4.303-.473-6.4375-.80652zM316.85764 282.45605c-1.89673-.44152-3.77808-.94726-5.65161-1.484-1.87525-.53931-3.73731-1.09839-5.58594-1.76892l-.40918-.14844.12012-.49073a40.41993 40.41993 0 00.71826-5.12768l.47632-5.26526.87231-10.55359c.5166-7.04358 1.21265-14.07507 1.94922-21.10486 1.57617-14.05224 2.46069-28.15869 3.23144-42.27661q.62256-10.58532 1.48682-21.15564c.56348-7.04907 1.15308-14.09631 2.04834-21.13061q.33178-2.638.74194-5.27893a30.27894 30.27894 0 011.241-5.28345 36.764 36.764 0 014.95679-9.58936 62.26883 62.26883 0 0115.31592-14.73986l.10864.15429a75.00874 75.00874 0 00-7.72461 7.18738 58.16808 58.16808 0 00-6.51685 8.20471 35.19663 35.19663 0 00-4.46582 9.30261 30.6166 30.6166 0 00-1.03759 5.05237q-.36695 2.60119-.66065 5.227c-.77368 7.00013-1.46875 14.02954-2.16455 21.05664l-2.03784 21.09607c-1.481 14.05823-2.72217 28.1377-3.35083 42.26514-.36988 7.05969-.79126 14.11707-1.491 21.15405l-1.06885 10.55652c-.187 1.76026-.425 3.51489-.67456 5.27161a39.3622 39.3622 0 01-1.00879 5.31982l-.28881-.63891c1.78247.71826 3.6018 1.41345 5.42089 2.08313 1.82447.66174 3.66162 1.2926 5.50147 1.92395z"/><path d="M336.00559 124.9917l6.344 7.154c2.10986 2.38086 4.21387 4.7627 6.37036 7.09253 2.134 2.35071 4.31592 4.65515 6.56885 6.88416a70.96726 70.96726 0 007.1145 6.32763 40.83338 40.83338 0 01-7.78467-5.60986c-1.22412-1.03882-2.34961-2.17737-3.51123-3.28113-1.11572-1.14648-2.23755-2.2893-3.31469-3.47095-2.15406-2.36438-4.23023-4.79626-6.19483-7.31616C339.62033 130.26367 337.74289 127.67517 336.00559 124.9917zM327.24631 142.51025a21.82944 21.82944 0 015.15137-1.61694 22.8217 22.8217 0 015.42724-.42737 15.99167 15.99167 0 015.377 1.12561 10.10262 10.10262 0 014.28125 3.33509 14.66753 14.66753 0 00-4.61573-2.41163c-.41992-.1029-.83594-.20971-1.24731-.32763-.41919-.09314-.85059-.14441-1.27344-.21924a11.60337 11.60337 0 00-1.28369-.15906 12.3331 12.3331 0 00-1.29468-.08655 37.1893 37.1893 0 00-5.23462.13965C330.781 142.021 329.02365 142.23853 327.24631 142.51025zM322.71555 260.30725c1.94507.74378 3.88354 1.43713 5.83081 2.08276 1.95263.62635 3.90722 1.22608 5.894 1.67444a44.42043 44.42043 0 006.01025.97766 29.68089 29.68089 0 006.12647-.20422 17.07006 17.07006 0 01-6.15869 1.18567 28.2425 28.2425 0 01-6.26319-.73413 36.24159 36.24159 0 01-5.95581-1.98474A30.34238 30.34238 0 01322.71555 260.30725zM362.88735 189.06269a.94445.94445 0 000-1.88777.94445.94445 0 000 1.88777zM366.51188 216.54865a.94445.94445 0 000-1.88777.94445.94445 0 000 1.88777zM369.83435 237.6917a.94445.94445 0 000-1.88777.94445.94445 0 000 1.88777zM373.76092 263.3654a.94445.94445 0 000-1.88777.94445.94445 0 000 1.88777zM343.76535 273.74377a31.97951 31.97951 0 01.62744 3.48743 18.69717 18.69717 0 01.14624 3.57483 7.06142 7.06142 0 01-.324 1.83093c-.21777.62512-.44409 1.08362-.62549 1.64978a17.07987 17.07987 0 00-.85791 3.29493l-.00073-.1388c.20068 1.10742.20727 2.24707.31445 3.37354a9.80541 9.80541 0 01-.56738 3.44653 10.02957 10.02957 0 01-4.365 5.25623 12.94362 12.94362 0 01-1.541.7445l-1.51465.66077a15.14285 15.14285 0 01-3.18725 1.09607 6.34608 6.34608 0 01-3.38941-.1344 2.3118 2.3118 0 01-1.28125-1.21106 3.05257 3.05257 0 01-.17089-1.76062l.21484.27185c-1.96558-.00147-3.91235.09412-5.89331.11511a3.3674 3.3674 0 01-2.89185-1.33069 4.59145 4.59145 0 01-.61792-3.16626l.50611.59217a8.263 8.263 0 01-2.22388-.17823 4.71751 4.71751 0 01-2.09961-1.04187 4.351 4.351 0 01-1.25781-2.033 5.70546 5.70546 0 01-.17334-2.34655l.37475.68274a15.30369 15.30369 0 01-2.04565-.99353 4.51957 4.51957 0 01-1.80078-1.76905 2.09118 2.09118 0 01-.0896-1.54675 2.962 2.962 0 01.78564-1.16394 4.0516 4.0516 0 012.34375-1.03345 6.4984 6.4984 0 003.62769-1.37048 4.96375 4.96375 0 001.69116-3.33716l.00317.05835-.08862-1.89246c.01953-.6333.0376-1.26684.07886-1.89807a14.33314 14.33314 0 01.85791-3.70691 9.85325 9.85325 0 011.97949-3.23425 7.47752 7.47752 0 013.12549-2.05688l.03711.12024a7.60433 7.60433 0 00-2.80249 2.248 10.01643 10.01643 0 00-1.64258 3.16822 14.382 14.382 0 00-.59351 3.53088c-.01489.60022-.00805 1.20251-.0039 1.80212l.15552 1.802.00366.04272-.00049.016a6.03229 6.03229 0 01-1.96338 4.29 7.78935 7.78935 0 01-4.32568 1.7572 2.736 2.736 0 00-1.56714.67591 1.66805 1.66805 0 00-.43115.60864.7315.7315 0 00.03711.56787 3.37507 3.37507 0 001.26464 1.22534 14.11789 14.11789 0 001.83765.94031l.44873.2-.07373.48315a4.57439 4.57439 0 00.10107 1.80359 3.17358 3.17358 0 00.87842 1.50574 5.09049 5.09049 0 003.52564 1.0708l.603-.00574-.09667.598a3.88917 3.88917 0 00.35351 2.51062 2.58609 2.58609 0 002.19019 1.113c.95947.04419 1.95532.05518 2.93115.08435.98047.0304 1.96118.04517 2.94165.05l.26807.00122-.05274.27076a2.6464 2.6464 0 00.11865 1.4967 1.90932 1.90932 0 001.05078 1.0227 5.714 5.714 0 003.15259.06116 12.43978 12.43978 0 003.0188-1.21106c.96826-.53674 2.02124-.96777 2.88452-1.54834a9.78689 9.78689 0 003.73828-4.94189 9.92364 9.92364 0 00.51856-3.06836c-.08032-1.07666-.05493-2.1615-.22461-3.23926l-.01172-.07483.011-.06445a17.86693 17.86693 0 01.99487-3.49451c.20825-.54394.52734-1.13147.72021-1.60718a6.311 6.311 0 00.37891-1.61132 23.76258 23.76258 0 00.1001-3.46582c-.04126-1.167-.14258-2.33619-.26782-3.50293z"/><path d="M313.20114 289.5929l2.687.07861a6.85884 6.85884 0 002.59864-.233 5.71377 5.71377 0 002.23608-1.35144l1.99268-1.80408-1.88379 1.91748a5.95083 5.95083 0 01-2.24072 1.53491 7.24861 7.24861 0 01-2.70289.40808l-2.687.07862zM318.33591 294.57654l2.8208.0697a5.48154 5.48154 0 002.60327-.74695 8.13718 8.13718 0 002.04565-1.88147l1.89356-2.11035-1.77368 2.212a8.35549 8.35549 0 01-1.999 2.04675 5.8757 5.8757 0 01-2.74292.95117l-2.84765.08838zM327.17233 298.663c.84131-.19152 1.74732-.33349 2.5354-.56555a5.51545 5.51545 0 002.144-1.30871 9.49384 9.49384 0 001.46435-2.12561l1.33008-2.2638-1.19214 2.33936a9.71466 9.71466 0 01-1.37427 2.267 5.90948 5.90948 0 01-2.21167 1.53564c-.875.31287-1.697.48425-2.54809.7334zM335.09935 268.80218a.94445.94445 0 000-1.88777.94445.94445 0 000 1.88777zM351.36716 232.76025a42.47625 42.47625 0 005.29858-1.47509 14.2496 14.2496 0 002.39331-1.15027 2.97578 2.97578 0 001.46192-1.72852l.94189-4.96814.17725 5.06714c.13061 3.74194-.25635 7.49036-.18408 11.23108.03149 3.74121.39892 7.47913.4812 11.22363l.09057 5.62049-.01611 1.40771a13.17273 13.17273 0 01-.064 1.47571 5.53256 5.53256 0 01-1.302 2.85071 5.4011 5.4011 0 01-2.63891 1.6261 15.56816 15.56816 0 01-2.86841.41858 9.78388 9.78388 0 01-2.8938-.23255 3.6112 3.6112 0 01-2.32105-1.67139l.10621-.06774a3.435 3.435 0 002.32861 1.19067 9.23463 9.23463 0 002.69409-.07654 20.35754 20.35754 0 002.645-.59253 4.40762 4.40762 0 002.91846-3.619c.04443-.37585.04223-.8601.053-1.32568l.02295-1.39783.116-5.6029c.05689-3.7378.34107-7.48181.269-11.22217-.03321-3.74085-.54639-7.47376-.56666-11.21265l1.1189.099a3.93955 3.93955 0 01-2.021 2.40064 11.9361 11.9361 0 01-2.677 1.07446 22.57144 22.57144 0 01-5.55127.78223zM369.45676 195.6554a10.75771 10.75771 0 014.15747-4.96412 21.9756 21.9756 0 002.762-1.45349 24.52043 24.52043 0 002.4126-1.93322q1.207-1.0146 2.34961-2.09.57752-.52973 1.11938-1.08765l.52954-.56482c.16211-.18261.34473-.38354.57349-.60949a3.63818 3.63818 0 013.31787-.887A3.293 3.293 0 01389.052 184.23a3.18683 3.18683 0 00-2.47583-1.55591 3.01727 3.01727 0 00-2.51733.96936c-.13477.16126-.29419.36646-.46362.59851-.17066.21387-.34522.42456-.52393.62928q-.53539.61578-1.10034 1.196c-.76026.7666-1.55713 1.48731-2.3645 2.19287a22.65708 22.65708 0 01-2.60157 1.986 17.32437 17.32437 0 01-2.96167 1.32459 8.9 8.9 0 00-2.46655 1.73718A19.04619 19.04619 0 00369.45676 195.6554z"/><path d="M385.312 182.4071c.21582 2.007.511 3.99451.85327 5.96582a56.48358 56.48358 0 001.31665 5.82178 21.75526 21.75526 0 002.27247 5.37476 6.36477 6.36477 0 004.24218 3.25281l.03272.005.04687.01184a2.69679 2.69679 0 002.2124-.31982 3.46572 3.46572 0 001.09937-2.14588 12.23591 12.23591 0 00.06372-2.72216c-.05151-.92664-.23657-1.8407-.35791-2.77417a20.48917 20.48917 0 01.76392 2.71813 10.44528 10.44528 0 01.25537 2.86683 4.0728 4.0728 0 01-1.228 2.80127 3.16738 3.16738 0 01-1.4917.68859 4.08238 4.08238 0 01-1.62451-.04687l.0791.0166a6.03593 6.03593 0 01-3.03516-1.26929 9.61686 9.61686 0 01-2.11743-2.41247 20.06263 20.06263 0 01-2.314-5.74549 37.97865 37.97865 0 01-.97583-6.02246A42.17168 42.17168 0 01385.312 182.4071zM380.83176 186.32849q.0044 3.35944.3313 6.68811a45.06068 45.06068 0 001.08838 6.57092 24.16281 24.16281 0 002.32568 6.18714 12.69934 12.69934 0 004.47485 4.80762 11.45408 11.45408 0 01-4.89209-4.56214 22.84781 22.84781 0 01-2.5188-6.28271 39.58517 39.58517 0 01-.95849-6.68311A40.01386 40.01386 0 01380.83176 186.32849z"/><path d="M384.408 196.274a.94445.94445 0 000-1.88777.94445.94445 0 000 1.88777zM372.89694 225.46643a30.03434 30.03434 0 015.3208-7.11414 27.48229 27.48229 0 017.21582-5.32714 22.55684 22.55684 0 012.07081-.90906l1.05712-.39063.49219-.18835.49268-.20862a28.22127 28.22127 0 003.81372-2.02649 16.21 16.21 0 005.93213-6.00732l.01611-.03247a8.16914 8.16914 0 00.69824-2.26941 17.058 17.058 0 00.2063-2.46887 19.46225 19.46225 0 00-.12427-2.50538c-.09985-.83447-.23315-1.66735-.38964-2.50073l.38476 1.21289c.106.41077.2124.823.30347 1.239a19.86575 19.86575 0 01.38037 2.53613 13.35111 13.35111 0 01-.03 2.5896 8.75108 8.75108 0 01-.648 2.59851l.01587-.0321a15.7028 15.7028 0 01-6.084 6.6654 26.78819 26.78819 0 01-3.9773 2.149l-.52808.21728-.543.2013-1.022.36523a21.45743 21.45743 0 00-1.98706.84741c-.65771.29236-1.27661.66748-1.91845.99695-.61207.38269-1.23511.75183-1.83008 1.16394a32.5207 32.5207 0 00-3.44092 2.67273A40.147 40.147 0 00372.89694 225.46643z"/><path d="M385.68576,188.101a8.95331,8.95331,0,0,1,1.08936-2.37622,6.13207,6.13207,0,0,1,1.8667-1.87829,4.26243,4.26243,0,0,1,2.61377-.64283,6.88933,6.88933,0,0,1,2.59375.73059l.00317.00135.04321.02783a.82775.82775,0,0,0,.37281.13232.28545.28545,0,0,0,.25-.11889,1.78562,1.78562,0,0,0,.27807-.90332,13.35362,13.35362,0,0,0-.08667-2.30494,29.848,29.848,0,0,1-.01147-4.82385,11.65366,11.65366,0,0,1,.43652-2.449,3.25108,3.25108,0,0,1,.28589-.64478,1.1589,1.1589,0,0,1,.81128-.60156,1.00872,1.00872,0,0,1,.5664.11243,2.38377,2.38377,0,0,1,.31958.18591,3.251,3.251,0,0,1,.533.45215A7.49292,7.49292,0,0,1,399.4426,177.71c.03052,1.60632.05469,3.17847.23462,4.68616a3.8507,3.8507,0,0,0,.09936.49988c.0022.04785.082.14624-.02588.01867a.291.291,0,0,0-.08081-.05407.4124.4124,0,0,0-.17749-.0542.46079.46079,0,0,0-.28027.06726c-.08521.06311-.06714.057-.06714.057a10.18288,10.18288,0,0,0,.42969-.98681,21.25771,21.25771,0,0,0,.69946-2.20862,12.35169,12.35169,0,0,0,.44312-4.49646,8.29515,8.29515,0,0,1-.04273-2.50024,6.02884,6.02884,0,0,1,.7876-2.42395l.2146-.28235c.092-.08863.19409-.17334.2937-.25513a2.1706,2.1706,0,0,1,.39258-.17957,1.98635,1.98635,0,0,1,.45434-.01086,2.06054,2.06054,0,0,1,1.13135.88562,10.1335,10.1335,0,0,1,1.14771,2.16992,8.6291,8.6291,0,0,1,.52148,2.39575c.031.40662.031.81348.03,1.21192a7.0646,7.0646,0,0,1-.14526,1.222c-.27759,1.5636-.72876,3.12586-.92359,4.63746a.84326.84326,0,0,0,.00147.10424c-.01636-.01074.03979-.00268-.095-.09131-.05176-.01428-.02027-.01257-.03394-.01074a1.12013,1.12013,0,0,0,.21265-.08935,3.46453,3.46453,0,0,0,.46435-.31226,5.52528,5.52528,0,0,0,.82105-.80066,6.51722,6.51722,0,0,0,1.10742-2.011,17.15769,17.15769,0,0,0,.4917-4.65113,42.57468,42.57468,0,0,1,.22339-4.78528,3.64913,3.64913,0,0,1,1.06323-2.28894,2.889,2.889,0,0,1,2.46826-.83239,2.06434,2.06434,0,0,1,1.18775.75439,3.52361,3.52361,0,0,1,.5852,1.18347,11.042,11.042,0,0,1,.40015,2.43164,34.49408,34.49408,0,0,1-.03882,4.81922c-.062.80017-.13721,1.59826-.25244,2.40185a9.138,9.138,0,0,1-.24951,1.25073l-.033.13807a.05041.05041,0,0,0-.00318-.03211c-.00683.001-.00708-.02112-.03125-.08874a.42543.42543,0,0,0-.22949-.18763c-.13184-.02343-.08447-.00012-.03979-.031a1.50756,1.50756,0,0,0,.17187-.09131,4.63238,4.63238,0,0,0,1.363-1.563,5.16137,5.16137,0,0,0,.54248-2.06494c.14624-1.5293.145-3.11194.15356-4.69458.00952-.80249-.00781-1.56934.05884-2.43848l.02173-.17834.01123-.08911.04224-.15723a1.751,1.751,0,0,1,.16211-.3678c.09057-.17566.19506-.3695.311-.55774a3.44307,3.44307,0,0,1,.98169-1.08264,1.848,1.848,0,0,1,1.73584-.15039,2.92553,2.92553,0,0,1,1.18506.94592,5.882,5.882,0,0,1,.93335,2.49292,28.2603,28.2603,0,0,1,.322,4.86023l-.0022,1.18726.01026.55139a3.56412,3.56412,0,0,0,.09155.49695,10.1589,10.1589,0,0,1,.23682,2.52222,6.57532,6.57532,0,0,1-.60914,2.54956,5.079,5.079,0,0,1-1.70947,2.02038c-1.37427.96582-2.75,1.70764-4.13989,2.49964l-8.344,4.58667c-2.7837,1.5166-5.56958,3.02856-8.30372,4.62536-1.36206.80628-2.728,1.60486-4.062,2.45581-.65014.44532-1.32373.86646-1.949,1.3451l-.93433.72583-.83447.82849-.10034-.07617.80786-.89246.90454-.78357c.60742-.51843,1.25879-.97546,1.89185-1.46033,1.29907-.91882,2.61279-1.8175,3.957-2.66626,2.68628-1.70007,5.41552-3.32568,8.15283-4.93335l8.23-4.76806c1.35132-.80017,2.74121-1.62647,3.95727-2.48975a4.42091,4.42091,0,0,0,1.80079-3.61914,8.88012,8.88012,0,0,0-.2212-2.20081,4.538,4.538,0,0,1-.11938-.67211c-.0127-.2345-.01587-.43555-.01636-.63746l-.00366-1.19177a27.11606,27.11606,0,0,0-.32275-4.621,5.12086,5.12086,0,0,0-.67847-1.93738,1.68965,1.68965,0,0,0-.6355-.538.51716.51716,0,0,0-.53125.03076,2.24158,2.24158,0,0,0-.59741.672c-.094.14807-.18018.30212-.27368.47754-.04.07068-.13477.24743-.082.17151l.00073-.01453-.00708.05847-.01514.1167c-.06445.71167-.06445,1.53345-.08154,2.31616-.02979,1.58765-.04468,3.1825-.2207,4.81018a6.31351,6.31351,0,0,1-.70728,2.48828,5.46978,5.46978,0,0,1-1.791,1.93836,2.40891,2.40891,0,0,1-.35864.17468.99871.99871,0,0,1-.6145.05994.65648.65648,0,0,1-.45166-.35974.48019.48019,0,0,1-.07227-.22632,1.54093,1.54093,0,0,1-.00878-.18067.87676.87676,0,0,1,.04321-.25268l.05249-.18714a8.618,8.618,0,0,0,.2395-1.07543c.13086-.76331.22632-1.54285.30786-2.322a33.64759,33.64759,0,0,0,.16675-4.6864,10.304,10.304,0,0,0-.30469-2.26245,1.8443,1.8443,0,0,0-1.189-1.47339,2.25245,2.25245,0,0,0-1.886.60889,3.04327,3.04327,0,0,0-.93994,1.91626,34.67967,34.67967,0,0,0-.32568,4.70764,17.44853,17.44853,0,0,1-.564,4.77087,6.90625,6.90625,0,0,1-1.198,2.12171,5.99028,5.99028,0,0,1-.86743.86865,3.81778,3.81778,0,0,1-.51684.35706,1.33348,1.33348,0,0,1-.33521.13647.38506.38506,0,0,1-.17969-.00842c-.18286-.11279-.13061-.16077-.16333-.21692a1.06137,1.06137,0,0,1-.01-.19263c.18628-1.63855.61011-3.14209.86231-4.7052a6.61535,6.61535,0,0,0,.12109-1.13855,10.66374,10.66374,0,0,0-.061-1.16443,8.045,8.045,0,0,0-.5669-2.219,9.48343,9.48343,0,0,0-1.14428-1.98584c-.22-.25684-.48365-.547-.69361-.56238-.17041-.03479-.3894.12549-.5647.42517a5.29559,5.29559,0,0,0-.58252,2.09168,7.36954,7.36954,0,0,0,.11646,2.23718,12.0346,12.0346,0,0,1-.35083,4.9209,22.33061,22.33061,0,0,1-.71069,2.333,9.49755,9.49755,0,0,1-.51783,1.19311.91781.91781,0,0,1-.26245.27844.66884.66884,0,0,1-.41821.10743.718.718,0,0,1-.24878-.07312.90434.90434,0,0,1-.13867-.10071,1.12075,1.12075,0,0,1-.28931-.50745,4.82294,4.82294,0,0,1-.14331-.66357,35.98424,35.98424,0,0,1-.22143-4.8125,6.49859,6.49859,0,0,0-1.44165-4.03919,2.22881,2.22881,0,0,0-.36621-.3219,1.376,1.376,0,0,0-.1919-.11633c-.075-.0415-.02246-.00476-.0022-.02063.07788-.02258-.00952-.00354-.07934.12512a2.28926,2.28926,0,0,0-.19776.43885,10.79974,10.79974,0,0,0-.42089,2.22143,34.24214,34.24214,0,0,0-.11866,4.6825,13.935,13.935,0,0,1,.00293,2.44458,2.36568,2.36568,0,0,1-.50635,1.2998.99173.99173,0,0,1-.80834.31787,1.46572,1.46572,0,0,1-.72706-.28406l.04615.02906c-.37891-.16053-.74781-.36316-1.13623-.49414a5.51936,5.51936,0,0,0-1.19263-.26062,3.757,3.757,0,0,0-2.35522.45056,5.76786,5.76786,0,0,0-1.83912,1.67261,9.20714,9.20714,0,0,0-1.21264,2.24255Z"/><polygon points="391.865 183.8 386.248 175.985 416.487 157.227 427.301 166.063 419.994 170.877 419.647 170.352 426.239 166.008 416.437 157.998 387.153 176.165 392.376 183.433 391.865 183.8"/><path d="M393.6489 171.76453a19.994 19.994 0 011.58154-3.74024 18.77176 18.77176 0 012.29419-3.40124 7.52 7.52 0 011.63647-1.43152 2.54122 2.54122 0 011.21656-.39246 1.59025 1.59025 0 01.73486.15991 1.78252 1.78252 0 01.51977.42164 2.72711 2.72711 0 01.86939 2.08642 2.11071 2.11071 0 01-1.33032 1.631 2.0999 2.0999 0 00.7124-1.644 2.24248 2.24248 0 00-.9292-1.36255.59593.59593 0 00-.519-.19116 1.50327 1.50327 0 00-.64185.30115 7.0338 7.0338 0 00-1.32593 1.25366c-.85107.95459-1.61889 2.02893-2.40918 3.09033C395.27731 169.61694 394.49777 170.70044 393.6489 171.76453zM347.48215 346.77539c-.11328-.4082-11.33985-40.87012-13.13233-45.877l.59278-.21289c1.7998 5.02929 13.03271 45.51367 13.146 45.92187zM280.94553 410.65417c-.28247 1.24964-.64722 2.47376-1.03321 3.6908-.38574 1.21753-.83593 2.41235-1.27954 3.611-.49048 1.17981-.97558 2.3645-1.55737 3.50855-.29468.56982-.603 1.13427-.94653 1.6803a9.32831 9.32831 0 01-.57642.78112 1.32479 1.32479 0 01-.78638.542c.574-.27.80567-.93555 1.09449-1.47547.282-.56421.53759-1.14368.77539-1.7312.48388-1.171.96972-2.34387 1.41186-3.53528l1.41138-3.5448C279.93869 413.00146 280.41721 411.82056 280.94553 410.65417zM296.18283 421.62207a18.6858 18.6858 0 01-1.04443 3.1344c-.21558.502-.43433 1.00207-.66846 1.49451-.21826.50073-.4978.96887-.675 1.49646a4.49061 4.49061 0 01.21436-1.66651 13.46106 13.46106 0 01.54907-1.56738A13.25518 13.25518 0 01296.18283 421.62207z"/><path d="M331.52367 458.51525a8.855 8.855 0 00-5.01-4.33c-12.07007-4.38013-26.39014-22.91-30.33008-26.44006-4.17993-3.74-8.28 3.06994-13.71 4.42-5.41992 1.36-4.76-6.56006-9.07007-7.48-4.3-.92-7.02 16.54993-7.02 16.54993l-2.72 5.43c2.95 2.27 11.1001 5.21 11.1001 5.21l3.08984-1.81006c22.12012 14.73011 48.11011 16.54 48.11011 16.54C332.84374 464.6953 332.84374 461.20531 331.52367 458.51525zm-56.46021-11.55994a19.02119 19.02119 0 01-2.56982-1.12012 19.97046 19.97046 0 01-4.52-3.24 43.87171 43.87171 0 014.99 2.36011l2.3999 1.27991a14.30256 14.30256 0 002.49 1.11A5.89578 5.89578 0 01275.06346 446.95531zm33.23-1.33008c-.58984.34009-1.16992.6001-1.73974.88-.57007.28-1.13013.55993-1.68018.85-1.11987.56006-2.18994 1.18006-3.37988 1.8a5.4802 5.4802 0 011.27-1.56006 7.78471 7.78471 0 011.6499-1.12988A7.07958 7.07958 0 01308.29344 445.62523zm-3.3999-4.39a25.14992 25.14992 0 00-4.3999 2.02c-1.41992.78-2.79 1.63-4.31006 2.37a10.34818 10.34818 0 011.75-1.81006 13.69176 13.69176 0 012.08008-1.42993 10.69145 10.69145 0 012.33984-.97A5.7524 5.7524 0 01304.89354 441.23522zm-9.73-3.43006a18.03207 18.03207 0 013.08008-1.04992 6.1804 6.1804 0 013.25-.04993 10.8457 10.8457 0 00-3.03.79993c-.97.38-1.92993.78-2.88989 1.22009-1.93018.83984-3.83008 1.75-5.86011 2.50989A22.156 22.156 0 01295.16356 437.80516zm28.05005 23.63013c-.92017-.07007-1.8501-.11011-2.76-.24-1.82007-.24-3.6499-.46008-5.46-.84009a77.24706 77.24706 0 01-20.89014-7.12c-1.6499-.83-3.25976-1.74-4.83984-2.68994a48.83252 48.83252 0 01-4.53-3.15 86.59028 86.59028 0 009.7 5.15 109.1273 109.1273 0 0020.72 7.05993c3.55.87012 7.17017 1.42005 10.81006 1.99C325.04344 461.55516 324.12352 461.49523 323.21361 461.43529zM369.44772 427.73438a45.29921 45.29921 0 011.10865 5.56152 44.743 44.743 0 01.48608 5.65 44.78517 44.78517 0 01-1.10864-5.56152A45.30131 45.30131 0 01369.44772 427.73438zM386.86228 426.90442c.41748 1.69775.69409 3.4 1.00048 5.0935.14478.84778.30249 1.69129.479 2.52686a12.43045 12.43045 0 00.32666 1.22961 2.80947 2.80947 0 00.24365.57557.55029.55029 0 00.47949.33056.57836.57836 0 01-.61084-.2279 3.00843 3.00843 0 01-.3938-.55225 7.61514 7.61514 0 01-.51831-1.22436 18.50057 18.50057 0 01-.62524-2.54834A24.86036 24.86036 0 01386.86228 426.90442z"/><path d="M417.03368 447.39525q-2.90991-.72-5.43018-1.43994a12.88513 12.88513 0 01-5.56006 4.34 10.95139 10.95139 0 012.47022-2.56006 11.3777 11.3777 0 013.08984-1.77991c-2.36987-.67-4.48-1.33008-6.36987-1.97009a14.67419 14.67419 0 01-2.87012 2.96008 15.19449 15.19449 0 01-3.51 2.17993 15.5023 15.5023 0 012.88013-2.95 14.95853 14.95853 0 013.5-2.19006c-11.55-3.92005-14.88013-7.17005-15.84009-7.32 0 0-4.77 9.98-18.3501 2.28 1.02-1.20007-5.9497 3.36987-3.88989 10.21a20.20656 20.20656 0 010 12.01h11.49s1.39014-8.38 8.22-4.53l5.7 4.53s28.72022 2.05 39.94019-2.78a41.75957 41.75957 0 01-9.97 1.11c-3.3501.05993-6.7002-.05994-10.04-.23-3.34009-.21009-6.66992-.46009-9.99-.84-3.33008-.36011-6.64014-.77-9.94019-1.34009 3.34009.16 6.67017.38013 10 .58008l9.99024.6c3.32983.19006 6.6499.34 9.98.46008 1.65991.03992 3.32983.07 4.99.0199a34.65712 34.65712 0 004.98-.36 8.26 8.26 0 003.78-2.76S438.32372 452.64525 417.03368 447.39525zm-42.18018 8.74a13.63059 13.63059 0 01-2.2998-.16992 14.85166 14.85166 0 01-4.38013-1.36011 25.20571 25.20571 0 014.54.37012c.74.11987 1.47.24 2.21.38989.74.13 1.46.28 2.24.36011A5.59265 5.59265 0 01374.8535 456.13524zm20.12012-12.28a12.58279 12.58279 0 01-3.32007 1.77 12.80774 12.80774 0 012.73-2.57995 12.98343 12.98343 0 013.31006-1.77A12.28577 12.28577 0 01394.97362 443.85521zM342.95236 113.514a29.76672 29.76672 0 011.1875-3.03455l.62744-1.47229a5.97143 5.97143 0 00.45044-1.53406 3.05953 3.05953 0 01.01954 1.676 9.038 9.038 0 01-.52051 1.58093A10.27429 10.27429 0 01342.95236 113.514z"/><path d="M355.33633,103.84869s-8.48438,6.235-10.50965,5.76041c0,0-1.87425-10.89525.41587-15.12384,1.41983-2.62181,4.05285-12.68578,19.306-10.87359s16.3103,16.61249,16.3103,16.61249c-1.39033.2183-2.85148.39928-4.37961.52863a62.382,62.382,0,0,1-12.68577-.2266s-3.47351-5.13469-7.24906-.90609A8.026,8.026,0,0,0,355.33633,103.84869Z"/><path d="M380.85886 100.22412c-.31055 2.02442-.69409 4.04077-.92041 6.05982a5.27162 5.27162 0 00-.05738 1.3966 5.68079 5.68079 0 00.63086 1.276c.52344.8523 1.1272 1.67432 1.69068 2.55347a6.83791 6.83791 0 01.771 1.48022 1.50116 1.50116 0 01.075.587 1.33323 1.33323 0 01-.24951.61121 1.94538 1.94538 0 01-.88159.58825c-.27856.10242-.53808.16687-.76489.23706-.20947.04786-.45386.195-.3606.13611a.269.269 0 00.041-.10693c-.00171-.05493-.0083.05383-.01465.09607l-.02441.16614c-.03663.15161-.06983.28759-.10962.42q-.1161.38966-.25049.76013a26.46509 26.46509 0 01-2.85181 5.58679 13.00734 13.00734 0 01-4.64673 4.38941 7.0803 7.0803 0 01-6.39331-.342 7.00128 7.00128 0 01-1.29419-.94812l-1.18408-1.01612-.59009-.50708c-.23047-.18335-.32885-.31079-.49023-.35266a1.60024 1.60024 0 00-1.20313.22534 7.42591 7.42591 0 00-2.22607 1.929 13.36708 13.36708 0 00-1.6272 2.57129 11.07338 11.07338 0 011.35938-2.77014 7.86981 7.86981 0 012.1914-2.26783 2.19037 2.19037 0 011.71729-.36364 1.21167 1.21167 0 01.458.22888c.1521.10547.21508.16125.3269.24426l.60132.45935 1.199.917a6.33993 6.33993 0 006.65332.91163 12.13266 12.13266 0 004.11084-4.01954 26.18465 26.18465 0 002.77515-5.28869q.1366-.34736.25-.68994l.095-.3191.00586-.02319c.00415-.02075.00659.02478.01709-.093a.88674.88674 0 01.17212-.4602 1.24387 1.24387 0 01.54712-.40637 3.47011 3.47011 0 01.4331-.14417c.26416-.07239.50293-.12622.70679-.19507a1.00128 1.00128 0 00.40259-.2157.29675.29675 0 00.042-.089 1.09988 1.09988 0 00-.02954-.168 6.17018 6.17018 0 00-.585-1.26221c-.49194-.87317-1.0542-1.73547-1.55151-2.65637a6.23328 6.23328 0 01-.6316-1.5105 5.10067 5.10067 0 01.13892-1.65015C379.769 104.1709 380.27121 102.19031 380.85886 100.22412zM355.33615 103.84863a5.01264 5.01264 0 001.14185 2.49744 2.99246 2.99246 0 001.09717.72314 9.20862 9.20862 0 001.38574.40393 6.00784 6.00784 0 01-.75171.12989 3.235 3.235 0 01-.77539-.06348 2.62836 2.62836 0 01-1.407-.75549A3.05994 3.05994 0 01355.33615 103.84863z"/><path d="M363.79343 100.52612c1.36792.30457 2.7146.67481 4.0581 1.05506 1.344.37866 2.67066.81128 4.00684 1.21435 1.32056.45154 2.64941.8772 3.96191 1.353 1.3125.47632 2.62207.962 3.90992 1.51453-1.36817-.30359-2.7146-.67408-4.05835-1.05384-1.34351-.38037-2.67066-.81091-4.00635-1.21545-1.32007-.45313-2.64966-.87671-3.96167-1.35413C366.39108 101.56372 365.08176 101.07776 363.79343 100.52612zM374.063 108.115a.94446.94446 0 000-1.88778.94446.94446 0 000 1.88778z"/><rect width="8.506" height="1.888" x="373.737" y="106.982" transform="rotate(-73.468 377.99 107.926)"/><path d="M360.96188 119.55493a7.81854 7.81854 0 01-2.8103-4.59472 7.44589 7.44589 0 01-.06738-2.754 7.77373 7.77373 0 01.87671-2.57129 15.46462 15.46462 0 00-.38843 2.62134 9.48246 9.48246 0 00.19482 2.57592 10.387 10.387 0 00.82349 2.45679A13.14582 13.14582 0 00360.96188 119.55493zM358.01071 102.49207a1.47788 1.47788 0 01.583.49023c.07739.14844.136.29431-.00073.41516-.13916.12061-.45752.218-.5315.34692-.08447.12757 0 .27686.158.43567a1.04929 1.04929 0 01.31983.45642.65531.65531 0 01.06225.42322c-.12378.261-.37329.50574-1.01123.70044l-.18725-.02405c-.56787-.34985-.74732-.6499-.801-.93359a.65577.65577 0 01.16748-.3938 1.04924 1.04924 0 01.42481-.36059c.19311-.11353.3125-.2367.26318-.38147-.03882-.14344-.32227-.31824-.42627-.4701-.10181-.15149-.0083-.27795.10425-.40185a1.47848 1.47848 0 01.688-.32678z"/><path d="M357.549,104.1488a21.76811,21.76811,0,0,0,.124,16.79724c1.2749,2.64734,2.88305,5.12793,4.35254,7.65735.7478,1.25672,1.4873,2.51673,2.30078,3.705a20.20365,20.20365,0,0,0,1.26147,1.6958,6.44322,6.44322,0,0,0,.67847.69189,1.30942,1.30942,0,0,0,.54248.3l-.38794.16394a6.3855,6.3855,0,0,0,1.20239-1.79943,9.5547,9.5547,0,0,0,.67114-2.21631,12.21294,12.21294,0,0,0,.21631-2.36963c.00318-.40137-.01758-.80481-.02514-1.21167l-.105-1.21961.12255-.02771a14.8815,14.8815,0,0,1,.59449,2.41712,12.96145,12.96145,0,0,1,.10278,2.527,9.74283,9.74283,0,0,1-.53564,2.524,6.41452,6.41452,0,0,1-1.38208,2.3335l-.15552.16028-.23291.00378a2.27623,2.27623,0,0,1-1.44678-.53833,5.48623,5.48623,0,0,1-.87891-.86072,14.59953,14.59953,0,0,1-1.33593-1.861c-.78223-1.28-1.49781-2.5758-2.15918-3.89746-1.3396-2.63379-2.38452-5.39917-3.74756-8.00378-1.31226-2.62012-2.54541-5.48682-2.52637-8.55616a15.127,15.127,0,0,1,.64771-4.47656,12.0853,12.0853,0,0,1,1.99707-4.008Z"/><path d="M366.91452 135.63892c.45581 5.2406.82153 10.45971 1.01123 15.69555.0647 2.61927.07642 5.24768.30078 7.86.084 1.30859.28931 2.60534.428 3.90808.18384 1.298.39917 2.59155.61279 3.88391.48853 2.55493.88672 5.20837 1.43238 7.66992a8.96027 8.96027 0 004.36621 5.63489 14.9687 14.9687 0 007.29175 1.60632 34.5046 34.5046 0 007.67334-1.22326l.03711.12024a26.27472 26.27472 0 01-7.66846 2.07446 14.91177 14.91177 0 01-7.96655-1.41089 9.65818 9.65818 0 01-3.19141-2.70984 10.53488 10.53488 0 01-1.71948-3.78882c-.30567-1.36889-.41944-2.62988-.604-3.94873-.17187-1.30493-.28637-2.6167-.40747-3.92639-.20337-2.624-.41992-5.2406-.67822-7.85327-.26685-2.61145-.65283-5.21545-.92334-7.83215-.26123-2.617-.3501-5.246-.37793-7.87415-.00708-2.629.02857-5.25928.25757-7.88611zM378.45065 119.87732a7.58674 7.58674 0 01-3.76025-.83814 4.42272 4.42272 0 01-1.54346-1.25744 2.634 2.634 0 01-.54858-1.874 4.24325 4.24325 0 002.3855 2.5752A26.436 26.436 0 00378.45065 119.87732zM349.23215 150.911a2.16109 2.16109 0 01.52.83521 6.06513 6.06513 0 01.32593.89917 16.5308 16.5308 0 01.48339 1.84362c.31055 1.23474.44971 2.49585.68262 3.74475l.46607 3.77466.33447 3.78638c.22363 2.52563.301 5.05688.45874 7.58618l.26123 7.593c.06982 5.06274.148 10.12768.08789 15.18945l-.05347 7.594-.197 7.59033c-.07715 2.52966-.11694 5.06079-.22485 7.58911l-.34082 7.58435c-.20972 5.05676-.48828 10.10986-.77613 15.16223l-1.58374 30.31812-.00708.13781-.1184.05445a24.83755 24.83755 0 01-7.94458 2.13476 21.09122 21.09122 0 01-8.20215-.78173 11.2763 11.2763 0 01-1.95484-.69654 12.27246 12.27246 0 01-1.88354-.87427l-1.801-1.04272c-.56689-.396-1.10254-.83789-1.65527-1.25586l-.82324-.63611c-.26245-.2251-.4939-.48376-.74243-.72424l-1.46656-1.47058c-.92114-1.02844-1.71923-2.16114-2.58471-3.2395l-.07935-.09888-.00635-.16528c-.38012-9.74231-.561-19.48536-.71875-29.23121-.15991-9.74572-.12671-19.494-.03149-29.24194q.18677-14.62188 1.04321-29.23108c.30957-4.8667.68042-9.732 1.26538-14.57849.30225-2.42163.67774-4.83691 1.1792-7.22888a34.65313 34.65313 0 01.91651-3.5509 9.45365 9.45365 0 011.6289-3.28235l.092.08569a9.3145 9.3145 0 00-1.489 3.2677 34.31275 34.31275 0 00-.7959 3.54883c-.427 2.39075-.70825 4.80688-.95361 7.22522-.50025 4.83691-.78711 9.6969-1.01319 14.55749-.44189 9.72437-.52417 19.46326-.60278 29.19934-.09643 9.73719-.00537 19.476.04956 29.215.06494 9.73877.24292 19.47925.42261 29.215l-.08569-.2638c.82226 1.05481 1.5791 2.17066 2.45434 3.18091l1.394 1.44324c.23609.23645.45581.49194.70557.713l.7832.62415c.52588.41052 1.03516.847 1.5752 1.23828l1.7168 1.03076a11.64489 11.64489 0 001.79956.87109 10.70293 10.70293 0 001.873.70252 20.49977 20.49977 0 007.94068.89221 23.67112 23.67112 0 007.78515-1.9613l-.12524.192c.57788-10.10119 1.1604-20.20361 1.48193-30.31677.17847-5.05579.34619-10.11157.45166-15.16895l.363-15.16833c.23486-10.11145.405-20.22278.32129-30.3324l-.10791-7.58044c-.10645-2.52283-.13281-5.0531-.30493-7.5719l-.22241-3.782-.33594-3.7721c-.189-1.24438-.28516-2.5105-.551-3.741a16.372 16.372 0 00-.41577-1.83972 5.954 5.954 0 00-.28906-.8927l-.17969-.43176a2.2193 2.2193 0 00-.251-.35339z"/></svg>